G04 #@! TF.FileFunction,Copper,L1,Top,Signal*
%FSLAX46Y46*%
G04 Gerber Fmt 4.6, Leading zero omitted, Abs format (unit mm)*
G04 Created by KiCad (PCBNEW 4.0.6) date Fri Jul 14 14:02:12 2017*
%MOMM*%
%LPD*%
G01*
G04 APERTURE LIST*
%ADD10C,0.100000*%
%ADD11C,4.064000*%
%ADD12R,1.700000X1.700000*%
%ADD13O,1.700000X1.700000*%
%ADD14C,1.600000*%
%ADD15O,1.600000X1.600000*%
%ADD16C,1.620000*%
%ADD17R,1.600000X1.600000*%
%ADD18C,0.600000*%
%ADD19C,0.600000*%
%ADD20C,1.000000*%
%ADD21C,0.254000*%
G04 APERTURE END LIST*
D10*
D11*
X16510000Y-82042000D03*
X72263000Y-16510000D03*
X16256000Y-16256000D03*
D12*
X16764000Y-24638000D03*
D13*
X19304000Y-24638000D03*
D12*
X16510000Y-68961000D03*
D13*
X16510000Y-71501000D03*
X16510000Y-74041000D03*
X16510000Y-76581000D03*
D12*
X41910000Y-20066000D03*
D13*
X44450000Y-20066000D03*
X46990000Y-20066000D03*
X49530000Y-20066000D03*
X52070000Y-20066000D03*
X54610000Y-20066000D03*
X57150000Y-20066000D03*
X59690000Y-20066000D03*
X62230000Y-20066000D03*
X64770000Y-20066000D03*
D12*
X42037000Y-40513000D03*
D13*
X44577000Y-40513000D03*
X47117000Y-40513000D03*
X49657000Y-40513000D03*
X52197000Y-40513000D03*
X54737000Y-40513000D03*
X57277000Y-40513000D03*
X59817000Y-40513000D03*
X62357000Y-40513000D03*
X64897000Y-40513000D03*
D12*
X32258000Y-24638000D03*
D13*
X29718000Y-24638000D03*
D12*
X72517000Y-33528000D03*
D13*
X69977000Y-33528000D03*
D12*
X72771000Y-48768000D03*
D13*
X70231000Y-48768000D03*
D14*
X55245000Y-64135000D03*
D15*
X55245000Y-76835000D03*
D14*
X60579000Y-64135000D03*
D15*
X60579000Y-76835000D03*
D14*
X66294000Y-64008000D03*
D15*
X66294000Y-76708000D03*
D14*
X71882000Y-63881000D03*
D15*
X71882000Y-76581000D03*
D14*
X24130000Y-17145000D03*
D15*
X36830000Y-17145000D03*
D14*
X23622000Y-74168000D03*
D15*
X36322000Y-74168000D03*
D14*
X23622000Y-79248000D03*
D15*
X36322000Y-79248000D03*
D14*
X23622000Y-69088000D03*
D15*
X36322000Y-69088000D03*
D16*
X70104000Y-29130000D03*
X72604000Y-26630000D03*
X70104000Y-24130000D03*
X70231000Y-43735000D03*
X72731000Y-41235000D03*
X70231000Y-38735000D03*
D12*
X55372000Y-54737000D03*
D13*
X55372000Y-57277000D03*
X55372000Y-59817000D03*
D12*
X60579000Y-54737000D03*
D13*
X60579000Y-57277000D03*
X60579000Y-59817000D03*
D12*
X66294000Y-54737000D03*
D13*
X66294000Y-57277000D03*
X66294000Y-59817000D03*
D12*
X72009000Y-54737000D03*
D13*
X72009000Y-57277000D03*
X72009000Y-59817000D03*
D12*
X19177000Y-51943000D03*
D13*
X16637000Y-51943000D03*
D12*
X19050000Y-57531000D03*
D13*
X16510000Y-57531000D03*
D12*
X19050000Y-63246000D03*
D13*
X16510000Y-63246000D03*
D12*
X19177000Y-46863000D03*
D13*
X16637000Y-46863000D03*
D17*
X37338000Y-32893000D03*
D15*
X19558000Y-40513000D03*
X34798000Y-32893000D03*
X22098000Y-40513000D03*
X32258000Y-32893000D03*
X24638000Y-40513000D03*
X29718000Y-32893000D03*
X27178000Y-40513000D03*
X27178000Y-32893000D03*
X29718000Y-40513000D03*
X24638000Y-32893000D03*
X32258000Y-40513000D03*
X22098000Y-32893000D03*
X34798000Y-40513000D03*
X19558000Y-32893000D03*
X37338000Y-40513000D03*
D17*
X49276000Y-79629000D03*
D15*
X41656000Y-46609000D03*
X49276000Y-77089000D03*
X41656000Y-49149000D03*
X49276000Y-74549000D03*
X41656000Y-51689000D03*
X49276000Y-72009000D03*
X41656000Y-54229000D03*
X49276000Y-69469000D03*
X41656000Y-56769000D03*
X49276000Y-66929000D03*
X41656000Y-59309000D03*
X49276000Y-64389000D03*
X41656000Y-61849000D03*
X49276000Y-61849000D03*
X41656000Y-64389000D03*
X49276000Y-59309000D03*
X41656000Y-66929000D03*
X49276000Y-56769000D03*
X41656000Y-69469000D03*
X49276000Y-54229000D03*
X41656000Y-72009000D03*
X49276000Y-51689000D03*
X41656000Y-74549000D03*
X49276000Y-49149000D03*
X41656000Y-77089000D03*
X49276000Y-46609000D03*
X41656000Y-79629000D03*
D14*
X23495000Y-52070000D03*
D15*
X36195000Y-52070000D03*
D14*
X23622000Y-57658000D03*
D15*
X36322000Y-57658000D03*
D14*
X23622000Y-63119000D03*
D15*
X36322000Y-63119000D03*
D14*
X23495000Y-46863000D03*
D15*
X36195000Y-46863000D03*
D11*
X72263000Y-81915000D03*
D18*
X51943000Y-33020000D03*
X24638000Y-28956000D03*
D19*
X16764000Y-24638000D02*
X16764000Y-22352000D01*
X21971000Y-17145000D02*
X24130000Y-17145000D01*
X16764000Y-22352000D02*
X21971000Y-17145000D01*
X16510000Y-68961000D02*
X23495000Y-68961000D01*
X23495000Y-68961000D02*
X23622000Y-69088000D01*
X16510000Y-74041000D02*
X23495000Y-74041000D01*
X23495000Y-74041000D02*
X23622000Y-74168000D01*
X16510000Y-76581000D02*
X19812000Y-76581000D01*
X22479000Y-79248000D02*
X23622000Y-79248000D01*
X19812000Y-76581000D02*
X22479000Y-79248000D01*
D20*
X16510000Y-57531000D02*
X16510000Y-63246000D01*
X16764000Y-54229000D02*
X16764000Y-57277000D01*
X16764000Y-57277000D02*
X16510000Y-57531000D01*
X16637000Y-46863000D02*
X16637000Y-51943000D01*
X41656000Y-54229000D02*
X16764000Y-54229000D01*
X16637000Y-54102000D02*
X16637000Y-51943000D01*
X16764000Y-54229000D02*
X16637000Y-54102000D01*
X41656000Y-54229000D02*
X42418000Y-54229000D01*
X42418000Y-54229000D02*
X47498000Y-59309000D01*
X47498000Y-59309000D02*
X49276000Y-59309000D01*
X16637000Y-51943000D02*
X16510000Y-52070000D01*
X19558000Y-32893000D02*
X19558000Y-35306000D01*
X21336000Y-37084000D02*
X37338000Y-37084000D01*
X19558000Y-35306000D02*
X21336000Y-37084000D01*
X37338000Y-32893000D02*
X37338000Y-37084000D01*
X37338000Y-37084000D02*
X37338000Y-40513000D01*
X42037000Y-40513000D02*
X37338000Y-40513000D01*
X42037000Y-40513000D02*
X42037000Y-40767000D01*
X42037000Y-40767000D02*
X43942000Y-42672000D01*
X43942000Y-42672000D02*
X52197000Y-42672000D01*
X44450000Y-20066000D02*
X44450000Y-34798000D01*
X44450000Y-34798000D02*
X42037000Y-37211000D01*
X42037000Y-37211000D02*
X42037000Y-40513000D01*
X55372000Y-54737000D02*
X60579000Y-54737000D01*
X60579000Y-54737000D02*
X66294000Y-54737000D01*
X66294000Y-54737000D02*
X72009000Y-54737000D01*
X52197000Y-43307000D02*
X52451000Y-43307000D01*
X55372000Y-46228000D02*
X55372000Y-54737000D01*
X52451000Y-43307000D02*
X55372000Y-46228000D01*
X52197000Y-43307000D02*
X52197000Y-42672000D01*
X52197000Y-42672000D02*
X52197000Y-40513000D01*
D19*
X49530000Y-20066000D02*
X49530000Y-40386000D01*
X49530000Y-40386000D02*
X49657000Y-40513000D01*
X52070000Y-32893000D02*
X52070000Y-20066000D01*
X51943000Y-33020000D02*
X52070000Y-32893000D01*
X72731000Y-41235000D02*
X70191000Y-41235000D01*
X54610000Y-22479000D02*
X54610000Y-20066000D01*
X67437000Y-35306000D02*
X54610000Y-22479000D01*
X67437000Y-38481000D02*
X67437000Y-35306000D01*
X70191000Y-41235000D02*
X67437000Y-38481000D01*
X59690000Y-20066000D02*
X59690000Y-19812000D01*
X62230000Y-20066000D02*
X62230000Y-19939000D01*
X62230000Y-19939000D02*
X64516000Y-17653000D01*
X64516000Y-17653000D02*
X67945000Y-17653000D01*
X67945000Y-17653000D02*
X72604000Y-22312000D01*
X72604000Y-22312000D02*
X72604000Y-26630000D01*
D20*
X34544000Y-32893000D02*
X34417000Y-32893000D01*
D19*
X55245000Y-64135000D02*
X55245000Y-59944000D01*
X55245000Y-59944000D02*
X55372000Y-59817000D01*
X55372000Y-59817000D02*
X55372000Y-57277000D01*
X60579000Y-64135000D02*
X60579000Y-59817000D01*
X60579000Y-59817000D02*
X60579000Y-57277000D01*
X66294000Y-64008000D02*
X66294000Y-59817000D01*
X66294000Y-59817000D02*
X66294000Y-57277000D01*
X71882000Y-63881000D02*
X71882000Y-59944000D01*
X71882000Y-59944000D02*
X72009000Y-59817000D01*
X72009000Y-59817000D02*
X72009000Y-57277000D01*
X32258000Y-32893000D02*
X32258000Y-24638000D01*
X24638000Y-32893000D02*
X24638000Y-28956000D01*
X69977000Y-33528000D02*
X69977000Y-29257000D01*
X69977000Y-29257000D02*
X70104000Y-29130000D01*
X70231000Y-43735000D02*
X70231000Y-48768000D01*
X49276000Y-79629000D02*
X47244000Y-81661000D01*
X38608000Y-76454000D02*
X36322000Y-74168000D01*
X38608000Y-79121000D02*
X38608000Y-76454000D01*
X41148000Y-81661000D02*
X38608000Y-79121000D01*
X47244000Y-81661000D02*
X41148000Y-81661000D01*
X36322000Y-79248000D02*
X40132000Y-83058000D01*
X40132000Y-83058000D02*
X50292000Y-83058000D01*
X50292000Y-83058000D02*
X51943000Y-81407000D01*
X51943000Y-81407000D02*
X51943000Y-78486000D01*
X51943000Y-78486000D02*
X50546000Y-77089000D01*
X50546000Y-77089000D02*
X49276000Y-77089000D01*
X36322000Y-79248000D02*
X36449000Y-79248000D01*
X23495000Y-57531000D02*
X19050000Y-57531000D01*
X19050000Y-63246000D02*
X23495000Y-63246000D01*
D21*
G36*
X75388000Y-85040000D02*
X13385000Y-85040000D01*
X13385000Y-82570172D01*
X13842538Y-82570172D01*
X14247709Y-83550761D01*
X14997293Y-84301655D01*
X15977173Y-84708536D01*
X17038172Y-84709462D01*
X18018761Y-84304291D01*
X18769655Y-83554707D01*
X19176536Y-82574827D01*
X19177462Y-81513828D01*
X18772291Y-80533239D01*
X18022707Y-79782345D01*
X17042827Y-79375464D01*
X15981828Y-79374538D01*
X15001239Y-79779709D01*
X14250345Y-80529293D01*
X13843464Y-81509173D01*
X13842538Y-82570172D01*
X13385000Y-82570172D01*
X13385000Y-74041000D01*
X14995907Y-74041000D01*
X15108946Y-74609285D01*
X15430853Y-75091054D01*
X15760026Y-75311000D01*
X15430853Y-75530946D01*
X15108946Y-76012715D01*
X14995907Y-76581000D01*
X15108946Y-77149285D01*
X15430853Y-77631054D01*
X15912622Y-77952961D01*
X16480907Y-78066000D01*
X16539093Y-78066000D01*
X17107378Y-77952961D01*
X17589147Y-77631054D01*
X17666023Y-77516000D01*
X19424710Y-77516000D01*
X21817855Y-79909145D01*
X22121191Y-80111827D01*
X22180556Y-80123636D01*
X22479000Y-80183001D01*
X22479005Y-80183000D01*
X22527742Y-80183000D01*
X22808077Y-80463824D01*
X23335309Y-80682750D01*
X23906187Y-80683248D01*
X24433800Y-80465243D01*
X24837824Y-80061923D01*
X25056750Y-79534691D01*
X25057248Y-78963813D01*
X24839243Y-78436200D01*
X24435923Y-78032176D01*
X23908691Y-77813250D01*
X23337813Y-77812752D01*
X22810200Y-78030757D01*
X22697025Y-78143735D01*
X20473145Y-75919855D01*
X20169809Y-75717173D01*
X19812000Y-75646000D01*
X17666023Y-75646000D01*
X17589147Y-75530946D01*
X17259974Y-75311000D01*
X17589147Y-75091054D01*
X17666023Y-74976000D01*
X22403187Y-74976000D01*
X22404757Y-74979800D01*
X22808077Y-75383824D01*
X23335309Y-75602750D01*
X23906187Y-75603248D01*
X24433800Y-75385243D01*
X24837824Y-74981923D01*
X25056750Y-74454691D01*
X25057248Y-73883813D01*
X24839243Y-73356200D01*
X24435923Y-72952176D01*
X23908691Y-72733250D01*
X23337813Y-72732752D01*
X22810200Y-72950757D01*
X22654686Y-73106000D01*
X17666023Y-73106000D01*
X17589147Y-72990946D01*
X17248447Y-72763298D01*
X17391358Y-72696183D01*
X17781645Y-72267924D01*
X17951476Y-71857890D01*
X17830155Y-71628000D01*
X16637000Y-71628000D01*
X16637000Y-71648000D01*
X16383000Y-71648000D01*
X16383000Y-71628000D01*
X15189845Y-71628000D01*
X15068524Y-71857890D01*
X15238355Y-72267924D01*
X15628642Y-72696183D01*
X15771553Y-72763298D01*
X15430853Y-72990946D01*
X15108946Y-73472715D01*
X14995907Y-74041000D01*
X13385000Y-74041000D01*
X13385000Y-68111000D01*
X15012560Y-68111000D01*
X15012560Y-69811000D01*
X15056838Y-70046317D01*
X15195910Y-70262441D01*
X15408110Y-70407431D01*
X15516107Y-70429301D01*
X15238355Y-70734076D01*
X15068524Y-71144110D01*
X15189845Y-71374000D01*
X16383000Y-71374000D01*
X16383000Y-71354000D01*
X16637000Y-71354000D01*
X16637000Y-71374000D01*
X17830155Y-71374000D01*
X17951476Y-71144110D01*
X17781645Y-70734076D01*
X17505499Y-70431063D01*
X17595317Y-70414162D01*
X17811441Y-70275090D01*
X17956431Y-70062890D01*
X17990227Y-69896000D01*
X22403187Y-69896000D01*
X22404757Y-69899800D01*
X22808077Y-70303824D01*
X23335309Y-70522750D01*
X23906187Y-70523248D01*
X24433800Y-70305243D01*
X24837824Y-69901923D01*
X25056750Y-69374691D01*
X25057000Y-69088000D01*
X34858887Y-69088000D01*
X34968120Y-69637151D01*
X35279189Y-70102698D01*
X35744736Y-70413767D01*
X36293887Y-70523000D01*
X36350113Y-70523000D01*
X36899264Y-70413767D01*
X37364811Y-70102698D01*
X37675880Y-69637151D01*
X37785113Y-69088000D01*
X37675880Y-68538849D01*
X37364811Y-68073302D01*
X36899264Y-67762233D01*
X36350113Y-67653000D01*
X36293887Y-67653000D01*
X35744736Y-67762233D01*
X35279189Y-68073302D01*
X34968120Y-68538849D01*
X34858887Y-69088000D01*
X25057000Y-69088000D01*
X25057248Y-68803813D01*
X24839243Y-68276200D01*
X24435923Y-67872176D01*
X23908691Y-67653250D01*
X23337813Y-67652752D01*
X22810200Y-67870757D01*
X22654686Y-68026000D01*
X17991446Y-68026000D01*
X17963162Y-67875683D01*
X17824090Y-67659559D01*
X17611890Y-67514569D01*
X17360000Y-67463560D01*
X15660000Y-67463560D01*
X15424683Y-67507838D01*
X15208559Y-67646910D01*
X15063569Y-67859110D01*
X15012560Y-68111000D01*
X13385000Y-68111000D01*
X13385000Y-57501907D01*
X15025000Y-57501907D01*
X15025000Y-57560093D01*
X15138039Y-58128378D01*
X15375000Y-58483016D01*
X15375000Y-62293984D01*
X15138039Y-62648622D01*
X15025000Y-63216907D01*
X15025000Y-63275093D01*
X15138039Y-63843378D01*
X15459946Y-64325147D01*
X15941715Y-64647054D01*
X16510000Y-64760093D01*
X17078285Y-64647054D01*
X17560054Y-64325147D01*
X17587850Y-64283548D01*
X17596838Y-64331317D01*
X17735910Y-64547441D01*
X17948110Y-64692431D01*
X18200000Y-64743440D01*
X19900000Y-64743440D01*
X20135317Y-64699162D01*
X20351441Y-64560090D01*
X20496431Y-64347890D01*
X20530227Y-64181000D01*
X22654521Y-64181000D01*
X22808077Y-64334824D01*
X23335309Y-64553750D01*
X23906187Y-64554248D01*
X24433800Y-64336243D01*
X24837824Y-63932923D01*
X25030860Y-63468039D01*
X34930096Y-63468039D01*
X35090959Y-63856423D01*
X35466866Y-64271389D01*
X35972959Y-64510914D01*
X36195000Y-64389629D01*
X36195000Y-63246000D01*
X36449000Y-63246000D01*
X36449000Y-64389629D01*
X36671041Y-64510914D01*
X37177134Y-64271389D01*
X37553041Y-63856423D01*
X37713904Y-63468039D01*
X37591915Y-63246000D01*
X36449000Y-63246000D01*
X36195000Y-63246000D01*
X35052085Y-63246000D01*
X34930096Y-63468039D01*
X25030860Y-63468039D01*
X25056750Y-63405691D01*
X25057248Y-62834813D01*
X25030452Y-62769961D01*
X34930096Y-62769961D01*
X35052085Y-62992000D01*
X36195000Y-62992000D01*
X36195000Y-61848371D01*
X36449000Y-61848371D01*
X36449000Y-62992000D01*
X37591915Y-62992000D01*
X37713904Y-62769961D01*
X37553041Y-62381577D01*
X37177134Y-61966611D01*
X36671041Y-61727086D01*
X36449000Y-61848371D01*
X36195000Y-61848371D01*
X35972959Y-61727086D01*
X35466866Y-61966611D01*
X35090959Y-62381577D01*
X34930096Y-62769961D01*
X25030452Y-62769961D01*
X24839243Y-62307200D01*
X24435923Y-61903176D01*
X23908691Y-61684250D01*
X23337813Y-61683752D01*
X22810200Y-61901757D01*
X22406176Y-62305077D01*
X22403717Y-62311000D01*
X20531446Y-62311000D01*
X20503162Y-62160683D01*
X20364090Y-61944559D01*
X20151890Y-61799569D01*
X19900000Y-61748560D01*
X18200000Y-61748560D01*
X17964683Y-61792838D01*
X17748559Y-61931910D01*
X17645000Y-62083474D01*
X17645000Y-58691163D01*
X17735910Y-58832441D01*
X17948110Y-58977431D01*
X18200000Y-59028440D01*
X19900000Y-59028440D01*
X20135317Y-58984162D01*
X20351441Y-58845090D01*
X20496431Y-58632890D01*
X20530227Y-58466000D01*
X22403187Y-58466000D01*
X22404757Y-58469800D01*
X22808077Y-58873824D01*
X23335309Y-59092750D01*
X23906187Y-59093248D01*
X24433800Y-58875243D01*
X24837824Y-58471923D01*
X25030860Y-58007039D01*
X34930096Y-58007039D01*
X35090959Y-58395423D01*
X35466866Y-58810389D01*
X35972959Y-59049914D01*
X36195000Y-58928629D01*
X36195000Y-57785000D01*
X36449000Y-57785000D01*
X36449000Y-58928629D01*
X36671041Y-59049914D01*
X37177134Y-58810389D01*
X37553041Y-58395423D01*
X37713904Y-58007039D01*
X37591915Y-57785000D01*
X36449000Y-57785000D01*
X36195000Y-57785000D01*
X35052085Y-57785000D01*
X34930096Y-58007039D01*
X25030860Y-58007039D01*
X25056750Y-57944691D01*
X25057248Y-57373813D01*
X25030452Y-57308961D01*
X34930096Y-57308961D01*
X35052085Y-57531000D01*
X36195000Y-57531000D01*
X36195000Y-56387371D01*
X36449000Y-56387371D01*
X36449000Y-57531000D01*
X37591915Y-57531000D01*
X37713904Y-57308961D01*
X37553041Y-56920577D01*
X37177134Y-56505611D01*
X36671041Y-56266086D01*
X36449000Y-56387371D01*
X36195000Y-56387371D01*
X35972959Y-56266086D01*
X35466866Y-56505611D01*
X35090959Y-56920577D01*
X34930096Y-57308961D01*
X25030452Y-57308961D01*
X24839243Y-56846200D01*
X24435923Y-56442176D01*
X23908691Y-56223250D01*
X23337813Y-56222752D01*
X22810200Y-56440757D01*
X22654686Y-56596000D01*
X20531446Y-56596000D01*
X20503162Y-56445683D01*
X20364090Y-56229559D01*
X20151890Y-56084569D01*
X19900000Y-56033560D01*
X18200000Y-56033560D01*
X17964683Y-56077838D01*
X17899000Y-56120104D01*
X17899000Y-55364000D01*
X40793233Y-55364000D01*
X40995275Y-55499000D01*
X40613189Y-55754302D01*
X40302120Y-56219849D01*
X40192887Y-56769000D01*
X40302120Y-57318151D01*
X40613189Y-57783698D01*
X40995275Y-58039000D01*
X40613189Y-58294302D01*
X40302120Y-58759849D01*
X40192887Y-59309000D01*
X40302120Y-59858151D01*
X40613189Y-60323698D01*
X40995275Y-60579000D01*
X40613189Y-60834302D01*
X40302120Y-61299849D01*
X40192887Y-61849000D01*
X40302120Y-62398151D01*
X40613189Y-62863698D01*
X40995275Y-63119000D01*
X40613189Y-63374302D01*
X40302120Y-63839849D01*
X40192887Y-64389000D01*
X40302120Y-64938151D01*
X40613189Y-65403698D01*
X40995275Y-65659000D01*
X40613189Y-65914302D01*
X40302120Y-66379849D01*
X40192887Y-66929000D01*
X40302120Y-67478151D01*
X40613189Y-67943698D01*
X40995275Y-68199000D01*
X40613189Y-68454302D01*
X40302120Y-68919849D01*
X40192887Y-69469000D01*
X40302120Y-70018151D01*
X40613189Y-70483698D01*
X40995275Y-70739000D01*
X40613189Y-70994302D01*
X40302120Y-71459849D01*
X40192887Y-72009000D01*
X40302120Y-72558151D01*
X40613189Y-73023698D01*
X40995275Y-73279000D01*
X40613189Y-73534302D01*
X40302120Y-73999849D01*
X40192887Y-74549000D01*
X40302120Y-75098151D01*
X40613189Y-75563698D01*
X40995275Y-75819000D01*
X40613189Y-76074302D01*
X40302120Y-76539849D01*
X40192887Y-77089000D01*
X40302120Y-77638151D01*
X40613189Y-78103698D01*
X40995275Y-78359000D01*
X40613189Y-78614302D01*
X40302120Y-79079849D01*
X40233602Y-79424312D01*
X39543000Y-78733710D01*
X39543000Y-76454000D01*
X39471827Y-76096191D01*
X39269145Y-75792855D01*
X37761749Y-74285459D01*
X37785113Y-74168000D01*
X37675880Y-73618849D01*
X37364811Y-73153302D01*
X36899264Y-72842233D01*
X36350113Y-72733000D01*
X36293887Y-72733000D01*
X35744736Y-72842233D01*
X35279189Y-73153302D01*
X34968120Y-73618849D01*
X34858887Y-74168000D01*
X34968120Y-74717151D01*
X35279189Y-75182698D01*
X35744736Y-75493767D01*
X36293887Y-75603000D01*
X36350113Y-75603000D01*
X36420674Y-75588964D01*
X37673000Y-76841290D01*
X37673000Y-78694539D01*
X37364811Y-78233302D01*
X36899264Y-77922233D01*
X36350113Y-77813000D01*
X36293887Y-77813000D01*
X35744736Y-77922233D01*
X35279189Y-78233302D01*
X34968120Y-78698849D01*
X34858887Y-79248000D01*
X34968120Y-79797151D01*
X35279189Y-80262698D01*
X35744736Y-80573767D01*
X36293887Y-80683000D01*
X36350113Y-80683000D01*
X36420674Y-80668964D01*
X39470855Y-83719145D01*
X39774191Y-83921827D01*
X40132000Y-83993000D01*
X50292000Y-83993000D01*
X50649809Y-83921827D01*
X50953145Y-83719145D01*
X52229118Y-82443172D01*
X69595538Y-82443172D01*
X70000709Y-83423761D01*
X70750293Y-84174655D01*
X71730173Y-84581536D01*
X72791172Y-84582462D01*
X73771761Y-84177291D01*
X74522655Y-83427707D01*
X74929536Y-82447827D01*
X74930462Y-81386828D01*
X74525291Y-80406239D01*
X73775707Y-79655345D01*
X72795827Y-79248464D01*
X71734828Y-79247538D01*
X70754239Y-79652709D01*
X70003345Y-80402293D01*
X69596464Y-81382173D01*
X69595538Y-82443172D01*
X52229118Y-82443172D01*
X52604145Y-82068145D01*
X52637111Y-82018808D01*
X52806827Y-81764809D01*
X52827476Y-81661000D01*
X52878001Y-81407000D01*
X52878000Y-81406995D01*
X52878000Y-78486000D01*
X52806827Y-78128191D01*
X52604145Y-77824855D01*
X51963331Y-77184041D01*
X53853086Y-77184041D01*
X54092611Y-77690134D01*
X54507577Y-78066041D01*
X54895961Y-78226904D01*
X55118000Y-78104915D01*
X55118000Y-76962000D01*
X55372000Y-76962000D01*
X55372000Y-78104915D01*
X55594039Y-78226904D01*
X55982423Y-78066041D01*
X56397389Y-77690134D01*
X56636914Y-77184041D01*
X59187086Y-77184041D01*
X59426611Y-77690134D01*
X59841577Y-78066041D01*
X60229961Y-78226904D01*
X60452000Y-78104915D01*
X60452000Y-76962000D01*
X60706000Y-76962000D01*
X60706000Y-78104915D01*
X60928039Y-78226904D01*
X61316423Y-78066041D01*
X61731389Y-77690134D01*
X61970914Y-77184041D01*
X61901544Y-77057041D01*
X64902086Y-77057041D01*
X65141611Y-77563134D01*
X65556577Y-77939041D01*
X65944961Y-78099904D01*
X66167000Y-77977915D01*
X66167000Y-76835000D01*
X66421000Y-76835000D01*
X66421000Y-77977915D01*
X66643039Y-78099904D01*
X67031423Y-77939041D01*
X67446389Y-77563134D01*
X67685914Y-77057041D01*
X67616544Y-76930041D01*
X70490086Y-76930041D01*
X70729611Y-77436134D01*
X71144577Y-77812041D01*
X71532961Y-77972904D01*
X71755000Y-77850915D01*
X71755000Y-76708000D01*
X72009000Y-76708000D01*
X72009000Y-77850915D01*
X72231039Y-77972904D01*
X72619423Y-77812041D01*
X73034389Y-77436134D01*
X73273914Y-76930041D01*
X73152629Y-76708000D01*
X72009000Y-76708000D01*
X71755000Y-76708000D01*
X70611371Y-76708000D01*
X70490086Y-76930041D01*
X67616544Y-76930041D01*
X67564629Y-76835000D01*
X66421000Y-76835000D01*
X66167000Y-76835000D01*
X65023371Y-76835000D01*
X64902086Y-77057041D01*
X61901544Y-77057041D01*
X61849629Y-76962000D01*
X60706000Y-76962000D01*
X60452000Y-76962000D01*
X59308371Y-76962000D01*
X59187086Y-77184041D01*
X56636914Y-77184041D01*
X56515629Y-76962000D01*
X55372000Y-76962000D01*
X55118000Y-76962000D01*
X53974371Y-76962000D01*
X53853086Y-77184041D01*
X51963331Y-77184041D01*
X51265249Y-76485959D01*
X53853086Y-76485959D01*
X53974371Y-76708000D01*
X55118000Y-76708000D01*
X55118000Y-75565085D01*
X55372000Y-75565085D01*
X55372000Y-76708000D01*
X56515629Y-76708000D01*
X56636914Y-76485959D01*
X59187086Y-76485959D01*
X59308371Y-76708000D01*
X60452000Y-76708000D01*
X60452000Y-75565085D01*
X60706000Y-75565085D01*
X60706000Y-76708000D01*
X61849629Y-76708000D01*
X61970914Y-76485959D01*
X61910808Y-76358959D01*
X64902086Y-76358959D01*
X65023371Y-76581000D01*
X66167000Y-76581000D01*
X66167000Y-75438085D01*
X66421000Y-75438085D01*
X66421000Y-76581000D01*
X67564629Y-76581000D01*
X67685914Y-76358959D01*
X67625808Y-76231959D01*
X70490086Y-76231959D01*
X70611371Y-76454000D01*
X71755000Y-76454000D01*
X71755000Y-75311085D01*
X72009000Y-75311085D01*
X72009000Y-76454000D01*
X73152629Y-76454000D01*
X73273914Y-76231959D01*
X73034389Y-75725866D01*
X72619423Y-75349959D01*
X72231039Y-75189096D01*
X72009000Y-75311085D01*
X71755000Y-75311085D01*
X71532961Y-75189096D01*
X71144577Y-75349959D01*
X70729611Y-75725866D01*
X70490086Y-76231959D01*
X67625808Y-76231959D01*
X67446389Y-75852866D01*
X67031423Y-75476959D01*
X66643039Y-75316096D01*
X66421000Y-75438085D01*
X66167000Y-75438085D01*
X65944961Y-75316096D01*
X65556577Y-75476959D01*
X65141611Y-75852866D01*
X64902086Y-76358959D01*
X61910808Y-76358959D01*
X61731389Y-75979866D01*
X61316423Y-75603959D01*
X60928039Y-75443096D01*
X60706000Y-75565085D01*
X60452000Y-75565085D01*
X60229961Y-75443096D01*
X59841577Y-75603959D01*
X59426611Y-75979866D01*
X59187086Y-76485959D01*
X56636914Y-76485959D01*
X56397389Y-75979866D01*
X55982423Y-75603959D01*
X55594039Y-75443096D01*
X55372000Y-75565085D01*
X55118000Y-75565085D01*
X54895961Y-75443096D01*
X54507577Y-75603959D01*
X54092611Y-75979866D01*
X53853086Y-76485959D01*
X51265249Y-76485959D01*
X51207145Y-76427855D01*
X50903809Y-76225173D01*
X50546000Y-76154000D01*
X50372064Y-76154000D01*
X50318811Y-76074302D01*
X49936725Y-75819000D01*
X50318811Y-75563698D01*
X50629880Y-75098151D01*
X50739113Y-74549000D01*
X50629880Y-73999849D01*
X50318811Y-73534302D01*
X49936725Y-73279000D01*
X50318811Y-73023698D01*
X50629880Y-72558151D01*
X50739113Y-72009000D01*
X50629880Y-71459849D01*
X50318811Y-70994302D01*
X49936725Y-70739000D01*
X50318811Y-70483698D01*
X50629880Y-70018151D01*
X50739113Y-69469000D01*
X50629880Y-68919849D01*
X50318811Y-68454302D01*
X49936725Y-68199000D01*
X50318811Y-67943698D01*
X50629880Y-67478151D01*
X50739113Y-66929000D01*
X50629880Y-66379849D01*
X50318811Y-65914302D01*
X49936725Y-65659000D01*
X50318811Y-65403698D01*
X50629880Y-64938151D01*
X50739113Y-64389000D01*
X50629880Y-63839849D01*
X50318811Y-63374302D01*
X49936725Y-63119000D01*
X50318811Y-62863698D01*
X50629880Y-62398151D01*
X50739113Y-61849000D01*
X50629880Y-61299849D01*
X50318811Y-60834302D01*
X49936725Y-60579000D01*
X50318811Y-60323698D01*
X50629880Y-59858151D01*
X50739113Y-59309000D01*
X50629880Y-58759849D01*
X50318811Y-58294302D01*
X49914297Y-58024014D01*
X50131134Y-57921389D01*
X50507041Y-57506423D01*
X50667904Y-57118039D01*
X50545915Y-56896000D01*
X49403000Y-56896000D01*
X49403000Y-56916000D01*
X49149000Y-56916000D01*
X49149000Y-56896000D01*
X48006085Y-56896000D01*
X47884096Y-57118039D01*
X48044959Y-57506423D01*
X48420866Y-57921389D01*
X48637703Y-58024014D01*
X48413233Y-58174000D01*
X47968132Y-58174000D01*
X43220566Y-53426434D01*
X43165187Y-53389431D01*
X42852346Y-53180397D01*
X42561480Y-53122540D01*
X42294297Y-52944014D01*
X42511134Y-52841389D01*
X42887041Y-52426423D01*
X43047904Y-52038039D01*
X42925915Y-51816000D01*
X41783000Y-51816000D01*
X41783000Y-51836000D01*
X41529000Y-51836000D01*
X41529000Y-51816000D01*
X40386085Y-51816000D01*
X40264096Y-52038039D01*
X40424959Y-52426423D01*
X40800866Y-52841389D01*
X41017703Y-52944014D01*
X40793233Y-53094000D01*
X37166438Y-53094000D01*
X37426041Y-52807423D01*
X37586904Y-52419039D01*
X37464915Y-52197000D01*
X36322000Y-52197000D01*
X36322000Y-52217000D01*
X36068000Y-52217000D01*
X36068000Y-52197000D01*
X34925085Y-52197000D01*
X34803096Y-52419039D01*
X34963959Y-52807423D01*
X35223562Y-53094000D01*
X24500380Y-53094000D01*
X24710824Y-52883923D01*
X24929750Y-52356691D01*
X24930248Y-51785813D01*
X24903452Y-51720961D01*
X34803096Y-51720961D01*
X34925085Y-51943000D01*
X36068000Y-51943000D01*
X36068000Y-50799371D01*
X36322000Y-50799371D01*
X36322000Y-51943000D01*
X37464915Y-51943000D01*
X37586904Y-51720961D01*
X37426041Y-51332577D01*
X37050134Y-50917611D01*
X36544041Y-50678086D01*
X36322000Y-50799371D01*
X36068000Y-50799371D01*
X35845959Y-50678086D01*
X35339866Y-50917611D01*
X34963959Y-51332577D01*
X34803096Y-51720961D01*
X24903452Y-51720961D01*
X24712243Y-51258200D01*
X24308923Y-50854176D01*
X23781691Y-50635250D01*
X23210813Y-50634752D01*
X22683200Y-50852757D01*
X22279176Y-51256077D01*
X22060250Y-51783309D01*
X22059752Y-52354187D01*
X22277757Y-52881800D01*
X22489587Y-53094000D01*
X20589876Y-53094000D01*
X20623431Y-53044890D01*
X20674440Y-52793000D01*
X20674440Y-51093000D01*
X20630162Y-50857683D01*
X20491090Y-50641559D01*
X20278890Y-50496569D01*
X20027000Y-50445560D01*
X18327000Y-50445560D01*
X18091683Y-50489838D01*
X17875559Y-50628910D01*
X17772000Y-50780474D01*
X17772000Y-49498039D01*
X40264096Y-49498039D01*
X40424959Y-49886423D01*
X40800866Y-50301389D01*
X41049367Y-50419000D01*
X40800866Y-50536611D01*
X40424959Y-50951577D01*
X40264096Y-51339961D01*
X40386085Y-51562000D01*
X41529000Y-51562000D01*
X41529000Y-49276000D01*
X41783000Y-49276000D01*
X41783000Y-51562000D01*
X42925915Y-51562000D01*
X43047904Y-51339961D01*
X42887041Y-50951577D01*
X42511134Y-50536611D01*
X42262633Y-50419000D01*
X42511134Y-50301389D01*
X42887041Y-49886423D01*
X43047904Y-49498039D01*
X42925915Y-49276000D01*
X41783000Y-49276000D01*
X41529000Y-49276000D01*
X40386085Y-49276000D01*
X40264096Y-49498039D01*
X17772000Y-49498039D01*
X17772000Y-48023163D01*
X17862910Y-48164441D01*
X18075110Y-48309431D01*
X18327000Y-48360440D01*
X20027000Y-48360440D01*
X20262317Y-48316162D01*
X20478441Y-48177090D01*
X20623431Y-47964890D01*
X20674440Y-47713000D01*
X20674440Y-47147187D01*
X22059752Y-47147187D01*
X22277757Y-47674800D01*
X22681077Y-48078824D01*
X23208309Y-48297750D01*
X23779187Y-48298248D01*
X24306800Y-48080243D01*
X24710824Y-47676923D01*
X24903860Y-47212039D01*
X34803096Y-47212039D01*
X34963959Y-47600423D01*
X35339866Y-48015389D01*
X35845959Y-48254914D01*
X36068000Y-48133629D01*
X36068000Y-46990000D01*
X36322000Y-46990000D01*
X36322000Y-48133629D01*
X36544041Y-48254914D01*
X37050134Y-48015389D01*
X37426041Y-47600423D01*
X37586904Y-47212039D01*
X37464915Y-46990000D01*
X36322000Y-46990000D01*
X36068000Y-46990000D01*
X34925085Y-46990000D01*
X34803096Y-47212039D01*
X24903860Y-47212039D01*
X24929750Y-47149691D01*
X24929917Y-46958039D01*
X40264096Y-46958039D01*
X40424959Y-47346423D01*
X40800866Y-47761389D01*
X41049367Y-47879000D01*
X40800866Y-47996611D01*
X40424959Y-48411577D01*
X40264096Y-48799961D01*
X40386085Y-49022000D01*
X41529000Y-49022000D01*
X41529000Y-46736000D01*
X41783000Y-46736000D01*
X41783000Y-49022000D01*
X42925915Y-49022000D01*
X43047904Y-48799961D01*
X42887041Y-48411577D01*
X42511134Y-47996611D01*
X42262633Y-47879000D01*
X42511134Y-47761389D01*
X42887041Y-47346423D01*
X43047904Y-46958039D01*
X42925915Y-46736000D01*
X41783000Y-46736000D01*
X41529000Y-46736000D01*
X40386085Y-46736000D01*
X40264096Y-46958039D01*
X24929917Y-46958039D01*
X24930248Y-46578813D01*
X24903452Y-46513961D01*
X34803096Y-46513961D01*
X34925085Y-46736000D01*
X36068000Y-46736000D01*
X36068000Y-45592371D01*
X36322000Y-45592371D01*
X36322000Y-46736000D01*
X37464915Y-46736000D01*
X37534689Y-46609000D01*
X47812887Y-46609000D01*
X47922120Y-47158151D01*
X48233189Y-47623698D01*
X48615275Y-47879000D01*
X48233189Y-48134302D01*
X47922120Y-48599849D01*
X47812887Y-49149000D01*
X47922120Y-49698151D01*
X48233189Y-50163698D01*
X48615275Y-50419000D01*
X48233189Y-50674302D01*
X47922120Y-51139849D01*
X47812887Y-51689000D01*
X47922120Y-52238151D01*
X48233189Y-52703698D01*
X48615275Y-52959000D01*
X48233189Y-53214302D01*
X47922120Y-53679849D01*
X47812887Y-54229000D01*
X47922120Y-54778151D01*
X48233189Y-55243698D01*
X48637703Y-55513986D01*
X48420866Y-55616611D01*
X48044959Y-56031577D01*
X47884096Y-56419961D01*
X48006085Y-56642000D01*
X49149000Y-56642000D01*
X49149000Y-56622000D01*
X49403000Y-56622000D01*
X49403000Y-56642000D01*
X50545915Y-56642000D01*
X50667904Y-56419961D01*
X50507041Y-56031577D01*
X50131134Y-55616611D01*
X49914297Y-55513986D01*
X50318811Y-55243698D01*
X50629880Y-54778151D01*
X50739113Y-54229000D01*
X50629880Y-53679849D01*
X50318811Y-53214302D01*
X49936725Y-52959000D01*
X50318811Y-52703698D01*
X50629880Y-52238151D01*
X50739113Y-51689000D01*
X50629880Y-51139849D01*
X50318811Y-50674302D01*
X49936725Y-50419000D01*
X50318811Y-50163698D01*
X50629880Y-49698151D01*
X50739113Y-49149000D01*
X50629880Y-48599849D01*
X50318811Y-48134302D01*
X49936725Y-47879000D01*
X50318811Y-47623698D01*
X50629880Y-47158151D01*
X50739113Y-46609000D01*
X50629880Y-46059849D01*
X50318811Y-45594302D01*
X49853264Y-45283233D01*
X49304113Y-45174000D01*
X49247887Y-45174000D01*
X48698736Y-45283233D01*
X48233189Y-45594302D01*
X47922120Y-46059849D01*
X47812887Y-46609000D01*
X37534689Y-46609000D01*
X37586904Y-46513961D01*
X37481701Y-46259961D01*
X40264096Y-46259961D01*
X40386085Y-46482000D01*
X41529000Y-46482000D01*
X41529000Y-45338371D01*
X41783000Y-45338371D01*
X41783000Y-46482000D01*
X42925915Y-46482000D01*
X43047904Y-46259961D01*
X42887041Y-45871577D01*
X42511134Y-45456611D01*
X42005041Y-45217086D01*
X41783000Y-45338371D01*
X41529000Y-45338371D01*
X41306959Y-45217086D01*
X40800866Y-45456611D01*
X40424959Y-45871577D01*
X40264096Y-46259961D01*
X37481701Y-46259961D01*
X37426041Y-46125577D01*
X37050134Y-45710611D01*
X36544041Y-45471086D01*
X36322000Y-45592371D01*
X36068000Y-45592371D01*
X35845959Y-45471086D01*
X35339866Y-45710611D01*
X34963959Y-46125577D01*
X34803096Y-46513961D01*
X24903452Y-46513961D01*
X24712243Y-46051200D01*
X24308923Y-45647176D01*
X23781691Y-45428250D01*
X23210813Y-45427752D01*
X22683200Y-45645757D01*
X22279176Y-46049077D01*
X22060250Y-46576309D01*
X22059752Y-47147187D01*
X20674440Y-47147187D01*
X20674440Y-46013000D01*
X20630162Y-45777683D01*
X20491090Y-45561559D01*
X20278890Y-45416569D01*
X20027000Y-45365560D01*
X18327000Y-45365560D01*
X18091683Y-45409838D01*
X17875559Y-45548910D01*
X17730569Y-45761110D01*
X17716914Y-45828541D01*
X17687054Y-45783853D01*
X17205285Y-45461946D01*
X16637000Y-45348907D01*
X16068715Y-45461946D01*
X15586946Y-45783853D01*
X15265039Y-46265622D01*
X15152000Y-46833907D01*
X15152000Y-46892093D01*
X15265039Y-47460378D01*
X15502000Y-47815016D01*
X15502000Y-50990984D01*
X15265039Y-51345622D01*
X15152000Y-51913907D01*
X15152000Y-51972093D01*
X15265039Y-52540378D01*
X15502000Y-52895016D01*
X15502000Y-54102000D01*
X15588397Y-54536346D01*
X15629000Y-54597113D01*
X15629000Y-56338895D01*
X15459946Y-56451853D01*
X15138039Y-56933622D01*
X15025000Y-57501907D01*
X13385000Y-57501907D01*
X13385000Y-40484887D01*
X18123000Y-40484887D01*
X18123000Y-40541113D01*
X18232233Y-41090264D01*
X18543302Y-41555811D01*
X19008849Y-41866880D01*
X19558000Y-41976113D01*
X20107151Y-41866880D01*
X20572698Y-41555811D01*
X20828000Y-41173725D01*
X21083302Y-41555811D01*
X21548849Y-41866880D01*
X22098000Y-41976113D01*
X22647151Y-41866880D01*
X23112698Y-41555811D01*
X23368000Y-41173725D01*
X23623302Y-41555811D01*
X24088849Y-41866880D01*
X24638000Y-41976113D01*
X25187151Y-41866880D01*
X25652698Y-41555811D01*
X25922986Y-41151297D01*
X26025611Y-41368134D01*
X26440577Y-41744041D01*
X26828961Y-41904904D01*
X27051000Y-41782915D01*
X27051000Y-40640000D01*
X27305000Y-40640000D01*
X27305000Y-41782915D01*
X27527039Y-41904904D01*
X27915423Y-41744041D01*
X28330389Y-41368134D01*
X28448000Y-41119633D01*
X28565611Y-41368134D01*
X28980577Y-41744041D01*
X29368961Y-41904904D01*
X29591000Y-41782915D01*
X29591000Y-40640000D01*
X27305000Y-40640000D01*
X27051000Y-40640000D01*
X27031000Y-40640000D01*
X27031000Y-40386000D01*
X27051000Y-40386000D01*
X27051000Y-39243085D01*
X27305000Y-39243085D01*
X27305000Y-40386000D01*
X29591000Y-40386000D01*
X29591000Y-39243085D01*
X29368961Y-39121096D01*
X28980577Y-39281959D01*
X28565611Y-39657866D01*
X28448000Y-39906367D01*
X28330389Y-39657866D01*
X27915423Y-39281959D01*
X27527039Y-39121096D01*
X27305000Y-39243085D01*
X27051000Y-39243085D01*
X26828961Y-39121096D01*
X26440577Y-39281959D01*
X26025611Y-39657866D01*
X25922986Y-39874703D01*
X25652698Y-39470189D01*
X25187151Y-39159120D01*
X24638000Y-39049887D01*
X24088849Y-39159120D01*
X23623302Y-39470189D01*
X23368000Y-39852275D01*
X23112698Y-39470189D01*
X22647151Y-39159120D01*
X22098000Y-39049887D01*
X21548849Y-39159120D01*
X21083302Y-39470189D01*
X20828000Y-39852275D01*
X20572698Y-39470189D01*
X20107151Y-39159120D01*
X19558000Y-39049887D01*
X19008849Y-39159120D01*
X18543302Y-39470189D01*
X18232233Y-39935736D01*
X18123000Y-40484887D01*
X13385000Y-40484887D01*
X13385000Y-32864887D01*
X18123000Y-32864887D01*
X18123000Y-32921113D01*
X18232233Y-33470264D01*
X18423000Y-33755767D01*
X18423000Y-35306000D01*
X18509397Y-35740346D01*
X18706544Y-36035397D01*
X18755434Y-36108566D01*
X20533434Y-37886566D01*
X20901654Y-38132603D01*
X21336000Y-38219000D01*
X36203000Y-38219000D01*
X36203000Y-39650233D01*
X36068000Y-39852275D01*
X35812698Y-39470189D01*
X35347151Y-39159120D01*
X34798000Y-39049887D01*
X34248849Y-39159120D01*
X33783302Y-39470189D01*
X33528000Y-39852275D01*
X33272698Y-39470189D01*
X32807151Y-39159120D01*
X32258000Y-39049887D01*
X31708849Y-39159120D01*
X31243302Y-39470189D01*
X30973014Y-39874703D01*
X30870389Y-39657866D01*
X30455423Y-39281959D01*
X30067039Y-39121096D01*
X29845000Y-39243085D01*
X29845000Y-40386000D01*
X29865000Y-40386000D01*
X29865000Y-40640000D01*
X29845000Y-40640000D01*
X29845000Y-41782915D01*
X30067039Y-41904904D01*
X30455423Y-41744041D01*
X30870389Y-41368134D01*
X30973014Y-41151297D01*
X31243302Y-41555811D01*
X31708849Y-41866880D01*
X32258000Y-41976113D01*
X32807151Y-41866880D01*
X33272698Y-41555811D01*
X33528000Y-41173725D01*
X33783302Y-41555811D01*
X34248849Y-41866880D01*
X34798000Y-41976113D01*
X35347151Y-41866880D01*
X35812698Y-41555811D01*
X36068000Y-41173725D01*
X36323302Y-41555811D01*
X36788849Y-41866880D01*
X37338000Y-41976113D01*
X37887151Y-41866880D01*
X38214728Y-41648000D01*
X40615808Y-41648000D01*
X40722910Y-41814441D01*
X40935110Y-41959431D01*
X41187000Y-42010440D01*
X41675308Y-42010440D01*
X43139434Y-43474566D01*
X43507654Y-43720603D01*
X43942000Y-43807000D01*
X51192266Y-43807000D01*
X51394434Y-44109566D01*
X51762654Y-44355603D01*
X51927202Y-44388334D01*
X54237000Y-46698132D01*
X54237000Y-53315808D01*
X54070559Y-53422910D01*
X53925569Y-53635110D01*
X53874560Y-53887000D01*
X53874560Y-55587000D01*
X53918838Y-55822317D01*
X54057910Y-56038441D01*
X54270110Y-56183431D01*
X54337541Y-56197086D01*
X54292853Y-56226946D01*
X53970946Y-56708715D01*
X53857907Y-57277000D01*
X53970946Y-57845285D01*
X54292853Y-58327054D01*
X54437000Y-58423370D01*
X54437000Y-58670630D01*
X54292853Y-58766946D01*
X53970946Y-59248715D01*
X53857907Y-59817000D01*
X53970946Y-60385285D01*
X54292853Y-60867054D01*
X54310000Y-60878511D01*
X54310000Y-63040742D01*
X54029176Y-63321077D01*
X53810250Y-63848309D01*
X53809752Y-64419187D01*
X54027757Y-64946800D01*
X54431077Y-65350824D01*
X54958309Y-65569750D01*
X55529187Y-65570248D01*
X56056800Y-65352243D01*
X56460824Y-64948923D01*
X56679750Y-64421691D01*
X56680248Y-63850813D01*
X56462243Y-63323200D01*
X56180000Y-63040464D01*
X56180000Y-61048228D01*
X56451147Y-60867054D01*
X56773054Y-60385285D01*
X56886093Y-59817000D01*
X56773054Y-59248715D01*
X56451147Y-58766946D01*
X56307000Y-58670630D01*
X56307000Y-58423370D01*
X56451147Y-58327054D01*
X56773054Y-57845285D01*
X56886093Y-57277000D01*
X56773054Y-56708715D01*
X56451147Y-56226946D01*
X56409548Y-56199150D01*
X56457317Y-56190162D01*
X56673441Y-56051090D01*
X56795808Y-55872000D01*
X59157808Y-55872000D01*
X59264910Y-56038441D01*
X59477110Y-56183431D01*
X59544541Y-56197086D01*
X59499853Y-56226946D01*
X59177946Y-56708715D01*
X59064907Y-57277000D01*
X59177946Y-57845285D01*
X59499853Y-58327054D01*
X59644000Y-58423370D01*
X59644000Y-58670630D01*
X59499853Y-58766946D01*
X59177946Y-59248715D01*
X59064907Y-59817000D01*
X59177946Y-60385285D01*
X59499853Y-60867054D01*
X59644000Y-60963370D01*
X59644000Y-63040742D01*
X59363176Y-63321077D01*
X59144250Y-63848309D01*
X59143752Y-64419187D01*
X59361757Y-64946800D01*
X59765077Y-65350824D01*
X60292309Y-65569750D01*
X60863187Y-65570248D01*
X61390800Y-65352243D01*
X61794824Y-64948923D01*
X62013750Y-64421691D01*
X62014248Y-63850813D01*
X61796243Y-63323200D01*
X61514000Y-63040464D01*
X61514000Y-60963370D01*
X61658147Y-60867054D01*
X61980054Y-60385285D01*
X62093093Y-59817000D01*
X61980054Y-59248715D01*
X61658147Y-58766946D01*
X61514000Y-58670630D01*
X61514000Y-58423370D01*
X61658147Y-58327054D01*
X61980054Y-57845285D01*
X62093093Y-57277000D01*
X61980054Y-56708715D01*
X61658147Y-56226946D01*
X61616548Y-56199150D01*
X61664317Y-56190162D01*
X61880441Y-56051090D01*
X62002808Y-55872000D01*
X64872808Y-55872000D01*
X64979910Y-56038441D01*
X65192110Y-56183431D01*
X65259541Y-56197086D01*
X65214853Y-56226946D01*
X64892946Y-56708715D01*
X64779907Y-57277000D01*
X64892946Y-57845285D01*
X65214853Y-58327054D01*
X65359000Y-58423370D01*
X65359000Y-58670630D01*
X65214853Y-58766946D01*
X64892946Y-59248715D01*
X64779907Y-59817000D01*
X64892946Y-60385285D01*
X65214853Y-60867054D01*
X65359000Y-60963370D01*
X65359000Y-62913742D01*
X65078176Y-63194077D01*
X64859250Y-63721309D01*
X64858752Y-64292187D01*
X65076757Y-64819800D01*
X65480077Y-65223824D01*
X66007309Y-65442750D01*
X66578187Y-65443248D01*
X67105800Y-65225243D01*
X67509824Y-64821923D01*
X67728750Y-64294691D01*
X67729248Y-63723813D01*
X67511243Y-63196200D01*
X67229000Y-62913464D01*
X67229000Y-60963370D01*
X67373147Y-60867054D01*
X67695054Y-60385285D01*
X67808093Y-59817000D01*
X67695054Y-59248715D01*
X67373147Y-58766946D01*
X67229000Y-58670630D01*
X67229000Y-58423370D01*
X67373147Y-58327054D01*
X67695054Y-57845285D01*
X67808093Y-57277000D01*
X67695054Y-56708715D01*
X67373147Y-56226946D01*
X67331548Y-56199150D01*
X67379317Y-56190162D01*
X67595441Y-56051090D01*
X67717808Y-55872000D01*
X70587808Y-55872000D01*
X70694910Y-56038441D01*
X70907110Y-56183431D01*
X70974541Y-56197086D01*
X70929853Y-56226946D01*
X70607946Y-56708715D01*
X70494907Y-57277000D01*
X70607946Y-57845285D01*
X70929853Y-58327054D01*
X71074000Y-58423370D01*
X71074000Y-58670630D01*
X70929853Y-58766946D01*
X70607946Y-59248715D01*
X70494907Y-59817000D01*
X70607946Y-60385285D01*
X70929853Y-60867054D01*
X70947000Y-60878511D01*
X70947000Y-62786742D01*
X70666176Y-63067077D01*
X70447250Y-63594309D01*
X70446752Y-64165187D01*
X70664757Y-64692800D01*
X71068077Y-65096824D01*
X71595309Y-65315750D01*
X72166187Y-65316248D01*
X72693800Y-65098243D01*
X73097824Y-64694923D01*
X73316750Y-64167691D01*
X73317248Y-63596813D01*
X73099243Y-63069200D01*
X72817000Y-62786464D01*
X72817000Y-61048228D01*
X73088147Y-60867054D01*
X73410054Y-60385285D01*
X73523093Y-59817000D01*
X73410054Y-59248715D01*
X73088147Y-58766946D01*
X72944000Y-58670630D01*
X72944000Y-58423370D01*
X73088147Y-58327054D01*
X73410054Y-57845285D01*
X73523093Y-57277000D01*
X73410054Y-56708715D01*
X73088147Y-56226946D01*
X73046548Y-56199150D01*
X73094317Y-56190162D01*
X73310441Y-56051090D01*
X73455431Y-55838890D01*
X73506440Y-55587000D01*
X73506440Y-53887000D01*
X73462162Y-53651683D01*
X73323090Y-53435559D01*
X73110890Y-53290569D01*
X72859000Y-53239560D01*
X71159000Y-53239560D01*
X70923683Y-53283838D01*
X70707559Y-53422910D01*
X70585192Y-53602000D01*
X67715192Y-53602000D01*
X67608090Y-53435559D01*
X67395890Y-53290569D01*
X67144000Y-53239560D01*
X65444000Y-53239560D01*
X65208683Y-53283838D01*
X64992559Y-53422910D01*
X64870192Y-53602000D01*
X62000192Y-53602000D01*
X61893090Y-53435559D01*
X61680890Y-53290569D01*
X61429000Y-53239560D01*
X59729000Y-53239560D01*
X59493683Y-53283838D01*
X59277559Y-53422910D01*
X59155192Y-53602000D01*
X56793192Y-53602000D01*
X56686090Y-53435559D01*
X56507000Y-53313192D01*
X56507000Y-48738907D01*
X68746000Y-48738907D01*
X68746000Y-48797093D01*
X68859039Y-49365378D01*
X69180946Y-49847147D01*
X69662715Y-50169054D01*
X70231000Y-50282093D01*
X70799285Y-50169054D01*
X71281054Y-49847147D01*
X71310403Y-49803223D01*
X71382673Y-49977698D01*
X71561301Y-50156327D01*
X71794690Y-50253000D01*
X72485250Y-50253000D01*
X72644000Y-50094250D01*
X72644000Y-48895000D01*
X72898000Y-48895000D01*
X72898000Y-50094250D01*
X73056750Y-50253000D01*
X73747310Y-50253000D01*
X73980699Y-50156327D01*
X74159327Y-49977698D01*
X74256000Y-49744309D01*
X74256000Y-49053750D01*
X74097250Y-48895000D01*
X72898000Y-48895000D01*
X72644000Y-48895000D01*
X72624000Y-48895000D01*
X72624000Y-48641000D01*
X72644000Y-48641000D01*
X72644000Y-47441750D01*
X72898000Y-47441750D01*
X72898000Y-48641000D01*
X74097250Y-48641000D01*
X74256000Y-48482250D01*
X74256000Y-47791691D01*
X74159327Y-47558302D01*
X73980699Y-47379673D01*
X73747310Y-47283000D01*
X73056750Y-47283000D01*
X72898000Y-47441750D01*
X72644000Y-47441750D01*
X72485250Y-47283000D01*
X71794690Y-47283000D01*
X71561301Y-47379673D01*
X71382673Y-47558302D01*
X71310403Y-47732777D01*
X71281054Y-47688853D01*
X71166000Y-47611977D01*
X71166000Y-44843387D01*
X71455297Y-44554595D01*
X71675748Y-44023689D01*
X71676250Y-43448833D01*
X71456725Y-42917543D01*
X71050595Y-42510703D01*
X70519689Y-42290252D01*
X69944833Y-42289750D01*
X69413543Y-42509275D01*
X69006703Y-42915405D01*
X68786252Y-43446311D01*
X68785750Y-44021167D01*
X69005275Y-44552457D01*
X69296000Y-44843690D01*
X69296000Y-47611977D01*
X69180946Y-47688853D01*
X68859039Y-48170622D01*
X68746000Y-48738907D01*
X56507000Y-48738907D01*
X56507000Y-46228000D01*
X56420603Y-45793654D01*
X56174566Y-45425434D01*
X53332000Y-42582868D01*
X53332000Y-41465016D01*
X53467000Y-41262974D01*
X53686946Y-41592147D01*
X54168715Y-41914054D01*
X54737000Y-42027093D01*
X55305285Y-41914054D01*
X55787054Y-41592147D01*
X56007000Y-41262974D01*
X56226946Y-41592147D01*
X56708715Y-41914054D01*
X57277000Y-42027093D01*
X57845285Y-41914054D01*
X58327054Y-41592147D01*
X58547000Y-41262974D01*
X58766946Y-41592147D01*
X59248715Y-41914054D01*
X59817000Y-42027093D01*
X60385285Y-41914054D01*
X60867054Y-41592147D01*
X61087000Y-41262974D01*
X61306946Y-41592147D01*
X61788715Y-41914054D01*
X62357000Y-42027093D01*
X62925285Y-41914054D01*
X63407054Y-41592147D01*
X63627000Y-41262974D01*
X63846946Y-41592147D01*
X64328715Y-41914054D01*
X64897000Y-42027093D01*
X65465285Y-41914054D01*
X65947054Y-41592147D01*
X66268961Y-41110378D01*
X66382000Y-40542093D01*
X66382000Y-40483907D01*
X66268961Y-39915622D01*
X65947054Y-39433853D01*
X65465285Y-39111946D01*
X64897000Y-38998907D01*
X64328715Y-39111946D01*
X63846946Y-39433853D01*
X63627000Y-39763026D01*
X63407054Y-39433853D01*
X62925285Y-39111946D01*
X62357000Y-38998907D01*
X61788715Y-39111946D01*
X61306946Y-39433853D01*
X61087000Y-39763026D01*
X60867054Y-39433853D01*
X60385285Y-39111946D01*
X59817000Y-38998907D01*
X59248715Y-39111946D01*
X58766946Y-39433853D01*
X58547000Y-39763026D01*
X58327054Y-39433853D01*
X57845285Y-39111946D01*
X57277000Y-38998907D01*
X56708715Y-39111946D01*
X56226946Y-39433853D01*
X56007000Y-39763026D01*
X55787054Y-39433853D01*
X55305285Y-39111946D01*
X54737000Y-38998907D01*
X54168715Y-39111946D01*
X53686946Y-39433853D01*
X53467000Y-39763026D01*
X53247054Y-39433853D01*
X52765285Y-39111946D01*
X52197000Y-38998907D01*
X51628715Y-39111946D01*
X51146946Y-39433853D01*
X50927000Y-39763026D01*
X50707054Y-39433853D01*
X50465000Y-39272118D01*
X50465000Y-21222023D01*
X50580054Y-21145147D01*
X50800000Y-20815974D01*
X51019946Y-21145147D01*
X51135000Y-21222023D01*
X51135000Y-32527743D01*
X51008162Y-32833201D01*
X51007838Y-33205167D01*
X51149883Y-33548943D01*
X51412673Y-33812192D01*
X51756201Y-33954838D01*
X52128167Y-33955162D01*
X52471943Y-33813117D01*
X52735192Y-33550327D01*
X52737648Y-33544413D01*
X52933827Y-33250809D01*
X53005000Y-32893000D01*
X53005000Y-21222023D01*
X53120054Y-21145147D01*
X53340000Y-20815974D01*
X53559946Y-21145147D01*
X53675000Y-21222023D01*
X53675000Y-22479000D01*
X53746173Y-22836809D01*
X53948855Y-23140145D01*
X66502000Y-35693290D01*
X66502000Y-38481000D01*
X66573173Y-38838809D01*
X66775855Y-39142145D01*
X69529855Y-41896145D01*
X69833191Y-42098827D01*
X70191000Y-42170000D01*
X71622613Y-42170000D01*
X71911405Y-42459297D01*
X72442311Y-42679748D01*
X73017167Y-42680250D01*
X73548457Y-42460725D01*
X73955297Y-42054595D01*
X74175748Y-41523689D01*
X74176250Y-40948833D01*
X73956725Y-40417543D01*
X73550595Y-40010703D01*
X73019689Y-39790252D01*
X72444833Y-39789750D01*
X71913543Y-40009275D01*
X71622310Y-40300000D01*
X70578290Y-40300000D01*
X70458489Y-40180199D01*
X70517167Y-40180250D01*
X71048457Y-39960725D01*
X71455297Y-39554595D01*
X71675748Y-39023689D01*
X71676250Y-38448833D01*
X71456725Y-37917543D01*
X71050595Y-37510703D01*
X70519689Y-37290252D01*
X69944833Y-37289750D01*
X69413543Y-37509275D01*
X69006703Y-37915405D01*
X68786252Y-38446311D01*
X68786198Y-38507908D01*
X68372000Y-38093710D01*
X68372000Y-35306000D01*
X68300827Y-34948191D01*
X68098145Y-34644855D01*
X66952197Y-33498907D01*
X68492000Y-33498907D01*
X68492000Y-33557093D01*
X68605039Y-34125378D01*
X68926946Y-34607147D01*
X69408715Y-34929054D01*
X69977000Y-35042093D01*
X70545285Y-34929054D01*
X71027054Y-34607147D01*
X71056403Y-34563223D01*
X71128673Y-34737698D01*
X71307301Y-34916327D01*
X71540690Y-35013000D01*
X72231250Y-35013000D01*
X72390000Y-34854250D01*
X72390000Y-33655000D01*
X72644000Y-33655000D01*
X72644000Y-34854250D01*
X72802750Y-35013000D01*
X73493310Y-35013000D01*
X73726699Y-34916327D01*
X73905327Y-34737698D01*
X74002000Y-34504309D01*
X74002000Y-33813750D01*
X73843250Y-33655000D01*
X72644000Y-33655000D01*
X72390000Y-33655000D01*
X72370000Y-33655000D01*
X72370000Y-33401000D01*
X72390000Y-33401000D01*
X72390000Y-32201750D01*
X72644000Y-32201750D01*
X72644000Y-33401000D01*
X73843250Y-33401000D01*
X74002000Y-33242250D01*
X74002000Y-32551691D01*
X73905327Y-32318302D01*
X73726699Y-32139673D01*
X73493310Y-32043000D01*
X72802750Y-32043000D01*
X72644000Y-32201750D01*
X72390000Y-32201750D01*
X72231250Y-32043000D01*
X71540690Y-32043000D01*
X71307301Y-32139673D01*
X71128673Y-32318302D01*
X71056403Y-32492777D01*
X71027054Y-32448853D01*
X70912000Y-32371977D01*
X70912000Y-30359633D01*
X70921457Y-30355725D01*
X71328297Y-29949595D01*
X71548748Y-29418689D01*
X71549250Y-28843833D01*
X71329725Y-28312543D01*
X70923595Y-27905703D01*
X70392689Y-27685252D01*
X69817833Y-27684750D01*
X69286543Y-27904275D01*
X68879703Y-28310405D01*
X68659252Y-28841311D01*
X68658750Y-29416167D01*
X68878275Y-29947457D01*
X69042000Y-30111468D01*
X69042000Y-32371977D01*
X68926946Y-32448853D01*
X68605039Y-32930622D01*
X68492000Y-33498907D01*
X66952197Y-33498907D01*
X57869457Y-24416167D01*
X68658750Y-24416167D01*
X68878275Y-24947457D01*
X69284405Y-25354297D01*
X69815311Y-25574748D01*
X70390167Y-25575250D01*
X70921457Y-25355725D01*
X71328297Y-24949595D01*
X71548748Y-24418689D01*
X71549250Y-23843833D01*
X71329725Y-23312543D01*
X70923595Y-22905703D01*
X70392689Y-22685252D01*
X69817833Y-22684750D01*
X69286543Y-22904275D01*
X68879703Y-23310405D01*
X68659252Y-23841311D01*
X68658750Y-24416167D01*
X57869457Y-24416167D01*
X55545000Y-22091710D01*
X55545000Y-21222023D01*
X55660054Y-21145147D01*
X55880000Y-20815974D01*
X56099946Y-21145147D01*
X56581715Y-21467054D01*
X57150000Y-21580093D01*
X57718285Y-21467054D01*
X58200054Y-21145147D01*
X58420000Y-20815974D01*
X58639946Y-21145147D01*
X59121715Y-21467054D01*
X59690000Y-21580093D01*
X60258285Y-21467054D01*
X60740054Y-21145147D01*
X60960000Y-20815974D01*
X61179946Y-21145147D01*
X61661715Y-21467054D01*
X62230000Y-21580093D01*
X62798285Y-21467054D01*
X63280054Y-21145147D01*
X63500000Y-20815974D01*
X63719946Y-21145147D01*
X64201715Y-21467054D01*
X64770000Y-21580093D01*
X65338285Y-21467054D01*
X65820054Y-21145147D01*
X66141961Y-20663378D01*
X66255000Y-20095093D01*
X66255000Y-20036907D01*
X66141961Y-19468622D01*
X65820054Y-18986853D01*
X65338285Y-18664946D01*
X64951452Y-18588000D01*
X67557710Y-18588000D01*
X71669000Y-22699290D01*
X71669000Y-25521613D01*
X71379703Y-25810405D01*
X71159252Y-26341311D01*
X71158750Y-26916167D01*
X71378275Y-27447457D01*
X71784405Y-27854297D01*
X72315311Y-28074748D01*
X72890167Y-28075250D01*
X73421457Y-27855725D01*
X73828297Y-27449595D01*
X74048748Y-26918689D01*
X74049250Y-26343833D01*
X73829725Y-25812543D01*
X73539000Y-25521310D01*
X73539000Y-22312000D01*
X73467827Y-21954191D01*
X73265145Y-21650855D01*
X68652462Y-17038172D01*
X69595538Y-17038172D01*
X70000709Y-18018761D01*
X70750293Y-18769655D01*
X71730173Y-19176536D01*
X72791172Y-19177462D01*
X73771761Y-18772291D01*
X74522655Y-18022707D01*
X74929536Y-17042827D01*
X74930462Y-15981828D01*
X74525291Y-15001239D01*
X73775707Y-14250345D01*
X72795827Y-13843464D01*
X71734828Y-13842538D01*
X70754239Y-14247709D01*
X70003345Y-14997293D01*
X69596464Y-15977173D01*
X69595538Y-17038172D01*
X68652462Y-17038172D01*
X68606145Y-16991855D01*
X68302809Y-16789173D01*
X67945000Y-16718000D01*
X64516000Y-16718000D01*
X64158191Y-16789173D01*
X63854855Y-16991855D01*
X62284051Y-18562659D01*
X62230000Y-18551907D01*
X61661715Y-18664946D01*
X61179946Y-18986853D01*
X60960000Y-19316026D01*
X60740054Y-18986853D01*
X60258285Y-18664946D01*
X59690000Y-18551907D01*
X59121715Y-18664946D01*
X58639946Y-18986853D01*
X58420000Y-19316026D01*
X58200054Y-18986853D01*
X57718285Y-18664946D01*
X57150000Y-18551907D01*
X56581715Y-18664946D01*
X56099946Y-18986853D01*
X55880000Y-19316026D01*
X55660054Y-18986853D01*
X55178285Y-18664946D01*
X54610000Y-18551907D01*
X54041715Y-18664946D01*
X53559946Y-18986853D01*
X53340000Y-19316026D01*
X53120054Y-18986853D01*
X52638285Y-18664946D01*
X52070000Y-18551907D01*
X51501715Y-18664946D01*
X51019946Y-18986853D01*
X50800000Y-19316026D01*
X50580054Y-18986853D01*
X50098285Y-18664946D01*
X49530000Y-18551907D01*
X48961715Y-18664946D01*
X48479946Y-18986853D01*
X48252298Y-19327553D01*
X48185183Y-19184642D01*
X47756924Y-18794355D01*
X47346890Y-18624524D01*
X47117000Y-18745845D01*
X47117000Y-19939000D01*
X47137000Y-19939000D01*
X47137000Y-20193000D01*
X47117000Y-20193000D01*
X47117000Y-21386155D01*
X47346890Y-21507476D01*
X47756924Y-21337645D01*
X48185183Y-20947358D01*
X48252298Y-20804447D01*
X48479946Y-21145147D01*
X48595000Y-21222023D01*
X48595000Y-39451731D01*
X48387000Y-39763026D01*
X48167054Y-39433853D01*
X47685285Y-39111946D01*
X47117000Y-38998907D01*
X46548715Y-39111946D01*
X46066946Y-39433853D01*
X45839298Y-39774553D01*
X45772183Y-39631642D01*
X45343924Y-39241355D01*
X44933890Y-39071524D01*
X44704000Y-39192845D01*
X44704000Y-40386000D01*
X44724000Y-40386000D01*
X44724000Y-40640000D01*
X44704000Y-40640000D01*
X44704000Y-40660000D01*
X44450000Y-40660000D01*
X44450000Y-40640000D01*
X44430000Y-40640000D01*
X44430000Y-40386000D01*
X44450000Y-40386000D01*
X44450000Y-39192845D01*
X44220110Y-39071524D01*
X43810076Y-39241355D01*
X43507063Y-39517501D01*
X43490162Y-39427683D01*
X43351090Y-39211559D01*
X43172000Y-39089192D01*
X43172000Y-37681132D01*
X45252566Y-35600566D01*
X45498603Y-35232346D01*
X45585000Y-34798000D01*
X45585000Y-21018016D01*
X45727702Y-20804447D01*
X45794817Y-20947358D01*
X46223076Y-21337645D01*
X46633110Y-21507476D01*
X46863000Y-21386155D01*
X46863000Y-20193000D01*
X46843000Y-20193000D01*
X46843000Y-19939000D01*
X46863000Y-19939000D01*
X46863000Y-18745845D01*
X46633110Y-18624524D01*
X46223076Y-18794355D01*
X45794817Y-19184642D01*
X45727702Y-19327553D01*
X45500054Y-18986853D01*
X45018285Y-18664946D01*
X44450000Y-18551907D01*
X43881715Y-18664946D01*
X43399946Y-18986853D01*
X43372150Y-19028452D01*
X43363162Y-18980683D01*
X43224090Y-18764559D01*
X43011890Y-18619569D01*
X42760000Y-18568560D01*
X41060000Y-18568560D01*
X40824683Y-18612838D01*
X40608559Y-18751910D01*
X40463569Y-18964110D01*
X40412560Y-19216000D01*
X40412560Y-20916000D01*
X40456838Y-21151317D01*
X40595910Y-21367441D01*
X40808110Y-21512431D01*
X41060000Y-21563440D01*
X42760000Y-21563440D01*
X42995317Y-21519162D01*
X43211441Y-21380090D01*
X43315000Y-21228526D01*
X43315000Y-34327868D01*
X41234434Y-36408434D01*
X40988397Y-36776654D01*
X40902000Y-37211000D01*
X40902000Y-39091808D01*
X40735559Y-39198910D01*
X40613192Y-39378000D01*
X38473000Y-39378000D01*
X38473000Y-34232018D01*
X38589441Y-34157090D01*
X38734431Y-33944890D01*
X38785440Y-33693000D01*
X38785440Y-32093000D01*
X38741162Y-31857683D01*
X38602090Y-31641559D01*
X38389890Y-31496569D01*
X38138000Y-31445560D01*
X36538000Y-31445560D01*
X36302683Y-31489838D01*
X36086559Y-31628910D01*
X35941569Y-31841110D01*
X35910185Y-31996089D01*
X35812698Y-31850189D01*
X35347151Y-31539120D01*
X34798000Y-31429887D01*
X34248849Y-31539120D01*
X33783302Y-31850189D01*
X33629503Y-32080365D01*
X33614434Y-32090434D01*
X33523829Y-32226033D01*
X33272698Y-31850189D01*
X33193000Y-31796936D01*
X33193000Y-26119446D01*
X33343317Y-26091162D01*
X33559441Y-25952090D01*
X33704431Y-25739890D01*
X33755440Y-25488000D01*
X33755440Y-23788000D01*
X33711162Y-23552683D01*
X33572090Y-23336559D01*
X33359890Y-23191569D01*
X33108000Y-23140560D01*
X31408000Y-23140560D01*
X31172683Y-23184838D01*
X30956559Y-23323910D01*
X30811569Y-23536110D01*
X30797914Y-23603541D01*
X30768054Y-23558853D01*
X30286285Y-23236946D01*
X29718000Y-23123907D01*
X29149715Y-23236946D01*
X28667946Y-23558853D01*
X28346039Y-24040622D01*
X28233000Y-24608907D01*
X28233000Y-24667093D01*
X28346039Y-25235378D01*
X28667946Y-25717147D01*
X29149715Y-26039054D01*
X29718000Y-26152093D01*
X30286285Y-26039054D01*
X30768054Y-25717147D01*
X30795850Y-25675548D01*
X30804838Y-25723317D01*
X30943910Y-25939441D01*
X31156110Y-26084431D01*
X31323000Y-26118227D01*
X31323000Y-31796936D01*
X31243302Y-31850189D01*
X30973014Y-32254703D01*
X30870389Y-32037866D01*
X30455423Y-31661959D01*
X30067039Y-31501096D01*
X29845000Y-31623085D01*
X29845000Y-32766000D01*
X29865000Y-32766000D01*
X29865000Y-33020000D01*
X29845000Y-33020000D01*
X29845000Y-34162915D01*
X30067039Y-34284904D01*
X30455423Y-34124041D01*
X30870389Y-33748134D01*
X30973014Y-33531297D01*
X31243302Y-33935811D01*
X31708849Y-34246880D01*
X32258000Y-34356113D01*
X32807151Y-34246880D01*
X33272698Y-33935811D01*
X33523829Y-33559967D01*
X33614434Y-33695566D01*
X33629503Y-33705635D01*
X33783302Y-33935811D01*
X34248849Y-34246880D01*
X34798000Y-34356113D01*
X35347151Y-34246880D01*
X35812698Y-33935811D01*
X35909101Y-33791535D01*
X35934838Y-33928317D01*
X36073910Y-34144441D01*
X36203000Y-34232644D01*
X36203000Y-35949000D01*
X21806132Y-35949000D01*
X20693000Y-34835868D01*
X20693000Y-33755767D01*
X20828000Y-33553725D01*
X21083302Y-33935811D01*
X21548849Y-34246880D01*
X22098000Y-34356113D01*
X22647151Y-34246880D01*
X23112698Y-33935811D01*
X23368000Y-33553725D01*
X23623302Y-33935811D01*
X24088849Y-34246880D01*
X24638000Y-34356113D01*
X25187151Y-34246880D01*
X25652698Y-33935811D01*
X25922986Y-33531297D01*
X26025611Y-33748134D01*
X26440577Y-34124041D01*
X26828961Y-34284904D01*
X27051000Y-34162915D01*
X27051000Y-33020000D01*
X27305000Y-33020000D01*
X27305000Y-34162915D01*
X27527039Y-34284904D01*
X27915423Y-34124041D01*
X28330389Y-33748134D01*
X28448000Y-33499633D01*
X28565611Y-33748134D01*
X28980577Y-34124041D01*
X29368961Y-34284904D01*
X29591000Y-34162915D01*
X29591000Y-33020000D01*
X27305000Y-33020000D01*
X27051000Y-33020000D01*
X27031000Y-33020000D01*
X27031000Y-32766000D01*
X27051000Y-32766000D01*
X27051000Y-31623085D01*
X27305000Y-31623085D01*
X27305000Y-32766000D01*
X29591000Y-32766000D01*
X29591000Y-31623085D01*
X29368961Y-31501096D01*
X28980577Y-31661959D01*
X28565611Y-32037866D01*
X28448000Y-32286367D01*
X28330389Y-32037866D01*
X27915423Y-31661959D01*
X27527039Y-31501096D01*
X27305000Y-31623085D01*
X27051000Y-31623085D01*
X26828961Y-31501096D01*
X26440577Y-31661959D01*
X26025611Y-32037866D01*
X25922986Y-32254703D01*
X25652698Y-31850189D01*
X25573000Y-31796936D01*
X25573000Y-28956816D01*
X25573162Y-28770833D01*
X25431117Y-28427057D01*
X25168327Y-28163808D01*
X24824799Y-28021162D01*
X24452833Y-28020838D01*
X24109057Y-28162883D01*
X23845808Y-28425673D01*
X23703162Y-28769201D01*
X23702838Y-29141167D01*
X23703000Y-29141559D01*
X23703000Y-31796936D01*
X23623302Y-31850189D01*
X23368000Y-32232275D01*
X23112698Y-31850189D01*
X22647151Y-31539120D01*
X22098000Y-31429887D01*
X21548849Y-31539120D01*
X21083302Y-31850189D01*
X20828000Y-32232275D01*
X20572698Y-31850189D01*
X20107151Y-31539120D01*
X19558000Y-31429887D01*
X19008849Y-31539120D01*
X18543302Y-31850189D01*
X18232233Y-32315736D01*
X18123000Y-32864887D01*
X13385000Y-32864887D01*
X13385000Y-23788000D01*
X15266560Y-23788000D01*
X15266560Y-25488000D01*
X15310838Y-25723317D01*
X15449910Y-25939441D01*
X15662110Y-26084431D01*
X15914000Y-26135440D01*
X17614000Y-26135440D01*
X17849317Y-26091162D01*
X18065441Y-25952090D01*
X18210431Y-25739890D01*
X18232301Y-25631893D01*
X18537076Y-25909645D01*
X18947110Y-26079476D01*
X19177000Y-25958155D01*
X19177000Y-24765000D01*
X19431000Y-24765000D01*
X19431000Y-25958155D01*
X19660890Y-26079476D01*
X20070924Y-25909645D01*
X20499183Y-25519358D01*
X20745486Y-24994892D01*
X20624819Y-24765000D01*
X19431000Y-24765000D01*
X19177000Y-24765000D01*
X19157000Y-24765000D01*
X19157000Y-24511000D01*
X19177000Y-24511000D01*
X19177000Y-23317845D01*
X19431000Y-23317845D01*
X19431000Y-24511000D01*
X20624819Y-24511000D01*
X20745486Y-24281108D01*
X20499183Y-23756642D01*
X20070924Y-23366355D01*
X19660890Y-23196524D01*
X19431000Y-23317845D01*
X19177000Y-23317845D01*
X18947110Y-23196524D01*
X18537076Y-23366355D01*
X18234063Y-23642501D01*
X18217162Y-23552683D01*
X18078090Y-23336559D01*
X17865890Y-23191569D01*
X17699000Y-23157773D01*
X17699000Y-22739290D01*
X22358290Y-18080000D01*
X23035742Y-18080000D01*
X23316077Y-18360824D01*
X23843309Y-18579750D01*
X24414187Y-18580248D01*
X24941800Y-18362243D01*
X25345824Y-17958923D01*
X25564750Y-17431691D01*
X25565000Y-17145000D01*
X35366887Y-17145000D01*
X35476120Y-17694151D01*
X35787189Y-18159698D01*
X36252736Y-18470767D01*
X36801887Y-18580000D01*
X36858113Y-18580000D01*
X37407264Y-18470767D01*
X37872811Y-18159698D01*
X38183880Y-17694151D01*
X38293113Y-17145000D01*
X38183880Y-16595849D01*
X37872811Y-16130302D01*
X37407264Y-15819233D01*
X36858113Y-15710000D01*
X36801887Y-15710000D01*
X36252736Y-15819233D01*
X35787189Y-16130302D01*
X35476120Y-16595849D01*
X35366887Y-17145000D01*
X25565000Y-17145000D01*
X25565248Y-16860813D01*
X25347243Y-16333200D01*
X24943923Y-15929176D01*
X24416691Y-15710250D01*
X23845813Y-15709752D01*
X23318200Y-15927757D01*
X23035464Y-16210000D01*
X21971000Y-16210000D01*
X21613191Y-16281173D01*
X21309855Y-16483855D01*
X16102855Y-21690855D01*
X15900173Y-21994191D01*
X15829000Y-22352000D01*
X15829000Y-23156554D01*
X15678683Y-23184838D01*
X15462559Y-23323910D01*
X15317569Y-23536110D01*
X15266560Y-23788000D01*
X13385000Y-23788000D01*
X13385000Y-16784172D01*
X13588538Y-16784172D01*
X13993709Y-17764761D01*
X14743293Y-18515655D01*
X15723173Y-18922536D01*
X16784172Y-18923462D01*
X17764761Y-18518291D01*
X18515655Y-17768707D01*
X18922536Y-16788827D01*
X18923462Y-15727828D01*
X18518291Y-14747239D01*
X17768707Y-13996345D01*
X16788827Y-13589464D01*
X15727828Y-13588538D01*
X14747239Y-13993709D01*
X13996345Y-14743293D01*
X13589464Y-15723173D01*
X13588538Y-16784172D01*
X13385000Y-16784172D01*
X13385000Y-13258000D01*
X75388000Y-13258000D01*
X75388000Y-85040000D01*
X75388000Y-85040000D01*
G37*
X75388000Y-85040000D02*
X13385000Y-85040000D01*
X13385000Y-82570172D01*
X13842538Y-82570172D01*
X14247709Y-83550761D01*
X14997293Y-84301655D01*
X15977173Y-84708536D01*
X17038172Y-84709462D01*
X18018761Y-84304291D01*
X18769655Y-83554707D01*
X19176536Y-82574827D01*
X19177462Y-81513828D01*
X18772291Y-80533239D01*
X18022707Y-79782345D01*
X17042827Y-79375464D01*
X15981828Y-79374538D01*
X15001239Y-79779709D01*
X14250345Y-80529293D01*
X13843464Y-81509173D01*
X13842538Y-82570172D01*
X13385000Y-82570172D01*
X13385000Y-74041000D01*
X14995907Y-74041000D01*
X15108946Y-74609285D01*
X15430853Y-75091054D01*
X15760026Y-75311000D01*
X15430853Y-75530946D01*
X15108946Y-76012715D01*
X14995907Y-76581000D01*
X15108946Y-77149285D01*
X15430853Y-77631054D01*
X15912622Y-77952961D01*
X16480907Y-78066000D01*
X16539093Y-78066000D01*
X17107378Y-77952961D01*
X17589147Y-77631054D01*
X17666023Y-77516000D01*
X19424710Y-77516000D01*
X21817855Y-79909145D01*
X22121191Y-80111827D01*
X22180556Y-80123636D01*
X22479000Y-80183001D01*
X22479005Y-80183000D01*
X22527742Y-80183000D01*
X22808077Y-80463824D01*
X23335309Y-80682750D01*
X23906187Y-80683248D01*
X24433800Y-80465243D01*
X24837824Y-80061923D01*
X25056750Y-79534691D01*
X25057248Y-78963813D01*
X24839243Y-78436200D01*
X24435923Y-78032176D01*
X23908691Y-77813250D01*
X23337813Y-77812752D01*
X22810200Y-78030757D01*
X22697025Y-78143735D01*
X20473145Y-75919855D01*
X20169809Y-75717173D01*
X19812000Y-75646000D01*
X17666023Y-75646000D01*
X17589147Y-75530946D01*
X17259974Y-75311000D01*
X17589147Y-75091054D01*
X17666023Y-74976000D01*
X22403187Y-74976000D01*
X22404757Y-74979800D01*
X22808077Y-75383824D01*
X23335309Y-75602750D01*
X23906187Y-75603248D01*
X24433800Y-75385243D01*
X24837824Y-74981923D01*
X25056750Y-74454691D01*
X25057248Y-73883813D01*
X24839243Y-73356200D01*
X24435923Y-72952176D01*
X23908691Y-72733250D01*
X23337813Y-72732752D01*
X22810200Y-72950757D01*
X22654686Y-73106000D01*
X17666023Y-73106000D01*
X17589147Y-72990946D01*
X17248447Y-72763298D01*
X17391358Y-72696183D01*
X17781645Y-72267924D01*
X17951476Y-71857890D01*
X17830155Y-71628000D01*
X16637000Y-71628000D01*
X16637000Y-71648000D01*
X16383000Y-71648000D01*
X16383000Y-71628000D01*
X15189845Y-71628000D01*
X15068524Y-71857890D01*
X15238355Y-72267924D01*
X15628642Y-72696183D01*
X15771553Y-72763298D01*
X15430853Y-72990946D01*
X15108946Y-73472715D01*
X14995907Y-74041000D01*
X13385000Y-74041000D01*
X13385000Y-68111000D01*
X15012560Y-68111000D01*
X15012560Y-69811000D01*
X15056838Y-70046317D01*
X15195910Y-70262441D01*
X15408110Y-70407431D01*
X15516107Y-70429301D01*
X15238355Y-70734076D01*
X15068524Y-71144110D01*
X15189845Y-71374000D01*
X16383000Y-71374000D01*
X16383000Y-71354000D01*
X16637000Y-71354000D01*
X16637000Y-71374000D01*
X17830155Y-71374000D01*
X17951476Y-71144110D01*
X17781645Y-70734076D01*
X17505499Y-70431063D01*
X17595317Y-70414162D01*
X17811441Y-70275090D01*
X17956431Y-70062890D01*
X17990227Y-69896000D01*
X22403187Y-69896000D01*
X22404757Y-69899800D01*
X22808077Y-70303824D01*
X23335309Y-70522750D01*
X23906187Y-70523248D01*
X24433800Y-70305243D01*
X24837824Y-69901923D01*
X25056750Y-69374691D01*
X25057000Y-69088000D01*
X34858887Y-69088000D01*
X34968120Y-69637151D01*
X35279189Y-70102698D01*
X35744736Y-70413767D01*
X36293887Y-70523000D01*
X36350113Y-70523000D01*
X36899264Y-70413767D01*
X37364811Y-70102698D01*
X37675880Y-69637151D01*
X37785113Y-69088000D01*
X37675880Y-68538849D01*
X37364811Y-68073302D01*
X36899264Y-67762233D01*
X36350113Y-67653000D01*
X36293887Y-67653000D01*
X35744736Y-67762233D01*
X35279189Y-68073302D01*
X34968120Y-68538849D01*
X34858887Y-69088000D01*
X25057000Y-69088000D01*
X25057248Y-68803813D01*
X24839243Y-68276200D01*
X24435923Y-67872176D01*
X23908691Y-67653250D01*
X23337813Y-67652752D01*
X22810200Y-67870757D01*
X22654686Y-68026000D01*
X17991446Y-68026000D01*
X17963162Y-67875683D01*
X17824090Y-67659559D01*
X17611890Y-67514569D01*
X17360000Y-67463560D01*
X15660000Y-67463560D01*
X15424683Y-67507838D01*
X15208559Y-67646910D01*
X15063569Y-67859110D01*
X15012560Y-68111000D01*
X13385000Y-68111000D01*
X13385000Y-57501907D01*
X15025000Y-57501907D01*
X15025000Y-57560093D01*
X15138039Y-58128378D01*
X15375000Y-58483016D01*
X15375000Y-62293984D01*
X15138039Y-62648622D01*
X15025000Y-63216907D01*
X15025000Y-63275093D01*
X15138039Y-63843378D01*
X15459946Y-64325147D01*
X15941715Y-64647054D01*
X16510000Y-64760093D01*
X17078285Y-64647054D01*
X17560054Y-64325147D01*
X17587850Y-64283548D01*
X17596838Y-64331317D01*
X17735910Y-64547441D01*
X17948110Y-64692431D01*
X18200000Y-64743440D01*
X19900000Y-64743440D01*
X20135317Y-64699162D01*
X20351441Y-64560090D01*
X20496431Y-64347890D01*
X20530227Y-64181000D01*
X22654521Y-64181000D01*
X22808077Y-64334824D01*
X23335309Y-64553750D01*
X23906187Y-64554248D01*
X24433800Y-64336243D01*
X24837824Y-63932923D01*
X25030860Y-63468039D01*
X34930096Y-63468039D01*
X35090959Y-63856423D01*
X35466866Y-64271389D01*
X35972959Y-64510914D01*
X36195000Y-64389629D01*
X36195000Y-63246000D01*
X36449000Y-63246000D01*
X36449000Y-64389629D01*
X36671041Y-64510914D01*
X37177134Y-64271389D01*
X37553041Y-63856423D01*
X37713904Y-63468039D01*
X37591915Y-63246000D01*
X36449000Y-63246000D01*
X36195000Y-63246000D01*
X35052085Y-63246000D01*
X34930096Y-63468039D01*
X25030860Y-63468039D01*
X25056750Y-63405691D01*
X25057248Y-62834813D01*
X25030452Y-62769961D01*
X34930096Y-62769961D01*
X35052085Y-62992000D01*
X36195000Y-62992000D01*
X36195000Y-61848371D01*
X36449000Y-61848371D01*
X36449000Y-62992000D01*
X37591915Y-62992000D01*
X37713904Y-62769961D01*
X37553041Y-62381577D01*
X37177134Y-61966611D01*
X36671041Y-61727086D01*
X36449000Y-61848371D01*
X36195000Y-61848371D01*
X35972959Y-61727086D01*
X35466866Y-61966611D01*
X35090959Y-62381577D01*
X34930096Y-62769961D01*
X25030452Y-62769961D01*
X24839243Y-62307200D01*
X24435923Y-61903176D01*
X23908691Y-61684250D01*
X23337813Y-61683752D01*
X22810200Y-61901757D01*
X22406176Y-62305077D01*
X22403717Y-62311000D01*
X20531446Y-62311000D01*
X20503162Y-62160683D01*
X20364090Y-61944559D01*
X20151890Y-61799569D01*
X19900000Y-61748560D01*
X18200000Y-61748560D01*
X17964683Y-61792838D01*
X17748559Y-61931910D01*
X17645000Y-62083474D01*
X17645000Y-58691163D01*
X17735910Y-58832441D01*
X17948110Y-58977431D01*
X18200000Y-59028440D01*
X19900000Y-59028440D01*
X20135317Y-58984162D01*
X20351441Y-58845090D01*
X20496431Y-58632890D01*
X20530227Y-58466000D01*
X22403187Y-58466000D01*
X22404757Y-58469800D01*
X22808077Y-58873824D01*
X23335309Y-59092750D01*
X23906187Y-59093248D01*
X24433800Y-58875243D01*
X24837824Y-58471923D01*
X25030860Y-58007039D01*
X34930096Y-58007039D01*
X35090959Y-58395423D01*
X35466866Y-58810389D01*
X35972959Y-59049914D01*
X36195000Y-58928629D01*
X36195000Y-57785000D01*
X36449000Y-57785000D01*
X36449000Y-58928629D01*
X36671041Y-59049914D01*
X37177134Y-58810389D01*
X37553041Y-58395423D01*
X37713904Y-58007039D01*
X37591915Y-57785000D01*
X36449000Y-57785000D01*
X36195000Y-57785000D01*
X35052085Y-57785000D01*
X34930096Y-58007039D01*
X25030860Y-58007039D01*
X25056750Y-57944691D01*
X25057248Y-57373813D01*
X25030452Y-57308961D01*
X34930096Y-57308961D01*
X35052085Y-57531000D01*
X36195000Y-57531000D01*
X36195000Y-56387371D01*
X36449000Y-56387371D01*
X36449000Y-57531000D01*
X37591915Y-57531000D01*
X37713904Y-57308961D01*
X37553041Y-56920577D01*
X37177134Y-56505611D01*
X36671041Y-56266086D01*
X36449000Y-56387371D01*
X36195000Y-56387371D01*
X35972959Y-56266086D01*
X35466866Y-56505611D01*
X35090959Y-56920577D01*
X34930096Y-57308961D01*
X25030452Y-57308961D01*
X24839243Y-56846200D01*
X24435923Y-56442176D01*
X23908691Y-56223250D01*
X23337813Y-56222752D01*
X22810200Y-56440757D01*
X22654686Y-56596000D01*
X20531446Y-56596000D01*
X20503162Y-56445683D01*
X20364090Y-56229559D01*
X20151890Y-56084569D01*
X19900000Y-56033560D01*
X18200000Y-56033560D01*
X17964683Y-56077838D01*
X17899000Y-56120104D01*
X17899000Y-55364000D01*
X40793233Y-55364000D01*
X40995275Y-55499000D01*
X40613189Y-55754302D01*
X40302120Y-56219849D01*
X40192887Y-56769000D01*
X40302120Y-57318151D01*
X40613189Y-57783698D01*
X40995275Y-58039000D01*
X40613189Y-58294302D01*
X40302120Y-58759849D01*
X40192887Y-59309000D01*
X40302120Y-59858151D01*
X40613189Y-60323698D01*
X40995275Y-60579000D01*
X40613189Y-60834302D01*
X40302120Y-61299849D01*
X40192887Y-61849000D01*
X40302120Y-62398151D01*
X40613189Y-62863698D01*
X40995275Y-63119000D01*
X40613189Y-63374302D01*
X40302120Y-63839849D01*
X40192887Y-64389000D01*
X40302120Y-64938151D01*
X40613189Y-65403698D01*
X40995275Y-65659000D01*
X40613189Y-65914302D01*
X40302120Y-66379849D01*
X40192887Y-66929000D01*
X40302120Y-67478151D01*
X40613189Y-67943698D01*
X40995275Y-68199000D01*
X40613189Y-68454302D01*
X40302120Y-68919849D01*
X40192887Y-69469000D01*
X40302120Y-70018151D01*
X40613189Y-70483698D01*
X40995275Y-70739000D01*
X40613189Y-70994302D01*
X40302120Y-71459849D01*
X40192887Y-72009000D01*
X40302120Y-72558151D01*
X40613189Y-73023698D01*
X40995275Y-73279000D01*
X40613189Y-73534302D01*
X40302120Y-73999849D01*
X40192887Y-74549000D01*
X40302120Y-75098151D01*
X40613189Y-75563698D01*
X40995275Y-75819000D01*
X40613189Y-76074302D01*
X40302120Y-76539849D01*
X40192887Y-77089000D01*
X40302120Y-77638151D01*
X40613189Y-78103698D01*
X40995275Y-78359000D01*
X40613189Y-78614302D01*
X40302120Y-79079849D01*
X40233602Y-79424312D01*
X39543000Y-78733710D01*
X39543000Y-76454000D01*
X39471827Y-76096191D01*
X39269145Y-75792855D01*
X37761749Y-74285459D01*
X37785113Y-74168000D01*
X37675880Y-73618849D01*
X37364811Y-73153302D01*
X36899264Y-72842233D01*
X36350113Y-72733000D01*
X36293887Y-72733000D01*
X35744736Y-72842233D01*
X35279189Y-73153302D01*
X34968120Y-73618849D01*
X34858887Y-74168000D01*
X34968120Y-74717151D01*
X35279189Y-75182698D01*
X35744736Y-75493767D01*
X36293887Y-75603000D01*
X36350113Y-75603000D01*
X36420674Y-75588964D01*
X37673000Y-76841290D01*
X37673000Y-78694539D01*
X37364811Y-78233302D01*
X36899264Y-77922233D01*
X36350113Y-77813000D01*
X36293887Y-77813000D01*
X35744736Y-77922233D01*
X35279189Y-78233302D01*
X34968120Y-78698849D01*
X34858887Y-79248000D01*
X34968120Y-79797151D01*
X35279189Y-80262698D01*
X35744736Y-80573767D01*
X36293887Y-80683000D01*
X36350113Y-80683000D01*
X36420674Y-80668964D01*
X39470855Y-83719145D01*
X39774191Y-83921827D01*
X40132000Y-83993000D01*
X50292000Y-83993000D01*
X50649809Y-83921827D01*
X50953145Y-83719145D01*
X52229118Y-82443172D01*
X69595538Y-82443172D01*
X70000709Y-83423761D01*
X70750293Y-84174655D01*
X71730173Y-84581536D01*
X72791172Y-84582462D01*
X73771761Y-84177291D01*
X74522655Y-83427707D01*
X74929536Y-82447827D01*
X74930462Y-81386828D01*
X74525291Y-80406239D01*
X73775707Y-79655345D01*
X72795827Y-79248464D01*
X71734828Y-79247538D01*
X70754239Y-79652709D01*
X70003345Y-80402293D01*
X69596464Y-81382173D01*
X69595538Y-82443172D01*
X52229118Y-82443172D01*
X52604145Y-82068145D01*
X52637111Y-82018808D01*
X52806827Y-81764809D01*
X52827476Y-81661000D01*
X52878001Y-81407000D01*
X52878000Y-81406995D01*
X52878000Y-78486000D01*
X52806827Y-78128191D01*
X52604145Y-77824855D01*
X51963331Y-77184041D01*
X53853086Y-77184041D01*
X54092611Y-77690134D01*
X54507577Y-78066041D01*
X54895961Y-78226904D01*
X55118000Y-78104915D01*
X55118000Y-76962000D01*
X55372000Y-76962000D01*
X55372000Y-78104915D01*
X55594039Y-78226904D01*
X55982423Y-78066041D01*
X56397389Y-77690134D01*
X56636914Y-77184041D01*
X59187086Y-77184041D01*
X59426611Y-77690134D01*
X59841577Y-78066041D01*
X60229961Y-78226904D01*
X60452000Y-78104915D01*
X60452000Y-76962000D01*
X60706000Y-76962000D01*
X60706000Y-78104915D01*
X60928039Y-78226904D01*
X61316423Y-78066041D01*
X61731389Y-77690134D01*
X61970914Y-77184041D01*
X61901544Y-77057041D01*
X64902086Y-77057041D01*
X65141611Y-77563134D01*
X65556577Y-77939041D01*
X65944961Y-78099904D01*
X66167000Y-77977915D01*
X66167000Y-76835000D01*
X66421000Y-76835000D01*
X66421000Y-77977915D01*
X66643039Y-78099904D01*
X67031423Y-77939041D01*
X67446389Y-77563134D01*
X67685914Y-77057041D01*
X67616544Y-76930041D01*
X70490086Y-76930041D01*
X70729611Y-77436134D01*
X71144577Y-77812041D01*
X71532961Y-77972904D01*
X71755000Y-77850915D01*
X71755000Y-76708000D01*
X72009000Y-76708000D01*
X72009000Y-77850915D01*
X72231039Y-77972904D01*
X72619423Y-77812041D01*
X73034389Y-77436134D01*
X73273914Y-76930041D01*
X73152629Y-76708000D01*
X72009000Y-76708000D01*
X71755000Y-76708000D01*
X70611371Y-76708000D01*
X70490086Y-76930041D01*
X67616544Y-76930041D01*
X67564629Y-76835000D01*
X66421000Y-76835000D01*
X66167000Y-76835000D01*
X65023371Y-76835000D01*
X64902086Y-77057041D01*
X61901544Y-77057041D01*
X61849629Y-76962000D01*
X60706000Y-76962000D01*
X60452000Y-76962000D01*
X59308371Y-76962000D01*
X59187086Y-77184041D01*
X56636914Y-77184041D01*
X56515629Y-76962000D01*
X55372000Y-76962000D01*
X55118000Y-76962000D01*
X53974371Y-76962000D01*
X53853086Y-77184041D01*
X51963331Y-77184041D01*
X51265249Y-76485959D01*
X53853086Y-76485959D01*
X53974371Y-76708000D01*
X55118000Y-76708000D01*
X55118000Y-75565085D01*
X55372000Y-75565085D01*
X55372000Y-76708000D01*
X56515629Y-76708000D01*
X56636914Y-76485959D01*
X59187086Y-76485959D01*
X59308371Y-76708000D01*
X60452000Y-76708000D01*
X60452000Y-75565085D01*
X60706000Y-75565085D01*
X60706000Y-76708000D01*
X61849629Y-76708000D01*
X61970914Y-76485959D01*
X61910808Y-76358959D01*
X64902086Y-76358959D01*
X65023371Y-76581000D01*
X66167000Y-76581000D01*
X66167000Y-75438085D01*
X66421000Y-75438085D01*
X66421000Y-76581000D01*
X67564629Y-76581000D01*
X67685914Y-76358959D01*
X67625808Y-76231959D01*
X70490086Y-76231959D01*
X70611371Y-76454000D01*
X71755000Y-76454000D01*
X71755000Y-75311085D01*
X72009000Y-75311085D01*
X72009000Y-76454000D01*
X73152629Y-76454000D01*
X73273914Y-76231959D01*
X73034389Y-75725866D01*
X72619423Y-75349959D01*
X72231039Y-75189096D01*
X72009000Y-75311085D01*
X71755000Y-75311085D01*
X71532961Y-75189096D01*
X71144577Y-75349959D01*
X70729611Y-75725866D01*
X70490086Y-76231959D01*
X67625808Y-76231959D01*
X67446389Y-75852866D01*
X67031423Y-75476959D01*
X66643039Y-75316096D01*
X66421000Y-75438085D01*
X66167000Y-75438085D01*
X65944961Y-75316096D01*
X65556577Y-75476959D01*
X65141611Y-75852866D01*
X64902086Y-76358959D01*
X61910808Y-76358959D01*
X61731389Y-75979866D01*
X61316423Y-75603959D01*
X60928039Y-75443096D01*
X60706000Y-75565085D01*
X60452000Y-75565085D01*
X60229961Y-75443096D01*
X59841577Y-75603959D01*
X59426611Y-75979866D01*
X59187086Y-76485959D01*
X56636914Y-76485959D01*
X56397389Y-75979866D01*
X55982423Y-75603959D01*
X55594039Y-75443096D01*
X55372000Y-75565085D01*
X55118000Y-75565085D01*
X54895961Y-75443096D01*
X54507577Y-75603959D01*
X54092611Y-75979866D01*
X53853086Y-76485959D01*
X51265249Y-76485959D01*
X51207145Y-76427855D01*
X50903809Y-76225173D01*
X50546000Y-76154000D01*
X50372064Y-76154000D01*
X50318811Y-76074302D01*
X49936725Y-75819000D01*
X50318811Y-75563698D01*
X50629880Y-75098151D01*
X50739113Y-74549000D01*
X50629880Y-73999849D01*
X50318811Y-73534302D01*
X49936725Y-73279000D01*
X50318811Y-73023698D01*
X50629880Y-72558151D01*
X50739113Y-72009000D01*
X50629880Y-71459849D01*
X50318811Y-70994302D01*
X49936725Y-70739000D01*
X50318811Y-70483698D01*
X50629880Y-70018151D01*
X50739113Y-69469000D01*
X50629880Y-68919849D01*
X50318811Y-68454302D01*
X49936725Y-68199000D01*
X50318811Y-67943698D01*
X50629880Y-67478151D01*
X50739113Y-66929000D01*
X50629880Y-66379849D01*
X50318811Y-65914302D01*
X49936725Y-65659000D01*
X50318811Y-65403698D01*
X50629880Y-64938151D01*
X50739113Y-64389000D01*
X50629880Y-63839849D01*
X50318811Y-63374302D01*
X49936725Y-63119000D01*
X50318811Y-62863698D01*
X50629880Y-62398151D01*
X50739113Y-61849000D01*
X50629880Y-61299849D01*
X50318811Y-60834302D01*
X49936725Y-60579000D01*
X50318811Y-60323698D01*
X50629880Y-59858151D01*
X50739113Y-59309000D01*
X50629880Y-58759849D01*
X50318811Y-58294302D01*
X49914297Y-58024014D01*
X50131134Y-57921389D01*
X50507041Y-57506423D01*
X50667904Y-57118039D01*
X50545915Y-56896000D01*
X49403000Y-56896000D01*
X49403000Y-56916000D01*
X49149000Y-56916000D01*
X49149000Y-56896000D01*
X48006085Y-56896000D01*
X47884096Y-57118039D01*
X48044959Y-57506423D01*
X48420866Y-57921389D01*
X48637703Y-58024014D01*
X48413233Y-58174000D01*
X47968132Y-58174000D01*
X43220566Y-53426434D01*
X43165187Y-53389431D01*
X42852346Y-53180397D01*
X42561480Y-53122540D01*
X42294297Y-52944014D01*
X42511134Y-52841389D01*
X42887041Y-52426423D01*
X43047904Y-52038039D01*
X42925915Y-51816000D01*
X41783000Y-51816000D01*
X41783000Y-51836000D01*
X41529000Y-51836000D01*
X41529000Y-51816000D01*
X40386085Y-51816000D01*
X40264096Y-52038039D01*
X40424959Y-52426423D01*
X40800866Y-52841389D01*
X41017703Y-52944014D01*
X40793233Y-53094000D01*
X37166438Y-53094000D01*
X37426041Y-52807423D01*
X37586904Y-52419039D01*
X37464915Y-52197000D01*
X36322000Y-52197000D01*
X36322000Y-52217000D01*
X36068000Y-52217000D01*
X36068000Y-52197000D01*
X34925085Y-52197000D01*
X34803096Y-52419039D01*
X34963959Y-52807423D01*
X35223562Y-53094000D01*
X24500380Y-53094000D01*
X24710824Y-52883923D01*
X24929750Y-52356691D01*
X24930248Y-51785813D01*
X24903452Y-51720961D01*
X34803096Y-51720961D01*
X34925085Y-51943000D01*
X36068000Y-51943000D01*
X36068000Y-50799371D01*
X36322000Y-50799371D01*
X36322000Y-51943000D01*
X37464915Y-51943000D01*
X37586904Y-51720961D01*
X37426041Y-51332577D01*
X37050134Y-50917611D01*
X36544041Y-50678086D01*
X36322000Y-50799371D01*
X36068000Y-50799371D01*
X35845959Y-50678086D01*
X35339866Y-50917611D01*
X34963959Y-51332577D01*
X34803096Y-51720961D01*
X24903452Y-51720961D01*
X24712243Y-51258200D01*
X24308923Y-50854176D01*
X23781691Y-50635250D01*
X23210813Y-50634752D01*
X22683200Y-50852757D01*
X22279176Y-51256077D01*
X22060250Y-51783309D01*
X22059752Y-52354187D01*
X22277757Y-52881800D01*
X22489587Y-53094000D01*
X20589876Y-53094000D01*
X20623431Y-53044890D01*
X20674440Y-52793000D01*
X20674440Y-51093000D01*
X20630162Y-50857683D01*
X20491090Y-50641559D01*
X20278890Y-50496569D01*
X20027000Y-50445560D01*
X18327000Y-50445560D01*
X18091683Y-50489838D01*
X17875559Y-50628910D01*
X17772000Y-50780474D01*
X17772000Y-49498039D01*
X40264096Y-49498039D01*
X40424959Y-49886423D01*
X40800866Y-50301389D01*
X41049367Y-50419000D01*
X40800866Y-50536611D01*
X40424959Y-50951577D01*
X40264096Y-51339961D01*
X40386085Y-51562000D01*
X41529000Y-51562000D01*
X41529000Y-49276000D01*
X41783000Y-49276000D01*
X41783000Y-51562000D01*
X42925915Y-51562000D01*
X43047904Y-51339961D01*
X42887041Y-50951577D01*
X42511134Y-50536611D01*
X42262633Y-50419000D01*
X42511134Y-50301389D01*
X42887041Y-49886423D01*
X43047904Y-49498039D01*
X42925915Y-49276000D01*
X41783000Y-49276000D01*
X41529000Y-49276000D01*
X40386085Y-49276000D01*
X40264096Y-49498039D01*
X17772000Y-49498039D01*
X17772000Y-48023163D01*
X17862910Y-48164441D01*
X18075110Y-48309431D01*
X18327000Y-48360440D01*
X20027000Y-48360440D01*
X20262317Y-48316162D01*
X20478441Y-48177090D01*
X20623431Y-47964890D01*
X20674440Y-47713000D01*
X20674440Y-47147187D01*
X22059752Y-47147187D01*
X22277757Y-47674800D01*
X22681077Y-48078824D01*
X23208309Y-48297750D01*
X23779187Y-48298248D01*
X24306800Y-48080243D01*
X24710824Y-47676923D01*
X24903860Y-47212039D01*
X34803096Y-47212039D01*
X34963959Y-47600423D01*
X35339866Y-48015389D01*
X35845959Y-48254914D01*
X36068000Y-48133629D01*
X36068000Y-46990000D01*
X36322000Y-46990000D01*
X36322000Y-48133629D01*
X36544041Y-48254914D01*
X37050134Y-48015389D01*
X37426041Y-47600423D01*
X37586904Y-47212039D01*
X37464915Y-46990000D01*
X36322000Y-46990000D01*
X36068000Y-46990000D01*
X34925085Y-46990000D01*
X34803096Y-47212039D01*
X24903860Y-47212039D01*
X24929750Y-47149691D01*
X24929917Y-46958039D01*
X40264096Y-46958039D01*
X40424959Y-47346423D01*
X40800866Y-47761389D01*
X41049367Y-47879000D01*
X40800866Y-47996611D01*
X40424959Y-48411577D01*
X40264096Y-48799961D01*
X40386085Y-49022000D01*
X41529000Y-49022000D01*
X41529000Y-46736000D01*
X41783000Y-46736000D01*
X41783000Y-49022000D01*
X42925915Y-49022000D01*
X43047904Y-48799961D01*
X42887041Y-48411577D01*
X42511134Y-47996611D01*
X42262633Y-47879000D01*
X42511134Y-47761389D01*
X42887041Y-47346423D01*
X43047904Y-46958039D01*
X42925915Y-46736000D01*
X41783000Y-46736000D01*
X41529000Y-46736000D01*
X40386085Y-46736000D01*
X40264096Y-46958039D01*
X24929917Y-46958039D01*
X24930248Y-46578813D01*
X24903452Y-46513961D01*
X34803096Y-46513961D01*
X34925085Y-46736000D01*
X36068000Y-46736000D01*
X36068000Y-45592371D01*
X36322000Y-45592371D01*
X36322000Y-46736000D01*
X37464915Y-46736000D01*
X37534689Y-46609000D01*
X47812887Y-46609000D01*
X47922120Y-47158151D01*
X48233189Y-47623698D01*
X48615275Y-47879000D01*
X48233189Y-48134302D01*
X47922120Y-48599849D01*
X47812887Y-49149000D01*
X47922120Y-49698151D01*
X48233189Y-50163698D01*
X48615275Y-50419000D01*
X48233189Y-50674302D01*
X47922120Y-51139849D01*
X47812887Y-51689000D01*
X47922120Y-52238151D01*
X48233189Y-52703698D01*
X48615275Y-52959000D01*
X48233189Y-53214302D01*
X47922120Y-53679849D01*
X47812887Y-54229000D01*
X47922120Y-54778151D01*
X48233189Y-55243698D01*
X48637703Y-55513986D01*
X48420866Y-55616611D01*
X48044959Y-56031577D01*
X47884096Y-56419961D01*
X48006085Y-56642000D01*
X49149000Y-56642000D01*
X49149000Y-56622000D01*
X49403000Y-56622000D01*
X49403000Y-56642000D01*
X50545915Y-56642000D01*
X50667904Y-56419961D01*
X50507041Y-56031577D01*
X50131134Y-55616611D01*
X49914297Y-55513986D01*
X50318811Y-55243698D01*
X50629880Y-54778151D01*
X50739113Y-54229000D01*
X50629880Y-53679849D01*
X50318811Y-53214302D01*
X49936725Y-52959000D01*
X50318811Y-52703698D01*
X50629880Y-52238151D01*
X50739113Y-51689000D01*
X50629880Y-51139849D01*
X50318811Y-50674302D01*
X49936725Y-50419000D01*
X50318811Y-50163698D01*
X50629880Y-49698151D01*
X50739113Y-49149000D01*
X50629880Y-48599849D01*
X50318811Y-48134302D01*
X49936725Y-47879000D01*
X50318811Y-47623698D01*
X50629880Y-47158151D01*
X50739113Y-46609000D01*
X50629880Y-46059849D01*
X50318811Y-45594302D01*
X49853264Y-45283233D01*
X49304113Y-45174000D01*
X49247887Y-45174000D01*
X48698736Y-45283233D01*
X48233189Y-45594302D01*
X47922120Y-46059849D01*
X47812887Y-46609000D01*
X37534689Y-46609000D01*
X37586904Y-46513961D01*
X37481701Y-46259961D01*
X40264096Y-46259961D01*
X40386085Y-46482000D01*
X41529000Y-46482000D01*
X41529000Y-45338371D01*
X41783000Y-45338371D01*
X41783000Y-46482000D01*
X42925915Y-46482000D01*
X43047904Y-46259961D01*
X42887041Y-45871577D01*
X42511134Y-45456611D01*
X42005041Y-45217086D01*
X41783000Y-45338371D01*
X41529000Y-45338371D01*
X41306959Y-45217086D01*
X40800866Y-45456611D01*
X40424959Y-45871577D01*
X40264096Y-46259961D01*
X37481701Y-46259961D01*
X37426041Y-46125577D01*
X37050134Y-45710611D01*
X36544041Y-45471086D01*
X36322000Y-45592371D01*
X36068000Y-45592371D01*
X35845959Y-45471086D01*
X35339866Y-45710611D01*
X34963959Y-46125577D01*
X34803096Y-46513961D01*
X24903452Y-46513961D01*
X24712243Y-46051200D01*
X24308923Y-45647176D01*
X23781691Y-45428250D01*
X23210813Y-45427752D01*
X22683200Y-45645757D01*
X22279176Y-46049077D01*
X22060250Y-46576309D01*
X22059752Y-47147187D01*
X20674440Y-47147187D01*
X20674440Y-46013000D01*
X20630162Y-45777683D01*
X20491090Y-45561559D01*
X20278890Y-45416569D01*
X20027000Y-45365560D01*
X18327000Y-45365560D01*
X18091683Y-45409838D01*
X17875559Y-45548910D01*
X17730569Y-45761110D01*
X17716914Y-45828541D01*
X17687054Y-45783853D01*
X17205285Y-45461946D01*
X16637000Y-45348907D01*
X16068715Y-45461946D01*
X15586946Y-45783853D01*
X15265039Y-46265622D01*
X15152000Y-46833907D01*
X15152000Y-46892093D01*
X15265039Y-47460378D01*
X15502000Y-47815016D01*
X15502000Y-50990984D01*
X15265039Y-51345622D01*
X15152000Y-51913907D01*
X15152000Y-51972093D01*
X15265039Y-52540378D01*
X15502000Y-52895016D01*
X15502000Y-54102000D01*
X15588397Y-54536346D01*
X15629000Y-54597113D01*
X15629000Y-56338895D01*
X15459946Y-56451853D01*
X15138039Y-56933622D01*
X15025000Y-57501907D01*
X13385000Y-57501907D01*
X13385000Y-40484887D01*
X18123000Y-40484887D01*
X18123000Y-40541113D01*
X18232233Y-41090264D01*
X18543302Y-41555811D01*
X19008849Y-41866880D01*
X19558000Y-41976113D01*
X20107151Y-41866880D01*
X20572698Y-41555811D01*
X20828000Y-41173725D01*
X21083302Y-41555811D01*
X21548849Y-41866880D01*
X22098000Y-41976113D01*
X22647151Y-41866880D01*
X23112698Y-41555811D01*
X23368000Y-41173725D01*
X23623302Y-41555811D01*
X24088849Y-41866880D01*
X24638000Y-41976113D01*
X25187151Y-41866880D01*
X25652698Y-41555811D01*
X25922986Y-41151297D01*
X26025611Y-41368134D01*
X26440577Y-41744041D01*
X26828961Y-41904904D01*
X27051000Y-41782915D01*
X27051000Y-40640000D01*
X27305000Y-40640000D01*
X27305000Y-41782915D01*
X27527039Y-41904904D01*
X27915423Y-41744041D01*
X28330389Y-41368134D01*
X28448000Y-41119633D01*
X28565611Y-41368134D01*
X28980577Y-41744041D01*
X29368961Y-41904904D01*
X29591000Y-41782915D01*
X29591000Y-40640000D01*
X27305000Y-40640000D01*
X27051000Y-40640000D01*
X27031000Y-40640000D01*
X27031000Y-40386000D01*
X27051000Y-40386000D01*
X27051000Y-39243085D01*
X27305000Y-39243085D01*
X27305000Y-40386000D01*
X29591000Y-40386000D01*
X29591000Y-39243085D01*
X29368961Y-39121096D01*
X28980577Y-39281959D01*
X28565611Y-39657866D01*
X28448000Y-39906367D01*
X28330389Y-39657866D01*
X27915423Y-39281959D01*
X27527039Y-39121096D01*
X27305000Y-39243085D01*
X27051000Y-39243085D01*
X26828961Y-39121096D01*
X26440577Y-39281959D01*
X26025611Y-39657866D01*
X25922986Y-39874703D01*
X25652698Y-39470189D01*
X25187151Y-39159120D01*
X24638000Y-39049887D01*
X24088849Y-39159120D01*
X23623302Y-39470189D01*
X23368000Y-39852275D01*
X23112698Y-39470189D01*
X22647151Y-39159120D01*
X22098000Y-39049887D01*
X21548849Y-39159120D01*
X21083302Y-39470189D01*
X20828000Y-39852275D01*
X20572698Y-39470189D01*
X20107151Y-39159120D01*
X19558000Y-39049887D01*
X19008849Y-39159120D01*
X18543302Y-39470189D01*
X18232233Y-39935736D01*
X18123000Y-40484887D01*
X13385000Y-40484887D01*
X13385000Y-32864887D01*
X18123000Y-32864887D01*
X18123000Y-32921113D01*
X18232233Y-33470264D01*
X18423000Y-33755767D01*
X18423000Y-35306000D01*
X18509397Y-35740346D01*
X18706544Y-36035397D01*
X18755434Y-36108566D01*
X20533434Y-37886566D01*
X20901654Y-38132603D01*
X21336000Y-38219000D01*
X36203000Y-38219000D01*
X36203000Y-39650233D01*
X36068000Y-39852275D01*
X35812698Y-39470189D01*
X35347151Y-39159120D01*
X34798000Y-39049887D01*
X34248849Y-39159120D01*
X33783302Y-39470189D01*
X33528000Y-39852275D01*
X33272698Y-39470189D01*
X32807151Y-39159120D01*
X32258000Y-39049887D01*
X31708849Y-39159120D01*
X31243302Y-39470189D01*
X30973014Y-39874703D01*
X30870389Y-39657866D01*
X30455423Y-39281959D01*
X30067039Y-39121096D01*
X29845000Y-39243085D01*
X29845000Y-40386000D01*
X29865000Y-40386000D01*
X29865000Y-40640000D01*
X29845000Y-40640000D01*
X29845000Y-41782915D01*
X30067039Y-41904904D01*
X30455423Y-41744041D01*
X30870389Y-41368134D01*
X30973014Y-41151297D01*
X31243302Y-41555811D01*
X31708849Y-41866880D01*
X32258000Y-41976113D01*
X32807151Y-41866880D01*
X33272698Y-41555811D01*
X33528000Y-41173725D01*
X33783302Y-41555811D01*
X34248849Y-41866880D01*
X34798000Y-41976113D01*
X35347151Y-41866880D01*
X35812698Y-41555811D01*
X36068000Y-41173725D01*
X36323302Y-41555811D01*
X36788849Y-41866880D01*
X37338000Y-41976113D01*
X37887151Y-41866880D01*
X38214728Y-41648000D01*
X40615808Y-41648000D01*
X40722910Y-41814441D01*
X40935110Y-41959431D01*
X41187000Y-42010440D01*
X41675308Y-42010440D01*
X43139434Y-43474566D01*
X43507654Y-43720603D01*
X43942000Y-43807000D01*
X51192266Y-43807000D01*
X51394434Y-44109566D01*
X51762654Y-44355603D01*
X51927202Y-44388334D01*
X54237000Y-46698132D01*
X54237000Y-53315808D01*
X54070559Y-53422910D01*
X53925569Y-53635110D01*
X53874560Y-53887000D01*
X53874560Y-55587000D01*
X53918838Y-55822317D01*
X54057910Y-56038441D01*
X54270110Y-56183431D01*
X54337541Y-56197086D01*
X54292853Y-56226946D01*
X53970946Y-56708715D01*
X53857907Y-57277000D01*
X53970946Y-57845285D01*
X54292853Y-58327054D01*
X54437000Y-58423370D01*
X54437000Y-58670630D01*
X54292853Y-58766946D01*
X53970946Y-59248715D01*
X53857907Y-59817000D01*
X53970946Y-60385285D01*
X54292853Y-60867054D01*
X54310000Y-60878511D01*
X54310000Y-63040742D01*
X54029176Y-63321077D01*
X53810250Y-63848309D01*
X53809752Y-64419187D01*
X54027757Y-64946800D01*
X54431077Y-65350824D01*
X54958309Y-65569750D01*
X55529187Y-65570248D01*
X56056800Y-65352243D01*
X56460824Y-64948923D01*
X56679750Y-64421691D01*
X56680248Y-63850813D01*
X56462243Y-63323200D01*
X56180000Y-63040464D01*
X56180000Y-61048228D01*
X56451147Y-60867054D01*
X56773054Y-60385285D01*
X56886093Y-59817000D01*
X56773054Y-59248715D01*
X56451147Y-58766946D01*
X56307000Y-58670630D01*
X56307000Y-58423370D01*
X56451147Y-58327054D01*
X56773054Y-57845285D01*
X56886093Y-57277000D01*
X56773054Y-56708715D01*
X56451147Y-56226946D01*
X56409548Y-56199150D01*
X56457317Y-56190162D01*
X56673441Y-56051090D01*
X56795808Y-55872000D01*
X59157808Y-55872000D01*
X59264910Y-56038441D01*
X59477110Y-56183431D01*
X59544541Y-56197086D01*
X59499853Y-56226946D01*
X59177946Y-56708715D01*
X59064907Y-57277000D01*
X59177946Y-57845285D01*
X59499853Y-58327054D01*
X59644000Y-58423370D01*
X59644000Y-58670630D01*
X59499853Y-58766946D01*
X59177946Y-59248715D01*
X59064907Y-59817000D01*
X59177946Y-60385285D01*
X59499853Y-60867054D01*
X59644000Y-60963370D01*
X59644000Y-63040742D01*
X59363176Y-63321077D01*
X59144250Y-63848309D01*
X59143752Y-64419187D01*
X59361757Y-64946800D01*
X59765077Y-65350824D01*
X60292309Y-65569750D01*
X60863187Y-65570248D01*
X61390800Y-65352243D01*
X61794824Y-64948923D01*
X62013750Y-64421691D01*
X62014248Y-63850813D01*
X61796243Y-63323200D01*
X61514000Y-63040464D01*
X61514000Y-60963370D01*
X61658147Y-60867054D01*
X61980054Y-60385285D01*
X62093093Y-59817000D01*
X61980054Y-59248715D01*
X61658147Y-58766946D01*
X61514000Y-58670630D01*
X61514000Y-58423370D01*
X61658147Y-58327054D01*
X61980054Y-57845285D01*
X62093093Y-57277000D01*
X61980054Y-56708715D01*
X61658147Y-56226946D01*
X61616548Y-56199150D01*
X61664317Y-56190162D01*
X61880441Y-56051090D01*
X62002808Y-55872000D01*
X64872808Y-55872000D01*
X64979910Y-56038441D01*
X65192110Y-56183431D01*
X65259541Y-56197086D01*
X65214853Y-56226946D01*
X64892946Y-56708715D01*
X64779907Y-57277000D01*
X64892946Y-57845285D01*
X65214853Y-58327054D01*
X65359000Y-58423370D01*
X65359000Y-58670630D01*
X65214853Y-58766946D01*
X64892946Y-59248715D01*
X64779907Y-59817000D01*
X64892946Y-60385285D01*
X65214853Y-60867054D01*
X65359000Y-60963370D01*
X65359000Y-62913742D01*
X65078176Y-63194077D01*
X64859250Y-63721309D01*
X64858752Y-64292187D01*
X65076757Y-64819800D01*
X65480077Y-65223824D01*
X66007309Y-65442750D01*
X66578187Y-65443248D01*
X67105800Y-65225243D01*
X67509824Y-64821923D01*
X67728750Y-64294691D01*
X67729248Y-63723813D01*
X67511243Y-63196200D01*
X67229000Y-62913464D01*
X67229000Y-60963370D01*
X67373147Y-60867054D01*
X67695054Y-60385285D01*
X67808093Y-59817000D01*
X67695054Y-59248715D01*
X67373147Y-58766946D01*
X67229000Y-58670630D01*
X67229000Y-58423370D01*
X67373147Y-58327054D01*
X67695054Y-57845285D01*
X67808093Y-57277000D01*
X67695054Y-56708715D01*
X67373147Y-56226946D01*
X67331548Y-56199150D01*
X67379317Y-56190162D01*
X67595441Y-56051090D01*
X67717808Y-55872000D01*
X70587808Y-55872000D01*
X70694910Y-56038441D01*
X70907110Y-56183431D01*
X70974541Y-56197086D01*
X70929853Y-56226946D01*
X70607946Y-56708715D01*
X70494907Y-57277000D01*
X70607946Y-57845285D01*
X70929853Y-58327054D01*
X71074000Y-58423370D01*
X71074000Y-58670630D01*
X70929853Y-58766946D01*
X70607946Y-59248715D01*
X70494907Y-59817000D01*
X70607946Y-60385285D01*
X70929853Y-60867054D01*
X70947000Y-60878511D01*
X70947000Y-62786742D01*
X70666176Y-63067077D01*
X70447250Y-63594309D01*
X70446752Y-64165187D01*
X70664757Y-64692800D01*
X71068077Y-65096824D01*
X71595309Y-65315750D01*
X72166187Y-65316248D01*
X72693800Y-65098243D01*
X73097824Y-64694923D01*
X73316750Y-64167691D01*
X73317248Y-63596813D01*
X73099243Y-63069200D01*
X72817000Y-62786464D01*
X72817000Y-61048228D01*
X73088147Y-60867054D01*
X73410054Y-60385285D01*
X73523093Y-59817000D01*
X73410054Y-59248715D01*
X73088147Y-58766946D01*
X72944000Y-58670630D01*
X72944000Y-58423370D01*
X73088147Y-58327054D01*
X73410054Y-57845285D01*
X73523093Y-57277000D01*
X73410054Y-56708715D01*
X73088147Y-56226946D01*
X73046548Y-56199150D01*
X73094317Y-56190162D01*
X73310441Y-56051090D01*
X73455431Y-55838890D01*
X73506440Y-55587000D01*
X73506440Y-53887000D01*
X73462162Y-53651683D01*
X73323090Y-53435559D01*
X73110890Y-53290569D01*
X72859000Y-53239560D01*
X71159000Y-53239560D01*
X70923683Y-53283838D01*
X70707559Y-53422910D01*
X70585192Y-53602000D01*
X67715192Y-53602000D01*
X67608090Y-53435559D01*
X67395890Y-53290569D01*
X67144000Y-53239560D01*
X65444000Y-53239560D01*
X65208683Y-53283838D01*
X64992559Y-53422910D01*
X64870192Y-53602000D01*
X62000192Y-53602000D01*
X61893090Y-53435559D01*
X61680890Y-53290569D01*
X61429000Y-53239560D01*
X59729000Y-53239560D01*
X59493683Y-53283838D01*
X59277559Y-53422910D01*
X59155192Y-53602000D01*
X56793192Y-53602000D01*
X56686090Y-53435559D01*
X56507000Y-53313192D01*
X56507000Y-48738907D01*
X68746000Y-48738907D01*
X68746000Y-48797093D01*
X68859039Y-49365378D01*
X69180946Y-49847147D01*
X69662715Y-50169054D01*
X70231000Y-50282093D01*
X70799285Y-50169054D01*
X71281054Y-49847147D01*
X71310403Y-49803223D01*
X71382673Y-49977698D01*
X71561301Y-50156327D01*
X71794690Y-50253000D01*
X72485250Y-50253000D01*
X72644000Y-50094250D01*
X72644000Y-48895000D01*
X72898000Y-48895000D01*
X72898000Y-50094250D01*
X73056750Y-50253000D01*
X73747310Y-50253000D01*
X73980699Y-50156327D01*
X74159327Y-49977698D01*
X74256000Y-49744309D01*
X74256000Y-49053750D01*
X74097250Y-48895000D01*
X72898000Y-48895000D01*
X72644000Y-48895000D01*
X72624000Y-48895000D01*
X72624000Y-48641000D01*
X72644000Y-48641000D01*
X72644000Y-47441750D01*
X72898000Y-47441750D01*
X72898000Y-48641000D01*
X74097250Y-48641000D01*
X74256000Y-48482250D01*
X74256000Y-47791691D01*
X74159327Y-47558302D01*
X73980699Y-47379673D01*
X73747310Y-47283000D01*
X73056750Y-47283000D01*
X72898000Y-47441750D01*
X72644000Y-47441750D01*
X72485250Y-47283000D01*
X71794690Y-47283000D01*
X71561301Y-47379673D01*
X71382673Y-47558302D01*
X71310403Y-47732777D01*
X71281054Y-47688853D01*
X71166000Y-47611977D01*
X71166000Y-44843387D01*
X71455297Y-44554595D01*
X71675748Y-44023689D01*
X71676250Y-43448833D01*
X71456725Y-42917543D01*
X71050595Y-42510703D01*
X70519689Y-42290252D01*
X69944833Y-42289750D01*
X69413543Y-42509275D01*
X69006703Y-42915405D01*
X68786252Y-43446311D01*
X68785750Y-44021167D01*
X69005275Y-44552457D01*
X69296000Y-44843690D01*
X69296000Y-47611977D01*
X69180946Y-47688853D01*
X68859039Y-48170622D01*
X68746000Y-48738907D01*
X56507000Y-48738907D01*
X56507000Y-46228000D01*
X56420603Y-45793654D01*
X56174566Y-45425434D01*
X53332000Y-42582868D01*
X53332000Y-41465016D01*
X53467000Y-41262974D01*
X53686946Y-41592147D01*
X54168715Y-41914054D01*
X54737000Y-42027093D01*
X55305285Y-41914054D01*
X55787054Y-41592147D01*
X56007000Y-41262974D01*
X56226946Y-41592147D01*
X56708715Y-41914054D01*
X57277000Y-42027093D01*
X57845285Y-41914054D01*
X58327054Y-41592147D01*
X58547000Y-41262974D01*
X58766946Y-41592147D01*
X59248715Y-41914054D01*
X59817000Y-42027093D01*
X60385285Y-41914054D01*
X60867054Y-41592147D01*
X61087000Y-41262974D01*
X61306946Y-41592147D01*
X61788715Y-41914054D01*
X62357000Y-42027093D01*
X62925285Y-41914054D01*
X63407054Y-41592147D01*
X63627000Y-41262974D01*
X63846946Y-41592147D01*
X64328715Y-41914054D01*
X64897000Y-42027093D01*
X65465285Y-41914054D01*
X65947054Y-41592147D01*
X66268961Y-41110378D01*
X66382000Y-40542093D01*
X66382000Y-40483907D01*
X66268961Y-39915622D01*
X65947054Y-39433853D01*
X65465285Y-39111946D01*
X64897000Y-38998907D01*
X64328715Y-39111946D01*
X63846946Y-39433853D01*
X63627000Y-39763026D01*
X63407054Y-39433853D01*
X62925285Y-39111946D01*
X62357000Y-38998907D01*
X61788715Y-39111946D01*
X61306946Y-39433853D01*
X61087000Y-39763026D01*
X60867054Y-39433853D01*
X60385285Y-39111946D01*
X59817000Y-38998907D01*
X59248715Y-39111946D01*
X58766946Y-39433853D01*
X58547000Y-39763026D01*
X58327054Y-39433853D01*
X57845285Y-39111946D01*
X57277000Y-38998907D01*
X56708715Y-39111946D01*
X56226946Y-39433853D01*
X56007000Y-39763026D01*
X55787054Y-39433853D01*
X55305285Y-39111946D01*
X54737000Y-38998907D01*
X54168715Y-39111946D01*
X53686946Y-39433853D01*
X53467000Y-39763026D01*
X53247054Y-39433853D01*
X52765285Y-39111946D01*
X52197000Y-38998907D01*
X51628715Y-39111946D01*
X51146946Y-39433853D01*
X50927000Y-39763026D01*
X50707054Y-39433853D01*
X50465000Y-39272118D01*
X50465000Y-21222023D01*
X50580054Y-21145147D01*
X50800000Y-20815974D01*
X51019946Y-21145147D01*
X51135000Y-21222023D01*
X51135000Y-32527743D01*
X51008162Y-32833201D01*
X51007838Y-33205167D01*
X51149883Y-33548943D01*
X51412673Y-33812192D01*
X51756201Y-33954838D01*
X52128167Y-33955162D01*
X52471943Y-33813117D01*
X52735192Y-33550327D01*
X52737648Y-33544413D01*
X52933827Y-33250809D01*
X53005000Y-32893000D01*
X53005000Y-21222023D01*
X53120054Y-21145147D01*
X53340000Y-20815974D01*
X53559946Y-21145147D01*
X53675000Y-21222023D01*
X53675000Y-22479000D01*
X53746173Y-22836809D01*
X53948855Y-23140145D01*
X66502000Y-35693290D01*
X66502000Y-38481000D01*
X66573173Y-38838809D01*
X66775855Y-39142145D01*
X69529855Y-41896145D01*
X69833191Y-42098827D01*
X70191000Y-42170000D01*
X71622613Y-42170000D01*
X71911405Y-42459297D01*
X72442311Y-42679748D01*
X73017167Y-42680250D01*
X73548457Y-42460725D01*
X73955297Y-42054595D01*
X74175748Y-41523689D01*
X74176250Y-40948833D01*
X73956725Y-40417543D01*
X73550595Y-40010703D01*
X73019689Y-39790252D01*
X72444833Y-39789750D01*
X71913543Y-40009275D01*
X71622310Y-40300000D01*
X70578290Y-40300000D01*
X70458489Y-40180199D01*
X70517167Y-40180250D01*
X71048457Y-39960725D01*
X71455297Y-39554595D01*
X71675748Y-39023689D01*
X71676250Y-38448833D01*
X71456725Y-37917543D01*
X71050595Y-37510703D01*
X70519689Y-37290252D01*
X69944833Y-37289750D01*
X69413543Y-37509275D01*
X69006703Y-37915405D01*
X68786252Y-38446311D01*
X68786198Y-38507908D01*
X68372000Y-38093710D01*
X68372000Y-35306000D01*
X68300827Y-34948191D01*
X68098145Y-34644855D01*
X66952197Y-33498907D01*
X68492000Y-33498907D01*
X68492000Y-33557093D01*
X68605039Y-34125378D01*
X68926946Y-34607147D01*
X69408715Y-34929054D01*
X69977000Y-35042093D01*
X70545285Y-34929054D01*
X71027054Y-34607147D01*
X71056403Y-34563223D01*
X71128673Y-34737698D01*
X71307301Y-34916327D01*
X71540690Y-35013000D01*
X72231250Y-35013000D01*
X72390000Y-34854250D01*
X72390000Y-33655000D01*
X72644000Y-33655000D01*
X72644000Y-34854250D01*
X72802750Y-35013000D01*
X73493310Y-35013000D01*
X73726699Y-34916327D01*
X73905327Y-34737698D01*
X74002000Y-34504309D01*
X74002000Y-33813750D01*
X73843250Y-33655000D01*
X72644000Y-33655000D01*
X72390000Y-33655000D01*
X72370000Y-33655000D01*
X72370000Y-33401000D01*
X72390000Y-33401000D01*
X72390000Y-32201750D01*
X72644000Y-32201750D01*
X72644000Y-33401000D01*
X73843250Y-33401000D01*
X74002000Y-33242250D01*
X74002000Y-32551691D01*
X73905327Y-32318302D01*
X73726699Y-32139673D01*
X73493310Y-32043000D01*
X72802750Y-32043000D01*
X72644000Y-32201750D01*
X72390000Y-32201750D01*
X72231250Y-32043000D01*
X71540690Y-32043000D01*
X71307301Y-32139673D01*
X71128673Y-32318302D01*
X71056403Y-32492777D01*
X71027054Y-32448853D01*
X70912000Y-32371977D01*
X70912000Y-30359633D01*
X70921457Y-30355725D01*
X71328297Y-29949595D01*
X71548748Y-29418689D01*
X71549250Y-28843833D01*
X71329725Y-28312543D01*
X70923595Y-27905703D01*
X70392689Y-27685252D01*
X69817833Y-27684750D01*
X69286543Y-27904275D01*
X68879703Y-28310405D01*
X68659252Y-28841311D01*
X68658750Y-29416167D01*
X68878275Y-29947457D01*
X69042000Y-30111468D01*
X69042000Y-32371977D01*
X68926946Y-32448853D01*
X68605039Y-32930622D01*
X68492000Y-33498907D01*
X66952197Y-33498907D01*
X57869457Y-24416167D01*
X68658750Y-24416167D01*
X68878275Y-24947457D01*
X69284405Y-25354297D01*
X69815311Y-25574748D01*
X70390167Y-25575250D01*
X70921457Y-25355725D01*
X71328297Y-24949595D01*
X71548748Y-24418689D01*
X71549250Y-23843833D01*
X71329725Y-23312543D01*
X70923595Y-22905703D01*
X70392689Y-22685252D01*
X69817833Y-22684750D01*
X69286543Y-22904275D01*
X68879703Y-23310405D01*
X68659252Y-23841311D01*
X68658750Y-24416167D01*
X57869457Y-24416167D01*
X55545000Y-22091710D01*
X55545000Y-21222023D01*
X55660054Y-21145147D01*
X55880000Y-20815974D01*
X56099946Y-21145147D01*
X56581715Y-21467054D01*
X57150000Y-21580093D01*
X57718285Y-21467054D01*
X58200054Y-21145147D01*
X58420000Y-20815974D01*
X58639946Y-21145147D01*
X59121715Y-21467054D01*
X59690000Y-21580093D01*
X60258285Y-21467054D01*
X60740054Y-21145147D01*
X60960000Y-20815974D01*
X61179946Y-21145147D01*
X61661715Y-21467054D01*
X62230000Y-21580093D01*
X62798285Y-21467054D01*
X63280054Y-21145147D01*
X63500000Y-20815974D01*
X63719946Y-21145147D01*
X64201715Y-21467054D01*
X64770000Y-21580093D01*
X65338285Y-21467054D01*
X65820054Y-21145147D01*
X66141961Y-20663378D01*
X66255000Y-20095093D01*
X66255000Y-20036907D01*
X66141961Y-19468622D01*
X65820054Y-18986853D01*
X65338285Y-18664946D01*
X64951452Y-18588000D01*
X67557710Y-18588000D01*
X71669000Y-22699290D01*
X71669000Y-25521613D01*
X71379703Y-25810405D01*
X71159252Y-26341311D01*
X71158750Y-26916167D01*
X71378275Y-27447457D01*
X71784405Y-27854297D01*
X72315311Y-28074748D01*
X72890167Y-28075250D01*
X73421457Y-27855725D01*
X73828297Y-27449595D01*
X74048748Y-26918689D01*
X74049250Y-26343833D01*
X73829725Y-25812543D01*
X73539000Y-25521310D01*
X73539000Y-22312000D01*
X73467827Y-21954191D01*
X73265145Y-21650855D01*
X68652462Y-17038172D01*
X69595538Y-17038172D01*
X70000709Y-18018761D01*
X70750293Y-18769655D01*
X71730173Y-19176536D01*
X72791172Y-19177462D01*
X73771761Y-18772291D01*
X74522655Y-18022707D01*
X74929536Y-17042827D01*
X74930462Y-15981828D01*
X74525291Y-15001239D01*
X73775707Y-14250345D01*
X72795827Y-13843464D01*
X71734828Y-13842538D01*
X70754239Y-14247709D01*
X70003345Y-14997293D01*
X69596464Y-15977173D01*
X69595538Y-17038172D01*
X68652462Y-17038172D01*
X68606145Y-16991855D01*
X68302809Y-16789173D01*
X67945000Y-16718000D01*
X64516000Y-16718000D01*
X64158191Y-16789173D01*
X63854855Y-16991855D01*
X62284051Y-18562659D01*
X62230000Y-18551907D01*
X61661715Y-18664946D01*
X61179946Y-18986853D01*
X60960000Y-19316026D01*
X60740054Y-18986853D01*
X60258285Y-18664946D01*
X59690000Y-18551907D01*
X59121715Y-18664946D01*
X58639946Y-18986853D01*
X58420000Y-19316026D01*
X58200054Y-18986853D01*
X57718285Y-18664946D01*
X57150000Y-18551907D01*
X56581715Y-18664946D01*
X56099946Y-18986853D01*
X55880000Y-19316026D01*
X55660054Y-18986853D01*
X55178285Y-18664946D01*
X54610000Y-18551907D01*
X54041715Y-18664946D01*
X53559946Y-18986853D01*
X53340000Y-19316026D01*
X53120054Y-18986853D01*
X52638285Y-18664946D01*
X52070000Y-18551907D01*
X51501715Y-18664946D01*
X51019946Y-18986853D01*
X50800000Y-19316026D01*
X50580054Y-18986853D01*
X50098285Y-18664946D01*
X49530000Y-18551907D01*
X48961715Y-18664946D01*
X48479946Y-18986853D01*
X48252298Y-19327553D01*
X48185183Y-19184642D01*
X47756924Y-18794355D01*
X47346890Y-18624524D01*
X47117000Y-18745845D01*
X47117000Y-19939000D01*
X47137000Y-19939000D01*
X47137000Y-20193000D01*
X47117000Y-20193000D01*
X47117000Y-21386155D01*
X47346890Y-21507476D01*
X47756924Y-21337645D01*
X48185183Y-20947358D01*
X48252298Y-20804447D01*
X48479946Y-21145147D01*
X48595000Y-21222023D01*
X48595000Y-39451731D01*
X48387000Y-39763026D01*
X48167054Y-39433853D01*
X47685285Y-39111946D01*
X47117000Y-38998907D01*
X46548715Y-39111946D01*
X46066946Y-39433853D01*
X45839298Y-39774553D01*
X45772183Y-39631642D01*
X45343924Y-39241355D01*
X44933890Y-39071524D01*
X44704000Y-39192845D01*
X44704000Y-40386000D01*
X44724000Y-40386000D01*
X44724000Y-40640000D01*
X44704000Y-40640000D01*
X44704000Y-40660000D01*
X44450000Y-40660000D01*
X44450000Y-40640000D01*
X44430000Y-40640000D01*
X44430000Y-40386000D01*
X44450000Y-40386000D01*
X44450000Y-39192845D01*
X44220110Y-39071524D01*
X43810076Y-39241355D01*
X43507063Y-39517501D01*
X43490162Y-39427683D01*
X43351090Y-39211559D01*
X43172000Y-39089192D01*
X43172000Y-37681132D01*
X45252566Y-35600566D01*
X45498603Y-35232346D01*
X45585000Y-34798000D01*
X45585000Y-21018016D01*
X45727702Y-20804447D01*
X45794817Y-20947358D01*
X46223076Y-21337645D01*
X46633110Y-21507476D01*
X46863000Y-21386155D01*
X46863000Y-20193000D01*
X46843000Y-20193000D01*
X46843000Y-19939000D01*
X46863000Y-19939000D01*
X46863000Y-18745845D01*
X46633110Y-18624524D01*
X46223076Y-18794355D01*
X45794817Y-19184642D01*
X45727702Y-19327553D01*
X45500054Y-18986853D01*
X45018285Y-18664946D01*
X44450000Y-18551907D01*
X43881715Y-18664946D01*
X43399946Y-18986853D01*
X43372150Y-19028452D01*
X43363162Y-18980683D01*
X43224090Y-18764559D01*
X43011890Y-18619569D01*
X42760000Y-18568560D01*
X41060000Y-18568560D01*
X40824683Y-18612838D01*
X40608559Y-18751910D01*
X40463569Y-18964110D01*
X40412560Y-19216000D01*
X40412560Y-20916000D01*
X40456838Y-21151317D01*
X40595910Y-21367441D01*
X40808110Y-21512431D01*
X41060000Y-21563440D01*
X42760000Y-21563440D01*
X42995317Y-21519162D01*
X43211441Y-21380090D01*
X43315000Y-21228526D01*
X43315000Y-34327868D01*
X41234434Y-36408434D01*
X40988397Y-36776654D01*
X40902000Y-37211000D01*
X40902000Y-39091808D01*
X40735559Y-39198910D01*
X40613192Y-39378000D01*
X38473000Y-39378000D01*
X38473000Y-34232018D01*
X38589441Y-34157090D01*
X38734431Y-33944890D01*
X38785440Y-33693000D01*
X38785440Y-32093000D01*
X38741162Y-31857683D01*
X38602090Y-31641559D01*
X38389890Y-31496569D01*
X38138000Y-31445560D01*
X36538000Y-31445560D01*
X36302683Y-31489838D01*
X36086559Y-31628910D01*
X35941569Y-31841110D01*
X35910185Y-31996089D01*
X35812698Y-31850189D01*
X35347151Y-31539120D01*
X34798000Y-31429887D01*
X34248849Y-31539120D01*
X33783302Y-31850189D01*
X33629503Y-32080365D01*
X33614434Y-32090434D01*
X33523829Y-32226033D01*
X33272698Y-31850189D01*
X33193000Y-31796936D01*
X33193000Y-26119446D01*
X33343317Y-26091162D01*
X33559441Y-25952090D01*
X33704431Y-25739890D01*
X33755440Y-25488000D01*
X33755440Y-23788000D01*
X33711162Y-23552683D01*
X33572090Y-23336559D01*
X33359890Y-23191569D01*
X33108000Y-23140560D01*
X31408000Y-23140560D01*
X31172683Y-23184838D01*
X30956559Y-23323910D01*
X30811569Y-23536110D01*
X30797914Y-23603541D01*
X30768054Y-23558853D01*
X30286285Y-23236946D01*
X29718000Y-23123907D01*
X29149715Y-23236946D01*
X28667946Y-23558853D01*
X28346039Y-24040622D01*
X28233000Y-24608907D01*
X28233000Y-24667093D01*
X28346039Y-25235378D01*
X28667946Y-25717147D01*
X29149715Y-26039054D01*
X29718000Y-26152093D01*
X30286285Y-26039054D01*
X30768054Y-25717147D01*
X30795850Y-25675548D01*
X30804838Y-25723317D01*
X30943910Y-25939441D01*
X31156110Y-26084431D01*
X31323000Y-26118227D01*
X31323000Y-31796936D01*
X31243302Y-31850189D01*
X30973014Y-32254703D01*
X30870389Y-32037866D01*
X30455423Y-31661959D01*
X30067039Y-31501096D01*
X29845000Y-31623085D01*
X29845000Y-32766000D01*
X29865000Y-32766000D01*
X29865000Y-33020000D01*
X29845000Y-33020000D01*
X29845000Y-34162915D01*
X30067039Y-34284904D01*
X30455423Y-34124041D01*
X30870389Y-33748134D01*
X30973014Y-33531297D01*
X31243302Y-33935811D01*
X31708849Y-34246880D01*
X32258000Y-34356113D01*
X32807151Y-34246880D01*
X33272698Y-33935811D01*
X33523829Y-33559967D01*
X33614434Y-33695566D01*
X33629503Y-33705635D01*
X33783302Y-33935811D01*
X34248849Y-34246880D01*
X34798000Y-34356113D01*
X35347151Y-34246880D01*
X35812698Y-33935811D01*
X35909101Y-33791535D01*
X35934838Y-33928317D01*
X36073910Y-34144441D01*
X36203000Y-34232644D01*
X36203000Y-35949000D01*
X21806132Y-35949000D01*
X20693000Y-34835868D01*
X20693000Y-33755767D01*
X20828000Y-33553725D01*
X21083302Y-33935811D01*
X21548849Y-34246880D01*
X22098000Y-34356113D01*
X22647151Y-34246880D01*
X23112698Y-33935811D01*
X23368000Y-33553725D01*
X23623302Y-33935811D01*
X24088849Y-34246880D01*
X24638000Y-34356113D01*
X25187151Y-34246880D01*
X25652698Y-33935811D01*
X25922986Y-33531297D01*
X26025611Y-33748134D01*
X26440577Y-34124041D01*
X26828961Y-34284904D01*
X27051000Y-34162915D01*
X27051000Y-33020000D01*
X27305000Y-33020000D01*
X27305000Y-34162915D01*
X27527039Y-34284904D01*
X27915423Y-34124041D01*
X28330389Y-33748134D01*
X28448000Y-33499633D01*
X28565611Y-33748134D01*
X28980577Y-34124041D01*
X29368961Y-34284904D01*
X29591000Y-34162915D01*
X29591000Y-33020000D01*
X27305000Y-33020000D01*
X27051000Y-33020000D01*
X27031000Y-33020000D01*
X27031000Y-32766000D01*
X27051000Y-32766000D01*
X27051000Y-31623085D01*
X27305000Y-31623085D01*
X27305000Y-32766000D01*
X29591000Y-32766000D01*
X29591000Y-31623085D01*
X29368961Y-31501096D01*
X28980577Y-31661959D01*
X28565611Y-32037866D01*
X28448000Y-32286367D01*
X28330389Y-32037866D01*
X27915423Y-31661959D01*
X27527039Y-31501096D01*
X27305000Y-31623085D01*
X27051000Y-31623085D01*
X26828961Y-31501096D01*
X26440577Y-31661959D01*
X26025611Y-32037866D01*
X25922986Y-32254703D01*
X25652698Y-31850189D01*
X25573000Y-31796936D01*
X25573000Y-28956816D01*
X25573162Y-28770833D01*
X25431117Y-28427057D01*
X25168327Y-28163808D01*
X24824799Y-28021162D01*
X24452833Y-28020838D01*
X24109057Y-28162883D01*
X23845808Y-28425673D01*
X23703162Y-28769201D01*
X23702838Y-29141167D01*
X23703000Y-29141559D01*
X23703000Y-31796936D01*
X23623302Y-31850189D01*
X23368000Y-32232275D01*
X23112698Y-31850189D01*
X22647151Y-31539120D01*
X22098000Y-31429887D01*
X21548849Y-31539120D01*
X21083302Y-31850189D01*
X20828000Y-32232275D01*
X20572698Y-31850189D01*
X20107151Y-31539120D01*
X19558000Y-31429887D01*
X19008849Y-31539120D01*
X18543302Y-31850189D01*
X18232233Y-32315736D01*
X18123000Y-32864887D01*
X13385000Y-32864887D01*
X13385000Y-23788000D01*
X15266560Y-23788000D01*
X15266560Y-25488000D01*
X15310838Y-25723317D01*
X15449910Y-25939441D01*
X15662110Y-26084431D01*
X15914000Y-26135440D01*
X17614000Y-26135440D01*
X17849317Y-26091162D01*
X18065441Y-25952090D01*
X18210431Y-25739890D01*
X18232301Y-25631893D01*
X18537076Y-25909645D01*
X18947110Y-26079476D01*
X19177000Y-25958155D01*
X19177000Y-24765000D01*
X19431000Y-24765000D01*
X19431000Y-25958155D01*
X19660890Y-26079476D01*
X20070924Y-25909645D01*
X20499183Y-25519358D01*
X20745486Y-24994892D01*
X20624819Y-24765000D01*
X19431000Y-24765000D01*
X19177000Y-24765000D01*
X19157000Y-24765000D01*
X19157000Y-24511000D01*
X19177000Y-24511000D01*
X19177000Y-23317845D01*
X19431000Y-23317845D01*
X19431000Y-24511000D01*
X20624819Y-24511000D01*
X20745486Y-24281108D01*
X20499183Y-23756642D01*
X20070924Y-23366355D01*
X19660890Y-23196524D01*
X19431000Y-23317845D01*
X19177000Y-23317845D01*
X18947110Y-23196524D01*
X18537076Y-23366355D01*
X18234063Y-23642501D01*
X18217162Y-23552683D01*
X18078090Y-23336559D01*
X17865890Y-23191569D01*
X17699000Y-23157773D01*
X17699000Y-22739290D01*
X22358290Y-18080000D01*
X23035742Y-18080000D01*
X23316077Y-18360824D01*
X23843309Y-18579750D01*
X24414187Y-18580248D01*
X24941800Y-18362243D01*
X25345824Y-17958923D01*
X25564750Y-17431691D01*
X25565000Y-17145000D01*
X35366887Y-17145000D01*
X35476120Y-17694151D01*
X35787189Y-18159698D01*
X36252736Y-18470767D01*
X36801887Y-18580000D01*
X36858113Y-18580000D01*
X37407264Y-18470767D01*
X37872811Y-18159698D01*
X38183880Y-17694151D01*
X38293113Y-17145000D01*
X38183880Y-16595849D01*
X37872811Y-16130302D01*
X37407264Y-15819233D01*
X36858113Y-15710000D01*
X36801887Y-15710000D01*
X36252736Y-15819233D01*
X35787189Y-16130302D01*
X35476120Y-16595849D01*
X35366887Y-17145000D01*
X25565000Y-17145000D01*
X25565248Y-16860813D01*
X25347243Y-16333200D01*
X24943923Y-15929176D01*
X24416691Y-15710250D01*
X23845813Y-15709752D01*
X23318200Y-15927757D01*
X23035464Y-16210000D01*
X21971000Y-16210000D01*
X21613191Y-16281173D01*
X21309855Y-16483855D01*
X16102855Y-21690855D01*
X15900173Y-21994191D01*
X15829000Y-22352000D01*
X15829000Y-23156554D01*
X15678683Y-23184838D01*
X15462559Y-23323910D01*
X15317569Y-23536110D01*
X15266560Y-23788000D01*
X13385000Y-23788000D01*
X13385000Y-16784172D01*
X13588538Y-16784172D01*
X13993709Y-17764761D01*
X14743293Y-18515655D01*
X15723173Y-18922536D01*
X16784172Y-18923462D01*
X17764761Y-18518291D01*
X18515655Y-17768707D01*
X18922536Y-16788827D01*
X18923462Y-15727828D01*
X18518291Y-14747239D01*
X17768707Y-13996345D01*
X16788827Y-13589464D01*
X15727828Y-13588538D01*
X14747239Y-13993709D01*
X13996345Y-14743293D01*
X13589464Y-15723173D01*
X13588538Y-16784172D01*
X13385000Y-16784172D01*
X13385000Y-13258000D01*
X75388000Y-13258000D01*
X75388000Y-85040000D01*
M02*
