G04 #@! TF.FileFunction,Legend,Top*
%FSLAX46Y46*%
G04 Gerber Fmt 4.6, Leading zero omitted, Abs format (unit mm)*
G04 Created by KiCad (PCBNEW 4.0.6) date Fri Jul 14 14:02:12 2017*
%MOMM*%
%LPD*%
G01*
G04 APERTURE LIST*
%ADD10C,0.100000*%
%ADD11C,0.120000*%
%ADD12C,0.150000*%
G04 APERTURE END LIST*
D10*
D11*
X18796000Y-82042000D02*
G75*
G03X18796000Y-82042000I-2286000J0D01*
G01*
X74549000Y-16510000D02*
G75*
G03X74549000Y-16510000I-2286000J0D01*
G01*
X18542000Y-16256000D02*
G75*
G03X18542000Y-16256000I-2286000J0D01*
G01*
X18034000Y-25968000D02*
X20634000Y-25968000D01*
X20634000Y-25968000D02*
X20634000Y-23308000D01*
X20634000Y-23308000D02*
X18034000Y-23308000D01*
X18034000Y-23308000D02*
X18034000Y-25968000D01*
X16764000Y-25968000D02*
X15434000Y-25968000D01*
X15434000Y-25968000D02*
X15434000Y-24638000D01*
X15180000Y-70231000D02*
X15180000Y-77911000D01*
X15180000Y-77911000D02*
X17840000Y-77911000D01*
X17840000Y-77911000D02*
X17840000Y-70231000D01*
X17840000Y-70231000D02*
X15180000Y-70231000D01*
X15180000Y-68961000D02*
X15180000Y-67631000D01*
X15180000Y-67631000D02*
X16510000Y-67631000D01*
X43180000Y-21396000D02*
X66100000Y-21396000D01*
X66100000Y-21396000D02*
X66100000Y-18736000D01*
X66100000Y-18736000D02*
X43180000Y-18736000D01*
X43180000Y-18736000D02*
X43180000Y-21396000D01*
X41910000Y-21396000D02*
X40580000Y-21396000D01*
X40580000Y-21396000D02*
X40580000Y-20066000D01*
X43307000Y-41843000D02*
X66227000Y-41843000D01*
X66227000Y-41843000D02*
X66227000Y-39183000D01*
X66227000Y-39183000D02*
X43307000Y-39183000D01*
X43307000Y-39183000D02*
X43307000Y-41843000D01*
X42037000Y-41843000D02*
X40707000Y-41843000D01*
X40707000Y-41843000D02*
X40707000Y-40513000D01*
X30988000Y-23308000D02*
X28388000Y-23308000D01*
X28388000Y-23308000D02*
X28388000Y-25968000D01*
X28388000Y-25968000D02*
X30988000Y-25968000D01*
X30988000Y-25968000D02*
X30988000Y-23308000D01*
X32258000Y-23308000D02*
X33588000Y-23308000D01*
X33588000Y-23308000D02*
X33588000Y-24638000D01*
X71247000Y-32198000D02*
X68647000Y-32198000D01*
X68647000Y-32198000D02*
X68647000Y-34858000D01*
X68647000Y-34858000D02*
X71247000Y-34858000D01*
X71247000Y-34858000D02*
X71247000Y-32198000D01*
X72517000Y-32198000D02*
X73847000Y-32198000D01*
X73847000Y-32198000D02*
X73847000Y-33528000D01*
X71501000Y-47438000D02*
X68901000Y-47438000D01*
X68901000Y-47438000D02*
X68901000Y-50098000D01*
X68901000Y-50098000D02*
X71501000Y-50098000D01*
X71501000Y-50098000D02*
X71501000Y-47438000D01*
X72771000Y-47438000D02*
X74101000Y-47438000D01*
X74101000Y-47438000D02*
X74101000Y-48768000D01*
X56905000Y-65925000D02*
X53585000Y-65925000D01*
X53585000Y-65925000D02*
X53585000Y-75045000D01*
X53585000Y-75045000D02*
X56905000Y-75045000D01*
X56905000Y-75045000D02*
X56905000Y-65925000D01*
X55245000Y-65115000D02*
X55245000Y-65925000D01*
X55245000Y-75855000D02*
X55245000Y-75045000D01*
X62239000Y-65925000D02*
X58919000Y-65925000D01*
X58919000Y-65925000D02*
X58919000Y-75045000D01*
X58919000Y-75045000D02*
X62239000Y-75045000D01*
X62239000Y-75045000D02*
X62239000Y-65925000D01*
X60579000Y-65115000D02*
X60579000Y-65925000D01*
X60579000Y-75855000D02*
X60579000Y-75045000D01*
X67954000Y-65798000D02*
X64634000Y-65798000D01*
X64634000Y-65798000D02*
X64634000Y-74918000D01*
X64634000Y-74918000D02*
X67954000Y-74918000D01*
X67954000Y-74918000D02*
X67954000Y-65798000D01*
X66294000Y-64988000D02*
X66294000Y-65798000D01*
X66294000Y-75728000D02*
X66294000Y-74918000D01*
X73542000Y-65671000D02*
X70222000Y-65671000D01*
X70222000Y-65671000D02*
X70222000Y-74791000D01*
X70222000Y-74791000D02*
X73542000Y-74791000D01*
X73542000Y-74791000D02*
X73542000Y-65671000D01*
X71882000Y-64861000D02*
X71882000Y-65671000D01*
X71882000Y-75601000D02*
X71882000Y-74791000D01*
X25920000Y-15485000D02*
X25920000Y-18805000D01*
X25920000Y-18805000D02*
X35040000Y-18805000D01*
X35040000Y-18805000D02*
X35040000Y-15485000D01*
X35040000Y-15485000D02*
X25920000Y-15485000D01*
X25110000Y-17145000D02*
X25920000Y-17145000D01*
X35850000Y-17145000D02*
X35040000Y-17145000D01*
X25412000Y-72508000D02*
X25412000Y-75828000D01*
X25412000Y-75828000D02*
X34532000Y-75828000D01*
X34532000Y-75828000D02*
X34532000Y-72508000D01*
X34532000Y-72508000D02*
X25412000Y-72508000D01*
X24602000Y-74168000D02*
X25412000Y-74168000D01*
X35342000Y-74168000D02*
X34532000Y-74168000D01*
X25412000Y-77588000D02*
X25412000Y-80908000D01*
X25412000Y-80908000D02*
X34532000Y-80908000D01*
X34532000Y-80908000D02*
X34532000Y-77588000D01*
X34532000Y-77588000D02*
X25412000Y-77588000D01*
X24602000Y-79248000D02*
X25412000Y-79248000D01*
X35342000Y-79248000D02*
X34532000Y-79248000D01*
X25412000Y-67428000D02*
X25412000Y-70748000D01*
X25412000Y-70748000D02*
X34532000Y-70748000D01*
X34532000Y-70748000D02*
X34532000Y-67428000D01*
X34532000Y-67428000D02*
X25412000Y-67428000D01*
X24602000Y-69088000D02*
X25412000Y-69088000D01*
X35342000Y-69088000D02*
X34532000Y-69088000D01*
X70977000Y-23420000D02*
X73664000Y-23420000D01*
X70977000Y-29840000D02*
X73664000Y-29840000D01*
X73664000Y-23420000D02*
X73664000Y-29840000D01*
X70043000Y-25135000D02*
X70043000Y-28126000D01*
X70043000Y-25570000D02*
X73664000Y-25570000D01*
X70043000Y-27690000D02*
X73664000Y-27690000D01*
X70043000Y-25570000D02*
X70043000Y-27690000D01*
X73664000Y-25570000D02*
X73664000Y-27690000D01*
X71104000Y-38025000D02*
X73791000Y-38025000D01*
X71104000Y-44445000D02*
X73791000Y-44445000D01*
X73791000Y-38025000D02*
X73791000Y-44445000D01*
X70170000Y-39740000D02*
X70170000Y-42731000D01*
X70170000Y-40175000D02*
X73791000Y-40175000D01*
X70170000Y-42295000D02*
X73791000Y-42295000D01*
X70170000Y-40175000D02*
X70170000Y-42295000D01*
X73791000Y-40175000D02*
X73791000Y-42295000D01*
X54042000Y-56007000D02*
X54042000Y-61147000D01*
X54042000Y-61147000D02*
X56702000Y-61147000D01*
X56702000Y-61147000D02*
X56702000Y-56007000D01*
X56702000Y-56007000D02*
X54042000Y-56007000D01*
X54042000Y-54737000D02*
X54042000Y-53407000D01*
X54042000Y-53407000D02*
X55372000Y-53407000D01*
X59249000Y-56007000D02*
X59249000Y-61147000D01*
X59249000Y-61147000D02*
X61909000Y-61147000D01*
X61909000Y-61147000D02*
X61909000Y-56007000D01*
X61909000Y-56007000D02*
X59249000Y-56007000D01*
X59249000Y-54737000D02*
X59249000Y-53407000D01*
X59249000Y-53407000D02*
X60579000Y-53407000D01*
X64964000Y-56007000D02*
X64964000Y-61147000D01*
X64964000Y-61147000D02*
X67624000Y-61147000D01*
X67624000Y-61147000D02*
X67624000Y-56007000D01*
X67624000Y-56007000D02*
X64964000Y-56007000D01*
X64964000Y-54737000D02*
X64964000Y-53407000D01*
X64964000Y-53407000D02*
X66294000Y-53407000D01*
X70679000Y-56007000D02*
X70679000Y-61147000D01*
X70679000Y-61147000D02*
X73339000Y-61147000D01*
X73339000Y-61147000D02*
X73339000Y-56007000D01*
X73339000Y-56007000D02*
X70679000Y-56007000D01*
X70679000Y-54737000D02*
X70679000Y-53407000D01*
X70679000Y-53407000D02*
X72009000Y-53407000D01*
X17907000Y-50613000D02*
X15307000Y-50613000D01*
X15307000Y-50613000D02*
X15307000Y-53273000D01*
X15307000Y-53273000D02*
X17907000Y-53273000D01*
X17907000Y-53273000D02*
X17907000Y-50613000D01*
X19177000Y-50613000D02*
X20507000Y-50613000D01*
X20507000Y-50613000D02*
X20507000Y-51943000D01*
X17780000Y-56201000D02*
X15180000Y-56201000D01*
X15180000Y-56201000D02*
X15180000Y-58861000D01*
X15180000Y-58861000D02*
X17780000Y-58861000D01*
X17780000Y-58861000D02*
X17780000Y-56201000D01*
X19050000Y-56201000D02*
X20380000Y-56201000D01*
X20380000Y-56201000D02*
X20380000Y-57531000D01*
X17780000Y-61916000D02*
X15180000Y-61916000D01*
X15180000Y-61916000D02*
X15180000Y-64576000D01*
X15180000Y-64576000D02*
X17780000Y-64576000D01*
X17780000Y-64576000D02*
X17780000Y-61916000D01*
X19050000Y-61916000D02*
X20380000Y-61916000D01*
X20380000Y-61916000D02*
X20380000Y-63246000D01*
X17907000Y-45533000D02*
X15307000Y-45533000D01*
X15307000Y-45533000D02*
X15307000Y-48193000D01*
X15307000Y-48193000D02*
X17907000Y-48193000D01*
X17907000Y-48193000D02*
X17907000Y-45533000D01*
X19177000Y-45533000D02*
X20507000Y-45533000D01*
X20507000Y-45533000D02*
X20507000Y-46863000D01*
X38728000Y-35703000D02*
X38728000Y-33933000D01*
X38728000Y-33933000D02*
X18168000Y-33933000D01*
X18168000Y-33933000D02*
X18168000Y-39473000D01*
X18168000Y-39473000D02*
X38728000Y-39473000D01*
X38728000Y-39473000D02*
X38728000Y-37703000D01*
X38728000Y-31503000D02*
X18168000Y-31503000D01*
X18168000Y-31503000D02*
X18168000Y-41903000D01*
X18168000Y-41903000D02*
X38728000Y-41903000D01*
X38728000Y-41903000D02*
X38728000Y-31503000D01*
X38728000Y-37703000D02*
G75*
G02X38728000Y-35703000I0J1000000D01*
G01*
X46466000Y-81019000D02*
X48236000Y-81019000D01*
X48236000Y-81019000D02*
X48236000Y-45219000D01*
X48236000Y-45219000D02*
X42696000Y-45219000D01*
X42696000Y-45219000D02*
X42696000Y-81019000D01*
X42696000Y-81019000D02*
X44466000Y-81019000D01*
X50666000Y-81019000D02*
X50666000Y-45219000D01*
X50666000Y-45219000D02*
X40266000Y-45219000D01*
X40266000Y-45219000D02*
X40266000Y-81019000D01*
X40266000Y-81019000D02*
X50666000Y-81019000D01*
X44466000Y-81019000D02*
G75*
G02X46466000Y-81019000I1000000J0D01*
G01*
X25285000Y-50410000D02*
X25285000Y-53730000D01*
X25285000Y-53730000D02*
X34405000Y-53730000D01*
X34405000Y-53730000D02*
X34405000Y-50410000D01*
X34405000Y-50410000D02*
X25285000Y-50410000D01*
X24475000Y-52070000D02*
X25285000Y-52070000D01*
X35215000Y-52070000D02*
X34405000Y-52070000D01*
X25412000Y-55998000D02*
X25412000Y-59318000D01*
X25412000Y-59318000D02*
X34532000Y-59318000D01*
X34532000Y-59318000D02*
X34532000Y-55998000D01*
X34532000Y-55998000D02*
X25412000Y-55998000D01*
X24602000Y-57658000D02*
X25412000Y-57658000D01*
X35342000Y-57658000D02*
X34532000Y-57658000D01*
X25412000Y-61459000D02*
X25412000Y-64779000D01*
X25412000Y-64779000D02*
X34532000Y-64779000D01*
X34532000Y-64779000D02*
X34532000Y-61459000D01*
X34532000Y-61459000D02*
X25412000Y-61459000D01*
X24602000Y-63119000D02*
X25412000Y-63119000D01*
X35342000Y-63119000D02*
X34532000Y-63119000D01*
X25285000Y-45203000D02*
X25285000Y-48523000D01*
X25285000Y-48523000D02*
X34405000Y-48523000D01*
X34405000Y-48523000D02*
X34405000Y-45203000D01*
X34405000Y-45203000D02*
X25285000Y-45203000D01*
X24475000Y-46863000D02*
X25285000Y-46863000D01*
X35215000Y-46863000D02*
X34405000Y-46863000D01*
X74549000Y-81915000D02*
G75*
G03X74549000Y-81915000I-2286000J0D01*
G01*
D12*
X14886381Y-25376095D02*
X13886381Y-25376095D01*
X13886381Y-25138000D01*
X13934000Y-24995142D01*
X14029238Y-24899904D01*
X14124476Y-24852285D01*
X14314952Y-24804666D01*
X14457810Y-24804666D01*
X14648286Y-24852285D01*
X14743524Y-24899904D01*
X14838762Y-24995142D01*
X14886381Y-25138000D01*
X14886381Y-25376095D01*
X14886381Y-23852285D02*
X14886381Y-24423714D01*
X14886381Y-24138000D02*
X13886381Y-24138000D01*
X14029238Y-24233238D01*
X14124476Y-24328476D01*
X14172095Y-24423714D01*
X15771905Y-67083381D02*
X15771905Y-66083381D01*
X16010000Y-66083381D01*
X16152858Y-66131000D01*
X16248096Y-66226238D01*
X16295715Y-66321476D01*
X16343334Y-66511952D01*
X16343334Y-66654810D01*
X16295715Y-66845286D01*
X16248096Y-66940524D01*
X16152858Y-67035762D01*
X16010000Y-67083381D01*
X15771905Y-67083381D01*
X16724286Y-66178619D02*
X16771905Y-66131000D01*
X16867143Y-66083381D01*
X17105239Y-66083381D01*
X17200477Y-66131000D01*
X17248096Y-66178619D01*
X17295715Y-66273857D01*
X17295715Y-66369095D01*
X17248096Y-66511952D01*
X16676667Y-67083381D01*
X17295715Y-67083381D01*
X39032381Y-20399333D02*
X39746667Y-20399333D01*
X39889524Y-20446953D01*
X39984762Y-20542191D01*
X40032381Y-20685048D01*
X40032381Y-20780286D01*
X40032381Y-19399333D02*
X40032381Y-19970762D01*
X40032381Y-19685048D02*
X39032381Y-19685048D01*
X39175238Y-19780286D01*
X39270476Y-19875524D01*
X39318095Y-19970762D01*
X39159381Y-40846333D02*
X39873667Y-40846333D01*
X40016524Y-40893953D01*
X40111762Y-40989191D01*
X40159381Y-41132048D01*
X40159381Y-41227286D01*
X39254619Y-40417762D02*
X39207000Y-40370143D01*
X39159381Y-40274905D01*
X39159381Y-40036809D01*
X39207000Y-39941571D01*
X39254619Y-39893952D01*
X39349857Y-39846333D01*
X39445095Y-39846333D01*
X39587952Y-39893952D01*
X40159381Y-40465381D01*
X40159381Y-39846333D01*
X35040381Y-25447524D02*
X34040381Y-25447524D01*
X34754667Y-25114190D01*
X34040381Y-24780857D01*
X35040381Y-24780857D01*
X35040381Y-23780857D02*
X35040381Y-24352286D01*
X35040381Y-24066572D02*
X34040381Y-24066572D01*
X34183238Y-24161810D01*
X34278476Y-24257048D01*
X34326095Y-24352286D01*
X75299381Y-35266095D02*
X74299381Y-35266095D01*
X75013667Y-34932761D01*
X74299381Y-34599428D01*
X75299381Y-34599428D01*
X74775571Y-34123238D02*
X74775571Y-33789904D01*
X75299381Y-33647047D02*
X75299381Y-34123238D01*
X74299381Y-34123238D01*
X74299381Y-33647047D01*
X75251762Y-33266095D02*
X75299381Y-33123238D01*
X75299381Y-32885142D01*
X75251762Y-32789904D01*
X75204143Y-32742285D01*
X75108905Y-32694666D01*
X75013667Y-32694666D01*
X74918429Y-32742285D01*
X74870810Y-32789904D01*
X74823190Y-32885142D01*
X74775571Y-33075619D01*
X74727952Y-33170857D01*
X74680333Y-33218476D01*
X74585095Y-33266095D01*
X74489857Y-33266095D01*
X74394619Y-33218476D01*
X74347000Y-33170857D01*
X74299381Y-33075619D01*
X74299381Y-32837523D01*
X74347000Y-32694666D01*
X75299381Y-31742285D02*
X75299381Y-32313714D01*
X75299381Y-32028000D02*
X74299381Y-32028000D01*
X74442238Y-32123238D01*
X74537476Y-32218476D01*
X74585095Y-32313714D01*
X75553381Y-50506095D02*
X74553381Y-50506095D01*
X75267667Y-50172761D01*
X74553381Y-49839428D01*
X75553381Y-49839428D01*
X75029571Y-49363238D02*
X75029571Y-49029904D01*
X75553381Y-48887047D02*
X75553381Y-49363238D01*
X74553381Y-49363238D01*
X74553381Y-48887047D01*
X75505762Y-48506095D02*
X75553381Y-48363238D01*
X75553381Y-48125142D01*
X75505762Y-48029904D01*
X75458143Y-47982285D01*
X75362905Y-47934666D01*
X75267667Y-47934666D01*
X75172429Y-47982285D01*
X75124810Y-48029904D01*
X75077190Y-48125142D01*
X75029571Y-48315619D01*
X74981952Y-48410857D01*
X74934333Y-48458476D01*
X74839095Y-48506095D01*
X74743857Y-48506095D01*
X74648619Y-48458476D01*
X74601000Y-48410857D01*
X74553381Y-48315619D01*
X74553381Y-48077523D01*
X74601000Y-47934666D01*
X74648619Y-47553714D02*
X74601000Y-47506095D01*
X74553381Y-47410857D01*
X74553381Y-47172761D01*
X74601000Y-47077523D01*
X74648619Y-47029904D01*
X74743857Y-46982285D01*
X74839095Y-46982285D01*
X74981952Y-47029904D01*
X75553381Y-47601333D01*
X75553381Y-46982285D01*
X58357381Y-70651666D02*
X57881190Y-70985000D01*
X58357381Y-71223095D02*
X57357381Y-71223095D01*
X57357381Y-70842142D01*
X57405000Y-70746904D01*
X57452619Y-70699285D01*
X57547857Y-70651666D01*
X57690714Y-70651666D01*
X57785952Y-70699285D01*
X57833571Y-70746904D01*
X57881190Y-70842142D01*
X57881190Y-71223095D01*
X58357381Y-69699285D02*
X58357381Y-70270714D01*
X58357381Y-69985000D02*
X57357381Y-69985000D01*
X57500238Y-70080238D01*
X57595476Y-70175476D01*
X57643095Y-70270714D01*
X63691381Y-70651666D02*
X63215190Y-70985000D01*
X63691381Y-71223095D02*
X62691381Y-71223095D01*
X62691381Y-70842142D01*
X62739000Y-70746904D01*
X62786619Y-70699285D01*
X62881857Y-70651666D01*
X63024714Y-70651666D01*
X63119952Y-70699285D01*
X63167571Y-70746904D01*
X63215190Y-70842142D01*
X63215190Y-71223095D01*
X62786619Y-70270714D02*
X62739000Y-70223095D01*
X62691381Y-70127857D01*
X62691381Y-69889761D01*
X62739000Y-69794523D01*
X62786619Y-69746904D01*
X62881857Y-69699285D01*
X62977095Y-69699285D01*
X63119952Y-69746904D01*
X63691381Y-70318333D01*
X63691381Y-69699285D01*
X69406381Y-70524666D02*
X68930190Y-70858000D01*
X69406381Y-71096095D02*
X68406381Y-71096095D01*
X68406381Y-70715142D01*
X68454000Y-70619904D01*
X68501619Y-70572285D01*
X68596857Y-70524666D01*
X68739714Y-70524666D01*
X68834952Y-70572285D01*
X68882571Y-70619904D01*
X68930190Y-70715142D01*
X68930190Y-71096095D01*
X68406381Y-70191333D02*
X68406381Y-69572285D01*
X68787333Y-69905619D01*
X68787333Y-69762761D01*
X68834952Y-69667523D01*
X68882571Y-69619904D01*
X68977810Y-69572285D01*
X69215905Y-69572285D01*
X69311143Y-69619904D01*
X69358762Y-69667523D01*
X69406381Y-69762761D01*
X69406381Y-70048476D01*
X69358762Y-70143714D01*
X69311143Y-70191333D01*
X74994381Y-70397666D02*
X74518190Y-70731000D01*
X74994381Y-70969095D02*
X73994381Y-70969095D01*
X73994381Y-70588142D01*
X74042000Y-70492904D01*
X74089619Y-70445285D01*
X74184857Y-70397666D01*
X74327714Y-70397666D01*
X74422952Y-70445285D01*
X74470571Y-70492904D01*
X74518190Y-70588142D01*
X74518190Y-70969095D01*
X74327714Y-69540523D02*
X74994381Y-69540523D01*
X73946762Y-69778619D02*
X74661048Y-70016714D01*
X74661048Y-69397666D01*
X30313334Y-14937381D02*
X29980000Y-14461190D01*
X29741905Y-14937381D02*
X29741905Y-13937381D01*
X30122858Y-13937381D01*
X30218096Y-13985000D01*
X30265715Y-14032619D01*
X30313334Y-14127857D01*
X30313334Y-14270714D01*
X30265715Y-14365952D01*
X30218096Y-14413571D01*
X30122858Y-14461190D01*
X29741905Y-14461190D01*
X30789524Y-14937381D02*
X30980000Y-14937381D01*
X31075239Y-14889762D01*
X31122858Y-14842143D01*
X31218096Y-14699286D01*
X31265715Y-14508810D01*
X31265715Y-14127857D01*
X31218096Y-14032619D01*
X31170477Y-13985000D01*
X31075239Y-13937381D01*
X30884762Y-13937381D01*
X30789524Y-13985000D01*
X30741905Y-14032619D01*
X30694286Y-14127857D01*
X30694286Y-14365952D01*
X30741905Y-14461190D01*
X30789524Y-14508810D01*
X30884762Y-14556429D01*
X31075239Y-14556429D01*
X31170477Y-14508810D01*
X31218096Y-14461190D01*
X31265715Y-14365952D01*
X29329143Y-71960381D02*
X28995809Y-71484190D01*
X28757714Y-71960381D02*
X28757714Y-70960381D01*
X29138667Y-70960381D01*
X29233905Y-71008000D01*
X29281524Y-71055619D01*
X29329143Y-71150857D01*
X29329143Y-71293714D01*
X29281524Y-71388952D01*
X29233905Y-71436571D01*
X29138667Y-71484190D01*
X28757714Y-71484190D01*
X30281524Y-71960381D02*
X29710095Y-71960381D01*
X29995809Y-71960381D02*
X29995809Y-70960381D01*
X29900571Y-71103238D01*
X29805333Y-71198476D01*
X29710095Y-71246095D01*
X30900571Y-70960381D02*
X30995810Y-70960381D01*
X31091048Y-71008000D01*
X31138667Y-71055619D01*
X31186286Y-71150857D01*
X31233905Y-71341333D01*
X31233905Y-71579429D01*
X31186286Y-71769905D01*
X31138667Y-71865143D01*
X31091048Y-71912762D01*
X30995810Y-71960381D01*
X30900571Y-71960381D01*
X30805333Y-71912762D01*
X30757714Y-71865143D01*
X30710095Y-71769905D01*
X30662476Y-71579429D01*
X30662476Y-71341333D01*
X30710095Y-71150857D01*
X30757714Y-71055619D01*
X30805333Y-71008000D01*
X30900571Y-70960381D01*
X29329143Y-77040381D02*
X28995809Y-76564190D01*
X28757714Y-77040381D02*
X28757714Y-76040381D01*
X29138667Y-76040381D01*
X29233905Y-76088000D01*
X29281524Y-76135619D01*
X29329143Y-76230857D01*
X29329143Y-76373714D01*
X29281524Y-76468952D01*
X29233905Y-76516571D01*
X29138667Y-76564190D01*
X28757714Y-76564190D01*
X30281524Y-77040381D02*
X29710095Y-77040381D01*
X29995809Y-77040381D02*
X29995809Y-76040381D01*
X29900571Y-76183238D01*
X29805333Y-76278476D01*
X29710095Y-76326095D01*
X31233905Y-77040381D02*
X30662476Y-77040381D01*
X30948190Y-77040381D02*
X30948190Y-76040381D01*
X30852952Y-76183238D01*
X30757714Y-76278476D01*
X30662476Y-76326095D01*
X29329143Y-66880381D02*
X28995809Y-66404190D01*
X28757714Y-66880381D02*
X28757714Y-65880381D01*
X29138667Y-65880381D01*
X29233905Y-65928000D01*
X29281524Y-65975619D01*
X29329143Y-66070857D01*
X29329143Y-66213714D01*
X29281524Y-66308952D01*
X29233905Y-66356571D01*
X29138667Y-66404190D01*
X28757714Y-66404190D01*
X30281524Y-66880381D02*
X29710095Y-66880381D01*
X29995809Y-66880381D02*
X29995809Y-65880381D01*
X29900571Y-66023238D01*
X29805333Y-66118476D01*
X29710095Y-66166095D01*
X30662476Y-65975619D02*
X30710095Y-65928000D01*
X30805333Y-65880381D01*
X31043429Y-65880381D01*
X31138667Y-65928000D01*
X31186286Y-65975619D01*
X31233905Y-66070857D01*
X31233905Y-66166095D01*
X31186286Y-66308952D01*
X30614857Y-66880381D01*
X31233905Y-66880381D01*
X69508762Y-22522381D02*
X69175428Y-22046190D01*
X68937333Y-22522381D02*
X68937333Y-21522381D01*
X69318286Y-21522381D01*
X69413524Y-21570000D01*
X69461143Y-21617619D01*
X69508762Y-21712857D01*
X69508762Y-21855714D01*
X69461143Y-21950952D01*
X69413524Y-21998571D01*
X69318286Y-22046190D01*
X68937333Y-22046190D01*
X69794476Y-21522381D02*
X70127809Y-22522381D01*
X70461143Y-21522381D01*
X71318286Y-22522381D02*
X70746857Y-22522381D01*
X71032571Y-22522381D02*
X71032571Y-21522381D01*
X70937333Y-21665238D01*
X70842095Y-21760476D01*
X70746857Y-21808095D01*
X69635762Y-37127381D02*
X69302428Y-36651190D01*
X69064333Y-37127381D02*
X69064333Y-36127381D01*
X69445286Y-36127381D01*
X69540524Y-36175000D01*
X69588143Y-36222619D01*
X69635762Y-36317857D01*
X69635762Y-36460714D01*
X69588143Y-36555952D01*
X69540524Y-36603571D01*
X69445286Y-36651190D01*
X69064333Y-36651190D01*
X69921476Y-36127381D02*
X70254809Y-37127381D01*
X70588143Y-36127381D01*
X70873857Y-36222619D02*
X70921476Y-36175000D01*
X71016714Y-36127381D01*
X71254810Y-36127381D01*
X71350048Y-36175000D01*
X71397667Y-36222619D01*
X71445286Y-36317857D01*
X71445286Y-36413095D01*
X71397667Y-36555952D01*
X70826238Y-37127381D01*
X71445286Y-37127381D01*
X54776762Y-52859381D02*
X54443428Y-52383190D01*
X54205333Y-52859381D02*
X54205333Y-51859381D01*
X54586286Y-51859381D01*
X54681524Y-51907000D01*
X54729143Y-51954619D01*
X54776762Y-52049857D01*
X54776762Y-52192714D01*
X54729143Y-52287952D01*
X54681524Y-52335571D01*
X54586286Y-52383190D01*
X54205333Y-52383190D01*
X55062476Y-51859381D02*
X55395809Y-52859381D01*
X55729143Y-51859381D01*
X55967238Y-51859381D02*
X56586286Y-51859381D01*
X56252952Y-52240333D01*
X56395810Y-52240333D01*
X56491048Y-52287952D01*
X56538667Y-52335571D01*
X56586286Y-52430810D01*
X56586286Y-52668905D01*
X56538667Y-52764143D01*
X56491048Y-52811762D01*
X56395810Y-52859381D01*
X56110095Y-52859381D01*
X56014857Y-52811762D01*
X55967238Y-52764143D01*
X59983762Y-52859381D02*
X59650428Y-52383190D01*
X59412333Y-52859381D02*
X59412333Y-51859381D01*
X59793286Y-51859381D01*
X59888524Y-51907000D01*
X59936143Y-51954619D01*
X59983762Y-52049857D01*
X59983762Y-52192714D01*
X59936143Y-52287952D01*
X59888524Y-52335571D01*
X59793286Y-52383190D01*
X59412333Y-52383190D01*
X60269476Y-51859381D02*
X60602809Y-52859381D01*
X60936143Y-51859381D01*
X61698048Y-52192714D02*
X61698048Y-52859381D01*
X61459952Y-51811762D02*
X61221857Y-52526048D01*
X61840905Y-52526048D01*
X65698762Y-52859381D02*
X65365428Y-52383190D01*
X65127333Y-52859381D02*
X65127333Y-51859381D01*
X65508286Y-51859381D01*
X65603524Y-51907000D01*
X65651143Y-51954619D01*
X65698762Y-52049857D01*
X65698762Y-52192714D01*
X65651143Y-52287952D01*
X65603524Y-52335571D01*
X65508286Y-52383190D01*
X65127333Y-52383190D01*
X65984476Y-51859381D02*
X66317809Y-52859381D01*
X66651143Y-51859381D01*
X67460667Y-51859381D02*
X66984476Y-51859381D01*
X66936857Y-52335571D01*
X66984476Y-52287952D01*
X67079714Y-52240333D01*
X67317810Y-52240333D01*
X67413048Y-52287952D01*
X67460667Y-52335571D01*
X67508286Y-52430810D01*
X67508286Y-52668905D01*
X67460667Y-52764143D01*
X67413048Y-52811762D01*
X67317810Y-52859381D01*
X67079714Y-52859381D01*
X66984476Y-52811762D01*
X66936857Y-52764143D01*
X71413762Y-52859381D02*
X71080428Y-52383190D01*
X70842333Y-52859381D02*
X70842333Y-51859381D01*
X71223286Y-51859381D01*
X71318524Y-51907000D01*
X71366143Y-51954619D01*
X71413762Y-52049857D01*
X71413762Y-52192714D01*
X71366143Y-52287952D01*
X71318524Y-52335571D01*
X71223286Y-52383190D01*
X70842333Y-52383190D01*
X71699476Y-51859381D02*
X72032809Y-52859381D01*
X72366143Y-51859381D01*
X73128048Y-51859381D02*
X72937571Y-51859381D01*
X72842333Y-51907000D01*
X72794714Y-51954619D01*
X72699476Y-52097476D01*
X72651857Y-52287952D01*
X72651857Y-52668905D01*
X72699476Y-52764143D01*
X72747095Y-52811762D01*
X72842333Y-52859381D01*
X73032810Y-52859381D01*
X73128048Y-52811762D01*
X73175667Y-52764143D01*
X73223286Y-52668905D01*
X73223286Y-52430810D01*
X73175667Y-52335571D01*
X73128048Y-52287952D01*
X73032810Y-52240333D01*
X72842333Y-52240333D01*
X72747095Y-52287952D01*
X72699476Y-52335571D01*
X72651857Y-52430810D01*
X21911762Y-53276333D02*
X21959381Y-53133476D01*
X21959381Y-52895380D01*
X21911762Y-52800142D01*
X21864143Y-52752523D01*
X21768905Y-52704904D01*
X21673667Y-52704904D01*
X21578429Y-52752523D01*
X21530810Y-52800142D01*
X21483190Y-52895380D01*
X21435571Y-53085857D01*
X21387952Y-53181095D01*
X21340333Y-53228714D01*
X21245095Y-53276333D01*
X21149857Y-53276333D01*
X21054619Y-53228714D01*
X21007000Y-53181095D01*
X20959381Y-53085857D01*
X20959381Y-52847761D01*
X21007000Y-52704904D01*
X20959381Y-52371571D02*
X21959381Y-52133476D01*
X21245095Y-51942999D01*
X21959381Y-51752523D01*
X20959381Y-51514428D01*
X21959381Y-50609666D02*
X21959381Y-51181095D01*
X21959381Y-50895381D02*
X20959381Y-50895381D01*
X21102238Y-50990619D01*
X21197476Y-51085857D01*
X21245095Y-51181095D01*
X21784762Y-58864333D02*
X21832381Y-58721476D01*
X21832381Y-58483380D01*
X21784762Y-58388142D01*
X21737143Y-58340523D01*
X21641905Y-58292904D01*
X21546667Y-58292904D01*
X21451429Y-58340523D01*
X21403810Y-58388142D01*
X21356190Y-58483380D01*
X21308571Y-58673857D01*
X21260952Y-58769095D01*
X21213333Y-58816714D01*
X21118095Y-58864333D01*
X21022857Y-58864333D01*
X20927619Y-58816714D01*
X20880000Y-58769095D01*
X20832381Y-58673857D01*
X20832381Y-58435761D01*
X20880000Y-58292904D01*
X20832381Y-57959571D02*
X21832381Y-57721476D01*
X21118095Y-57530999D01*
X21832381Y-57340523D01*
X20832381Y-57102428D01*
X20927619Y-56769095D02*
X20880000Y-56721476D01*
X20832381Y-56626238D01*
X20832381Y-56388142D01*
X20880000Y-56292904D01*
X20927619Y-56245285D01*
X21022857Y-56197666D01*
X21118095Y-56197666D01*
X21260952Y-56245285D01*
X21832381Y-56816714D01*
X21832381Y-56197666D01*
X21784762Y-64579333D02*
X21832381Y-64436476D01*
X21832381Y-64198380D01*
X21784762Y-64103142D01*
X21737143Y-64055523D01*
X21641905Y-64007904D01*
X21546667Y-64007904D01*
X21451429Y-64055523D01*
X21403810Y-64103142D01*
X21356190Y-64198380D01*
X21308571Y-64388857D01*
X21260952Y-64484095D01*
X21213333Y-64531714D01*
X21118095Y-64579333D01*
X21022857Y-64579333D01*
X20927619Y-64531714D01*
X20880000Y-64484095D01*
X20832381Y-64388857D01*
X20832381Y-64150761D01*
X20880000Y-64007904D01*
X20832381Y-63674571D02*
X21832381Y-63436476D01*
X21118095Y-63245999D01*
X21832381Y-63055523D01*
X20832381Y-62817428D01*
X20832381Y-62531714D02*
X20832381Y-61912666D01*
X21213333Y-62246000D01*
X21213333Y-62103142D01*
X21260952Y-62007904D01*
X21308571Y-61960285D01*
X21403810Y-61912666D01*
X21641905Y-61912666D01*
X21737143Y-61960285D01*
X21784762Y-62007904D01*
X21832381Y-62103142D01*
X21832381Y-62388857D01*
X21784762Y-62484095D01*
X21737143Y-62531714D01*
X21911762Y-48196333D02*
X21959381Y-48053476D01*
X21959381Y-47815380D01*
X21911762Y-47720142D01*
X21864143Y-47672523D01*
X21768905Y-47624904D01*
X21673667Y-47624904D01*
X21578429Y-47672523D01*
X21530810Y-47720142D01*
X21483190Y-47815380D01*
X21435571Y-48005857D01*
X21387952Y-48101095D01*
X21340333Y-48148714D01*
X21245095Y-48196333D01*
X21149857Y-48196333D01*
X21054619Y-48148714D01*
X21007000Y-48101095D01*
X20959381Y-48005857D01*
X20959381Y-47767761D01*
X21007000Y-47624904D01*
X20959381Y-47291571D02*
X21959381Y-47053476D01*
X21245095Y-46862999D01*
X21959381Y-46672523D01*
X20959381Y-46434428D01*
X21292714Y-45624904D02*
X21959381Y-45624904D01*
X20911762Y-45863000D02*
X21626048Y-46101095D01*
X21626048Y-45482047D01*
X39180381Y-37464905D02*
X39989905Y-37464905D01*
X40085143Y-37417286D01*
X40132762Y-37369667D01*
X40180381Y-37274429D01*
X40180381Y-37083952D01*
X40132762Y-36988714D01*
X40085143Y-36941095D01*
X39989905Y-36893476D01*
X39180381Y-36893476D01*
X39275619Y-36464905D02*
X39228000Y-36417286D01*
X39180381Y-36322048D01*
X39180381Y-36083952D01*
X39228000Y-35988714D01*
X39275619Y-35941095D01*
X39370857Y-35893476D01*
X39466095Y-35893476D01*
X39608952Y-35941095D01*
X40180381Y-36512524D01*
X40180381Y-35893476D01*
X44704095Y-81471381D02*
X44704095Y-82280905D01*
X44751714Y-82376143D01*
X44799333Y-82423762D01*
X44894571Y-82471381D01*
X45085048Y-82471381D01*
X45180286Y-82423762D01*
X45227905Y-82376143D01*
X45275524Y-82280905D01*
X45275524Y-81471381D01*
X45656476Y-81471381D02*
X46275524Y-81471381D01*
X45942190Y-81852333D01*
X46085048Y-81852333D01*
X46180286Y-81899952D01*
X46227905Y-81947571D01*
X46275524Y-82042810D01*
X46275524Y-82280905D01*
X46227905Y-82376143D01*
X46180286Y-82423762D01*
X46085048Y-82471381D01*
X45799333Y-82471381D01*
X45704095Y-82423762D01*
X45656476Y-82376143D01*
X29202143Y-49862381D02*
X28868809Y-49386190D01*
X28630714Y-49862381D02*
X28630714Y-48862381D01*
X29011667Y-48862381D01*
X29106905Y-48910000D01*
X29154524Y-48957619D01*
X29202143Y-49052857D01*
X29202143Y-49195714D01*
X29154524Y-49290952D01*
X29106905Y-49338571D01*
X29011667Y-49386190D01*
X28630714Y-49386190D01*
X30154524Y-49862381D02*
X29583095Y-49862381D01*
X29868809Y-49862381D02*
X29868809Y-48862381D01*
X29773571Y-49005238D01*
X29678333Y-49100476D01*
X29583095Y-49148095D01*
X30487857Y-48862381D02*
X31106905Y-48862381D01*
X30773571Y-49243333D01*
X30916429Y-49243333D01*
X31011667Y-49290952D01*
X31059286Y-49338571D01*
X31106905Y-49433810D01*
X31106905Y-49671905D01*
X31059286Y-49767143D01*
X31011667Y-49814762D01*
X30916429Y-49862381D01*
X30630714Y-49862381D01*
X30535476Y-49814762D01*
X30487857Y-49767143D01*
X29329143Y-55450381D02*
X28995809Y-54974190D01*
X28757714Y-55450381D02*
X28757714Y-54450381D01*
X29138667Y-54450381D01*
X29233905Y-54498000D01*
X29281524Y-54545619D01*
X29329143Y-54640857D01*
X29329143Y-54783714D01*
X29281524Y-54878952D01*
X29233905Y-54926571D01*
X29138667Y-54974190D01*
X28757714Y-54974190D01*
X30281524Y-55450381D02*
X29710095Y-55450381D01*
X29995809Y-55450381D02*
X29995809Y-54450381D01*
X29900571Y-54593238D01*
X29805333Y-54688476D01*
X29710095Y-54736095D01*
X31138667Y-54783714D02*
X31138667Y-55450381D01*
X30900571Y-54402762D02*
X30662476Y-55117048D01*
X31281524Y-55117048D01*
X29329143Y-60911381D02*
X28995809Y-60435190D01*
X28757714Y-60911381D02*
X28757714Y-59911381D01*
X29138667Y-59911381D01*
X29233905Y-59959000D01*
X29281524Y-60006619D01*
X29329143Y-60101857D01*
X29329143Y-60244714D01*
X29281524Y-60339952D01*
X29233905Y-60387571D01*
X29138667Y-60435190D01*
X28757714Y-60435190D01*
X30281524Y-60911381D02*
X29710095Y-60911381D01*
X29995809Y-60911381D02*
X29995809Y-59911381D01*
X29900571Y-60054238D01*
X29805333Y-60149476D01*
X29710095Y-60197095D01*
X31186286Y-59911381D02*
X30710095Y-59911381D01*
X30662476Y-60387571D01*
X30710095Y-60339952D01*
X30805333Y-60292333D01*
X31043429Y-60292333D01*
X31138667Y-60339952D01*
X31186286Y-60387571D01*
X31233905Y-60482810D01*
X31233905Y-60720905D01*
X31186286Y-60816143D01*
X31138667Y-60863762D01*
X31043429Y-60911381D01*
X30805333Y-60911381D01*
X30710095Y-60863762D01*
X30662476Y-60816143D01*
X29202143Y-44655381D02*
X28868809Y-44179190D01*
X28630714Y-44655381D02*
X28630714Y-43655381D01*
X29011667Y-43655381D01*
X29106905Y-43703000D01*
X29154524Y-43750619D01*
X29202143Y-43845857D01*
X29202143Y-43988714D01*
X29154524Y-44083952D01*
X29106905Y-44131571D01*
X29011667Y-44179190D01*
X28630714Y-44179190D01*
X30154524Y-44655381D02*
X29583095Y-44655381D01*
X29868809Y-44655381D02*
X29868809Y-43655381D01*
X29773571Y-43798238D01*
X29678333Y-43893476D01*
X29583095Y-43941095D01*
X31011667Y-43655381D02*
X30821190Y-43655381D01*
X30725952Y-43703000D01*
X30678333Y-43750619D01*
X30583095Y-43893476D01*
X30535476Y-44083952D01*
X30535476Y-44464905D01*
X30583095Y-44560143D01*
X30630714Y-44607762D01*
X30725952Y-44655381D01*
X30916429Y-44655381D01*
X31011667Y-44607762D01*
X31059286Y-44560143D01*
X31106905Y-44464905D01*
X31106905Y-44226810D01*
X31059286Y-44131571D01*
X31011667Y-44083952D01*
X30916429Y-44036333D01*
X30725952Y-44036333D01*
X30630714Y-44083952D01*
X30583095Y-44131571D01*
X30535476Y-44226810D01*
M02*
