G04 #@! TF.FileFunction,Other,User*
%FSLAX46Y46*%
G04 Gerber Fmt 4.6, Leading zero omitted, Abs format (unit mm)*
G04 Created by KiCad (PCBNEW 4.0.6) date Fri Jul 14 14:02:12 2017*
%MOMM*%
%LPD*%
G01*
G04 APERTURE LIST*
%ADD10C,0.100000*%
%ADD11C,0.050000*%
G04 APERTURE END LIST*
D10*
D11*
X19110000Y-82042000D02*
G75*
G03X19110000Y-82042000I-2600000J0D01*
G01*
X74863000Y-16510000D02*
G75*
G03X74863000Y-16510000I-2600000J0D01*
G01*
X18856000Y-16256000D02*
G75*
G03X18856000Y-16256000I-2600000J0D01*
G01*
X14964000Y-26438000D02*
X21114000Y-26438000D01*
X21114000Y-26438000D02*
X21114000Y-22838000D01*
X21114000Y-22838000D02*
X14964000Y-22838000D01*
X14964000Y-22838000D02*
X14964000Y-26438000D01*
X14710000Y-67161000D02*
X14710000Y-78361000D01*
X14710000Y-78361000D02*
X18310000Y-78361000D01*
X18310000Y-78361000D02*
X18310000Y-67161000D01*
X18310000Y-67161000D02*
X14710000Y-67161000D01*
X40110000Y-21866000D02*
X66560000Y-21866000D01*
X66560000Y-21866000D02*
X66560000Y-18266000D01*
X66560000Y-18266000D02*
X40110000Y-18266000D01*
X40110000Y-18266000D02*
X40110000Y-21866000D01*
X40237000Y-42313000D02*
X66687000Y-42313000D01*
X66687000Y-42313000D02*
X66687000Y-38713000D01*
X66687000Y-38713000D02*
X40237000Y-38713000D01*
X40237000Y-38713000D02*
X40237000Y-42313000D01*
X34058000Y-22838000D02*
X27908000Y-22838000D01*
X27908000Y-22838000D02*
X27908000Y-26438000D01*
X27908000Y-26438000D02*
X34058000Y-26438000D01*
X34058000Y-26438000D02*
X34058000Y-22838000D01*
X74317000Y-31728000D02*
X68167000Y-31728000D01*
X68167000Y-31728000D02*
X68167000Y-35328000D01*
X68167000Y-35328000D02*
X74317000Y-35328000D01*
X74317000Y-35328000D02*
X74317000Y-31728000D01*
X74571000Y-46968000D02*
X68421000Y-46968000D01*
X68421000Y-46968000D02*
X68421000Y-50568000D01*
X68421000Y-50568000D02*
X74571000Y-50568000D01*
X74571000Y-50568000D02*
X74571000Y-46968000D01*
X57195000Y-63085000D02*
X53295000Y-63085000D01*
X53295000Y-63085000D02*
X53295000Y-77885000D01*
X53295000Y-77885000D02*
X57195000Y-77885000D01*
X57195000Y-77885000D02*
X57195000Y-63085000D01*
X62529000Y-63085000D02*
X58629000Y-63085000D01*
X58629000Y-63085000D02*
X58629000Y-77885000D01*
X58629000Y-77885000D02*
X62529000Y-77885000D01*
X62529000Y-77885000D02*
X62529000Y-63085000D01*
X68244000Y-62958000D02*
X64344000Y-62958000D01*
X64344000Y-62958000D02*
X64344000Y-77758000D01*
X64344000Y-77758000D02*
X68244000Y-77758000D01*
X68244000Y-77758000D02*
X68244000Y-62958000D01*
X73832000Y-62831000D02*
X69932000Y-62831000D01*
X69932000Y-62831000D02*
X69932000Y-77631000D01*
X69932000Y-77631000D02*
X73832000Y-77631000D01*
X73832000Y-77631000D02*
X73832000Y-62831000D01*
X23080000Y-15195000D02*
X23080000Y-19095000D01*
X23080000Y-19095000D02*
X37880000Y-19095000D01*
X37880000Y-19095000D02*
X37880000Y-15195000D01*
X37880000Y-15195000D02*
X23080000Y-15195000D01*
X22572000Y-72218000D02*
X22572000Y-76118000D01*
X22572000Y-76118000D02*
X37372000Y-76118000D01*
X37372000Y-76118000D02*
X37372000Y-72218000D01*
X37372000Y-72218000D02*
X22572000Y-72218000D01*
X22572000Y-77298000D02*
X22572000Y-81198000D01*
X22572000Y-81198000D02*
X37372000Y-81198000D01*
X37372000Y-81198000D02*
X37372000Y-77298000D01*
X37372000Y-77298000D02*
X22572000Y-77298000D01*
X22572000Y-67138000D02*
X22572000Y-71038000D01*
X22572000Y-71038000D02*
X37372000Y-71038000D01*
X37372000Y-71038000D02*
X37372000Y-67138000D01*
X37372000Y-67138000D02*
X22572000Y-67138000D01*
X69004000Y-23030000D02*
X69004000Y-30230000D01*
X69004000Y-30230000D02*
X73854000Y-30230000D01*
X73854000Y-30230000D02*
X73854000Y-23030000D01*
X73854000Y-23030000D02*
X69004000Y-23030000D01*
X69131000Y-37635000D02*
X69131000Y-44835000D01*
X69131000Y-44835000D02*
X73981000Y-44835000D01*
X73981000Y-44835000D02*
X73981000Y-37635000D01*
X73981000Y-37635000D02*
X69131000Y-37635000D01*
X53572000Y-52937000D02*
X53572000Y-61587000D01*
X53572000Y-61587000D02*
X57172000Y-61587000D01*
X57172000Y-61587000D02*
X57172000Y-52937000D01*
X57172000Y-52937000D02*
X53572000Y-52937000D01*
X58779000Y-52937000D02*
X58779000Y-61587000D01*
X58779000Y-61587000D02*
X62379000Y-61587000D01*
X62379000Y-61587000D02*
X62379000Y-52937000D01*
X62379000Y-52937000D02*
X58779000Y-52937000D01*
X64494000Y-52937000D02*
X64494000Y-61587000D01*
X64494000Y-61587000D02*
X68094000Y-61587000D01*
X68094000Y-61587000D02*
X68094000Y-52937000D01*
X68094000Y-52937000D02*
X64494000Y-52937000D01*
X70209000Y-52937000D02*
X70209000Y-61587000D01*
X70209000Y-61587000D02*
X73809000Y-61587000D01*
X73809000Y-61587000D02*
X73809000Y-52937000D01*
X73809000Y-52937000D02*
X70209000Y-52937000D01*
X20977000Y-50143000D02*
X14827000Y-50143000D01*
X14827000Y-50143000D02*
X14827000Y-53743000D01*
X14827000Y-53743000D02*
X20977000Y-53743000D01*
X20977000Y-53743000D02*
X20977000Y-50143000D01*
X20850000Y-55731000D02*
X14700000Y-55731000D01*
X14700000Y-55731000D02*
X14700000Y-59331000D01*
X14700000Y-59331000D02*
X20850000Y-59331000D01*
X20850000Y-59331000D02*
X20850000Y-55731000D01*
X20850000Y-61446000D02*
X14700000Y-61446000D01*
X14700000Y-61446000D02*
X14700000Y-65046000D01*
X14700000Y-65046000D02*
X20850000Y-65046000D01*
X20850000Y-65046000D02*
X20850000Y-61446000D01*
X20977000Y-45063000D02*
X14827000Y-45063000D01*
X14827000Y-45063000D02*
X14827000Y-48663000D01*
X14827000Y-48663000D02*
X20977000Y-48663000D01*
X20977000Y-48663000D02*
X20977000Y-45063000D01*
X39038000Y-31193000D02*
X17838000Y-31193000D01*
X17838000Y-31193000D02*
X17838000Y-42193000D01*
X17838000Y-42193000D02*
X39038000Y-42193000D01*
X39038000Y-42193000D02*
X39038000Y-31193000D01*
X50976000Y-81329000D02*
X50976000Y-44929000D01*
X50976000Y-44929000D02*
X39976000Y-44929000D01*
X39976000Y-44929000D02*
X39976000Y-81329000D01*
X39976000Y-81329000D02*
X50976000Y-81329000D01*
X22445000Y-50120000D02*
X22445000Y-54020000D01*
X22445000Y-54020000D02*
X37245000Y-54020000D01*
X37245000Y-54020000D02*
X37245000Y-50120000D01*
X37245000Y-50120000D02*
X22445000Y-50120000D01*
X22572000Y-55708000D02*
X22572000Y-59608000D01*
X22572000Y-59608000D02*
X37372000Y-59608000D01*
X37372000Y-59608000D02*
X37372000Y-55708000D01*
X37372000Y-55708000D02*
X22572000Y-55708000D01*
X22572000Y-61169000D02*
X22572000Y-65069000D01*
X22572000Y-65069000D02*
X37372000Y-65069000D01*
X37372000Y-65069000D02*
X37372000Y-61169000D01*
X37372000Y-61169000D02*
X22572000Y-61169000D01*
X22445000Y-44913000D02*
X22445000Y-48813000D01*
X22445000Y-48813000D02*
X37245000Y-48813000D01*
X37245000Y-48813000D02*
X37245000Y-44913000D01*
X37245000Y-44913000D02*
X22445000Y-44913000D01*
X74863000Y-81915000D02*
G75*
G03X74863000Y-81915000I-2600000J0D01*
G01*
M02*
