%FSLAX45Y45*%
G04 Gerber Fmt 4.5, Leading zero omitted, Abs format (unit mm)*
G04 Created by KiCad (PCBNEW 4.0.6) date Fri Jul 14 14:02:17 2017*
%MOMM*%
%LPD*%
G01*
G04 APERTURE LIST*
%ADD10C,0.127000*%
%ADD11C,0.100000*%
%ADD12C,0.200000*%
%ADD13C,0.300000*%
G04 APERTURE END LIST*
D10*
D11*
X1270000Y-8572500D02*
X1270000Y-1244600D01*
X7607300Y-8572500D02*
X1270000Y-8572500D01*
X7607300Y-1257300D02*
X7607300Y-8572500D01*
X1282700Y-1257300D02*
X7607300Y-1257300D01*
D12*
X2443800Y-2875600D02*
X2483800Y-2915600D01*
X2483800Y-2875600D02*
X2443800Y-2915600D01*
X5174300Y-3282000D02*
X5214300Y-3322000D01*
X5214300Y-3282000D02*
X5174300Y-3322000D01*
X1995800Y-3289300D02*
G75*
G03X1995800Y-3289300I-40000J0D01*
G01*
X1995800Y-4051300D02*
G75*
G03X1995800Y-4051300I-40000J0D01*
G01*
X2249800Y-3289300D02*
G75*
G03X2249800Y-3289300I-40000J0D01*
G01*
X2249800Y-4051300D02*
G75*
G03X2249800Y-4051300I-40000J0D01*
G01*
X2389500Y-4686300D02*
G75*
G03X2389500Y-4686300I-40000J0D01*
G01*
X2389500Y-5207000D02*
G75*
G03X2389500Y-5207000I-40000J0D01*
G01*
X2402200Y-5765800D02*
G75*
G03X2402200Y-5765800I-40000J0D01*
G01*
X2402200Y-6311900D02*
G75*
G03X2402200Y-6311900I-40000J0D01*
G01*
X2402200Y-6908800D02*
G75*
G03X2402200Y-6908800I-40000J0D01*
G01*
X2402200Y-7416800D02*
G75*
G03X2402200Y-7416800I-40000J0D01*
G01*
X2402200Y-7924800D02*
G75*
G03X2402200Y-7924800I-40000J0D01*
G01*
X2453000Y-1714500D02*
G75*
G03X2453000Y-1714500I-40000J0D01*
G01*
X2503800Y-3289300D02*
G75*
G03X2503800Y-3289300I-40000J0D01*
G01*
X2503800Y-4051300D02*
G75*
G03X2503800Y-4051300I-40000J0D01*
G01*
X2757800Y-3289300D02*
G75*
G03X2757800Y-3289300I-40000J0D01*
G01*
X2757800Y-4051300D02*
G75*
G03X2757800Y-4051300I-40000J0D01*
G01*
X3011800Y-3289300D02*
G75*
G03X3011800Y-3289300I-40000J0D01*
G01*
X3011800Y-4051300D02*
G75*
G03X3011800Y-4051300I-40000J0D01*
G01*
X3265800Y-3289300D02*
G75*
G03X3265800Y-3289300I-40000J0D01*
G01*
X3265800Y-4051300D02*
G75*
G03X3265800Y-4051300I-40000J0D01*
G01*
X3519800Y-3289300D02*
G75*
G03X3519800Y-3289300I-40000J0D01*
G01*
X3519800Y-4051300D02*
G75*
G03X3519800Y-4051300I-40000J0D01*
G01*
X3659500Y-4686300D02*
G75*
G03X3659500Y-4686300I-40000J0D01*
G01*
X3659500Y-5207000D02*
G75*
G03X3659500Y-5207000I-40000J0D01*
G01*
X3672200Y-5765800D02*
G75*
G03X3672200Y-5765800I-40000J0D01*
G01*
X3672200Y-6311900D02*
G75*
G03X3672200Y-6311900I-40000J0D01*
G01*
X3672200Y-6908800D02*
G75*
G03X3672200Y-6908800I-40000J0D01*
G01*
X3672200Y-7416800D02*
G75*
G03X3672200Y-7416800I-40000J0D01*
G01*
X3672200Y-7924800D02*
G75*
G03X3672200Y-7924800I-40000J0D01*
G01*
X3723000Y-1714500D02*
G75*
G03X3723000Y-1714500I-40000J0D01*
G01*
X3773800Y-3289300D02*
G75*
G03X3773800Y-3289300I-40000J0D01*
G01*
X3773800Y-4051300D02*
G75*
G03X3773800Y-4051300I-40000J0D01*
G01*
X4205600Y-4660900D02*
G75*
G03X4205600Y-4660900I-40000J0D01*
G01*
X4205600Y-4914900D02*
G75*
G03X4205600Y-4914900I-40000J0D01*
G01*
X4205600Y-5168900D02*
G75*
G03X4205600Y-5168900I-40000J0D01*
G01*
X4205600Y-5422900D02*
G75*
G03X4205600Y-5422900I-40000J0D01*
G01*
X4205600Y-5676900D02*
G75*
G03X4205600Y-5676900I-40000J0D01*
G01*
X4205600Y-5930900D02*
G75*
G03X4205600Y-5930900I-40000J0D01*
G01*
X4205600Y-6184900D02*
G75*
G03X4205600Y-6184900I-40000J0D01*
G01*
X4205600Y-6438900D02*
G75*
G03X4205600Y-6438900I-40000J0D01*
G01*
X4205600Y-6692900D02*
G75*
G03X4205600Y-6692900I-40000J0D01*
G01*
X4205600Y-6946900D02*
G75*
G03X4205600Y-6946900I-40000J0D01*
G01*
X4205600Y-7200900D02*
G75*
G03X4205600Y-7200900I-40000J0D01*
G01*
X4205600Y-7454900D02*
G75*
G03X4205600Y-7454900I-40000J0D01*
G01*
X4205600Y-7708900D02*
G75*
G03X4205600Y-7708900I-40000J0D01*
G01*
X4205600Y-7962900D02*
G75*
G03X4205600Y-7962900I-40000J0D01*
G01*
X4967600Y-4660900D02*
G75*
G03X4967600Y-4660900I-40000J0D01*
G01*
X4967600Y-4914900D02*
G75*
G03X4967600Y-4914900I-40000J0D01*
G01*
X4967600Y-5168900D02*
G75*
G03X4967600Y-5168900I-40000J0D01*
G01*
X4967600Y-5422900D02*
G75*
G03X4967600Y-5422900I-40000J0D01*
G01*
X4967600Y-5676900D02*
G75*
G03X4967600Y-5676900I-40000J0D01*
G01*
X4967600Y-5930900D02*
G75*
G03X4967600Y-5930900I-40000J0D01*
G01*
X4967600Y-6184900D02*
G75*
G03X4967600Y-6184900I-40000J0D01*
G01*
X4967600Y-6438900D02*
G75*
G03X4967600Y-6438900I-40000J0D01*
G01*
X4967600Y-6692900D02*
G75*
G03X4967600Y-6692900I-40000J0D01*
G01*
X4967600Y-6946900D02*
G75*
G03X4967600Y-6946900I-40000J0D01*
G01*
X4967600Y-7200900D02*
G75*
G03X4967600Y-7200900I-40000J0D01*
G01*
X4967600Y-7454900D02*
G75*
G03X4967600Y-7454900I-40000J0D01*
G01*
X4967600Y-7708900D02*
G75*
G03X4967600Y-7708900I-40000J0D01*
G01*
X4967600Y-7962900D02*
G75*
G03X4967600Y-7962900I-40000J0D01*
G01*
X5564500Y-6413500D02*
G75*
G03X5564500Y-6413500I-40000J0D01*
G01*
X5564500Y-7683500D02*
G75*
G03X5564500Y-7683500I-40000J0D01*
G01*
X6097900Y-6413500D02*
G75*
G03X6097900Y-6413500I-40000J0D01*
G01*
X6097900Y-7683500D02*
G75*
G03X6097900Y-7683500I-40000J0D01*
G01*
X6669400Y-6400800D02*
G75*
G03X6669400Y-6400800I-40000J0D01*
G01*
X6669400Y-7670800D02*
G75*
G03X6669400Y-7670800I-40000J0D01*
G01*
X7228200Y-6388100D02*
G75*
G03X7228200Y-6388100I-40000J0D01*
G01*
X7228200Y-7658100D02*
G75*
G03X7228200Y-7658100I-40000J0D01*
G01*
X7010400Y-2368000D02*
X7010400Y-2458000D01*
X6965400Y-2413000D02*
X7055400Y-2413000D01*
X7010400Y-2868000D02*
X7010400Y-2958000D01*
X6965400Y-2913000D02*
X7055400Y-2913000D01*
X7023100Y-3828500D02*
X7023100Y-3918500D01*
X6978100Y-3873500D02*
X7068100Y-3873500D01*
X7023100Y-4328500D02*
X7023100Y-4418500D01*
X6978100Y-4373500D02*
X7068100Y-4373500D01*
X7260400Y-2618000D02*
X7260400Y-2708000D01*
X7215400Y-2663000D02*
X7305400Y-2663000D01*
X7273100Y-4078500D02*
X7273100Y-4168500D01*
X7228100Y-4123500D02*
X7318100Y-4123500D01*
X1686356Y-5788456D02*
X1686356Y-5717744D01*
X1615644Y-5717744D01*
X1615644Y-5788456D01*
X1686356Y-5788456D01*
X1686356Y-6359956D02*
X1686356Y-6289244D01*
X1615644Y-6289244D01*
X1615644Y-6359956D01*
X1686356Y-6359956D01*
X1686356Y-6931456D02*
X1686356Y-6860744D01*
X1615644Y-6860744D01*
X1615644Y-6931456D01*
X1686356Y-6931456D01*
X1686356Y-7185456D02*
X1686356Y-7114744D01*
X1615644Y-7114744D01*
X1615644Y-7185456D01*
X1686356Y-7185456D01*
X1686356Y-7439456D02*
X1686356Y-7368744D01*
X1615644Y-7368744D01*
X1615644Y-7439456D01*
X1686356Y-7439456D01*
X1686356Y-7693456D02*
X1686356Y-7622744D01*
X1615644Y-7622744D01*
X1615644Y-7693456D01*
X1686356Y-7693456D01*
X1699056Y-4721656D02*
X1699056Y-4650944D01*
X1628344Y-4650944D01*
X1628344Y-4721656D01*
X1699056Y-4721656D01*
X1699056Y-5229656D02*
X1699056Y-5158944D01*
X1628344Y-5158944D01*
X1628344Y-5229656D01*
X1699056Y-5229656D01*
X1711756Y-2499156D02*
X1711756Y-2428444D01*
X1641044Y-2428444D01*
X1641044Y-2499156D01*
X1711756Y-2499156D01*
X1940356Y-5788456D02*
X1940356Y-5717744D01*
X1869644Y-5717744D01*
X1869644Y-5788456D01*
X1940356Y-5788456D01*
X1940356Y-6359956D02*
X1940356Y-6289244D01*
X1869644Y-6289244D01*
X1869644Y-6359956D01*
X1940356Y-6359956D01*
X1953056Y-4721656D02*
X1953056Y-4650944D01*
X1882344Y-4650944D01*
X1882344Y-4721656D01*
X1953056Y-4721656D01*
X1953056Y-5229656D02*
X1953056Y-5158944D01*
X1882344Y-5158944D01*
X1882344Y-5229656D01*
X1953056Y-5229656D01*
X1965756Y-2499156D02*
X1965756Y-2428444D01*
X1895044Y-2428444D01*
X1895044Y-2499156D01*
X1965756Y-2499156D01*
X3007156Y-2499156D02*
X3007156Y-2428444D01*
X2936444Y-2428444D01*
X2936444Y-2499156D01*
X3007156Y-2499156D01*
X3261156Y-2499156D02*
X3261156Y-2428444D01*
X3190444Y-2428444D01*
X3190444Y-2499156D01*
X3261156Y-2499156D01*
X4226356Y-2041956D02*
X4226356Y-1971244D01*
X4155644Y-1971244D01*
X4155644Y-2041956D01*
X4226356Y-2041956D01*
X4239056Y-4086656D02*
X4239056Y-4015944D01*
X4168344Y-4015944D01*
X4168344Y-4086656D01*
X4239056Y-4086656D01*
X4480356Y-2041956D02*
X4480356Y-1971244D01*
X4409644Y-1971244D01*
X4409644Y-2041956D01*
X4480356Y-2041956D01*
X4493056Y-4086656D02*
X4493056Y-4015944D01*
X4422344Y-4015944D01*
X4422344Y-4086656D01*
X4493056Y-4086656D01*
X4734356Y-2041956D02*
X4734356Y-1971244D01*
X4663644Y-1971244D01*
X4663644Y-2041956D01*
X4734356Y-2041956D01*
X4747056Y-4086656D02*
X4747056Y-4015944D01*
X4676344Y-4015944D01*
X4676344Y-4086656D01*
X4747056Y-4086656D01*
X4988356Y-2041956D02*
X4988356Y-1971244D01*
X4917644Y-1971244D01*
X4917644Y-2041956D01*
X4988356Y-2041956D01*
X5001056Y-4086656D02*
X5001056Y-4015944D01*
X4930344Y-4015944D01*
X4930344Y-4086656D01*
X5001056Y-4086656D01*
X5242356Y-2041956D02*
X5242356Y-1971244D01*
X5171644Y-1971244D01*
X5171644Y-2041956D01*
X5242356Y-2041956D01*
X5255056Y-4086656D02*
X5255056Y-4015944D01*
X5184344Y-4015944D01*
X5184344Y-4086656D01*
X5255056Y-4086656D01*
X5496356Y-2041956D02*
X5496356Y-1971244D01*
X5425644Y-1971244D01*
X5425644Y-2041956D01*
X5496356Y-2041956D01*
X5509056Y-4086656D02*
X5509056Y-4015944D01*
X5438344Y-4015944D01*
X5438344Y-4086656D01*
X5509056Y-4086656D01*
X5572556Y-5509056D02*
X5572556Y-5438344D01*
X5501844Y-5438344D01*
X5501844Y-5509056D01*
X5572556Y-5509056D01*
X5572556Y-5763056D02*
X5572556Y-5692344D01*
X5501844Y-5692344D01*
X5501844Y-5763056D01*
X5572556Y-5763056D01*
X5572556Y-6017056D02*
X5572556Y-5946344D01*
X5501844Y-5946344D01*
X5501844Y-6017056D01*
X5572556Y-6017056D01*
X5750356Y-2041956D02*
X5750356Y-1971244D01*
X5679644Y-1971244D01*
X5679644Y-2041956D01*
X5750356Y-2041956D01*
X5763056Y-4086656D02*
X5763056Y-4015944D01*
X5692344Y-4015944D01*
X5692344Y-4086656D01*
X5763056Y-4086656D01*
X6004356Y-2041956D02*
X6004356Y-1971244D01*
X5933644Y-1971244D01*
X5933644Y-2041956D01*
X6004356Y-2041956D01*
X6017056Y-4086656D02*
X6017056Y-4015944D01*
X5946344Y-4015944D01*
X5946344Y-4086656D01*
X6017056Y-4086656D01*
X6093256Y-5509056D02*
X6093256Y-5438344D01*
X6022544Y-5438344D01*
X6022544Y-5509056D01*
X6093256Y-5509056D01*
X6093256Y-5763056D02*
X6093256Y-5692344D01*
X6022544Y-5692344D01*
X6022544Y-5763056D01*
X6093256Y-5763056D01*
X6093256Y-6017056D02*
X6093256Y-5946344D01*
X6022544Y-5946344D01*
X6022544Y-6017056D01*
X6093256Y-6017056D01*
X6258356Y-2041956D02*
X6258356Y-1971244D01*
X6187644Y-1971244D01*
X6187644Y-2041956D01*
X6258356Y-2041956D01*
X6271056Y-4086656D02*
X6271056Y-4015944D01*
X6200344Y-4015944D01*
X6200344Y-4086656D01*
X6271056Y-4086656D01*
X6512356Y-2041956D02*
X6512356Y-1971244D01*
X6441644Y-1971244D01*
X6441644Y-2041956D01*
X6512356Y-2041956D01*
X6525056Y-4086656D02*
X6525056Y-4015944D01*
X6454344Y-4015944D01*
X6454344Y-4086656D01*
X6525056Y-4086656D01*
X6664756Y-5509056D02*
X6664756Y-5438344D01*
X6594044Y-5438344D01*
X6594044Y-5509056D01*
X6664756Y-5509056D01*
X6664756Y-5763056D02*
X6664756Y-5692344D01*
X6594044Y-5692344D01*
X6594044Y-5763056D01*
X6664756Y-5763056D01*
X6664756Y-6017056D02*
X6664756Y-5946344D01*
X6594044Y-5946344D01*
X6594044Y-6017056D01*
X6664756Y-6017056D01*
X7033056Y-3388156D02*
X7033056Y-3317444D01*
X6962344Y-3317444D01*
X6962344Y-3388156D01*
X7033056Y-3388156D01*
X7058456Y-4912156D02*
X7058456Y-4841444D01*
X6987744Y-4841444D01*
X6987744Y-4912156D01*
X7058456Y-4912156D01*
X7236256Y-5509056D02*
X7236256Y-5438344D01*
X7165544Y-5438344D01*
X7165544Y-5509056D01*
X7236256Y-5509056D01*
X7236256Y-5763056D02*
X7236256Y-5692344D01*
X7165544Y-5692344D01*
X7165544Y-5763056D01*
X7236256Y-5763056D01*
X7236256Y-6017056D02*
X7236256Y-5946344D01*
X7165544Y-5946344D01*
X7165544Y-6017056D01*
X7236256Y-6017056D01*
X7287056Y-3388156D02*
X7287056Y-3317444D01*
X7216344Y-3317444D01*
X7216344Y-3388156D01*
X7287056Y-3388156D01*
X7312456Y-4912156D02*
X7312456Y-4841444D01*
X7241744Y-4841444D01*
X7241744Y-4912156D01*
X7312456Y-4912156D01*
X1625600Y-1785600D02*
X1785600Y-1625600D01*
X1625600Y-1465600D01*
X1465600Y-1625600D01*
X1625600Y-1785600D01*
X1651000Y-8364200D02*
X1811000Y-8204200D01*
X1651000Y-8044200D01*
X1491000Y-8204200D01*
X1651000Y-8364200D01*
X7226300Y-1811000D02*
X7386300Y-1651000D01*
X7226300Y-1491000D01*
X7066300Y-1651000D01*
X7226300Y-1811000D01*
X7226300Y-8351500D02*
X7386300Y-8191500D01*
X7226300Y-8031500D01*
X7066300Y-8191500D01*
X7226300Y-8351500D01*
D13*
X1536428Y-9043214D02*
X1536428Y-8743214D01*
X1607857Y-8743214D01*
X1650714Y-8757500D01*
X1679286Y-8786072D01*
X1693571Y-8814643D01*
X1707857Y-8871786D01*
X1707857Y-8914643D01*
X1693571Y-8971786D01*
X1679286Y-9000357D01*
X1650714Y-9028929D01*
X1607857Y-9043214D01*
X1536428Y-9043214D01*
X1836428Y-9043214D02*
X1836428Y-8843214D01*
X1836428Y-8900357D02*
X1850714Y-8871786D01*
X1865000Y-8857500D01*
X1893571Y-8843214D01*
X1922143Y-8843214D01*
X2022143Y-9043214D02*
X2022143Y-8843214D01*
X2022143Y-8743214D02*
X2007857Y-8757500D01*
X2022143Y-8771786D01*
X2036428Y-8757500D01*
X2022143Y-8743214D01*
X2022143Y-8771786D01*
X2207857Y-9043214D02*
X2179286Y-9028929D01*
X2165000Y-9000357D01*
X2165000Y-8743214D01*
X2365000Y-9043214D02*
X2336429Y-9028929D01*
X2322143Y-9000357D01*
X2322143Y-8743214D01*
X2707857Y-9043214D02*
X2707857Y-8743214D01*
X2807857Y-8957500D01*
X2907857Y-8743214D01*
X2907857Y-9043214D01*
X3179286Y-9043214D02*
X3179286Y-8886072D01*
X3165000Y-8857500D01*
X3136428Y-8843214D01*
X3079286Y-8843214D01*
X3050714Y-8857500D01*
X3179286Y-9028929D02*
X3150714Y-9043214D01*
X3079286Y-9043214D01*
X3050714Y-9028929D01*
X3036428Y-9000357D01*
X3036428Y-8971786D01*
X3050714Y-8943214D01*
X3079286Y-8928929D01*
X3150714Y-8928929D01*
X3179286Y-8914643D01*
X3322143Y-8843214D02*
X3322143Y-9143214D01*
X3322143Y-8857500D02*
X3350714Y-8843214D01*
X3407857Y-8843214D01*
X3436428Y-8857500D01*
X3450714Y-8871786D01*
X3465000Y-8900357D01*
X3465000Y-8986072D01*
X3450714Y-9014643D01*
X3436428Y-9028929D01*
X3407857Y-9043214D01*
X3350714Y-9043214D01*
X3322143Y-9028929D01*
X3593571Y-9014643D02*
X3607857Y-9028929D01*
X3593571Y-9043214D01*
X3579286Y-9028929D01*
X3593571Y-9014643D01*
X3593571Y-9043214D01*
X3593571Y-8857500D02*
X3607857Y-8871786D01*
X3593571Y-8886072D01*
X3579286Y-8871786D01*
X3593571Y-8857500D01*
X3593571Y-8886072D01*
X1225000Y-9517500D02*
X1265000Y-9557500D01*
X1265000Y-9517500D02*
X1225000Y-9557500D01*
X1593571Y-9373214D02*
X1622143Y-9373214D01*
X1650714Y-9387500D01*
X1665000Y-9401786D01*
X1679286Y-9430357D01*
X1693571Y-9487500D01*
X1693571Y-9558929D01*
X1679286Y-9616072D01*
X1665000Y-9644643D01*
X1650714Y-9658929D01*
X1622143Y-9673214D01*
X1593571Y-9673214D01*
X1565000Y-9658929D01*
X1550714Y-9644643D01*
X1536428Y-9616072D01*
X1522143Y-9558929D01*
X1522143Y-9487500D01*
X1536428Y-9430357D01*
X1550714Y-9401786D01*
X1565000Y-9387500D01*
X1593571Y-9373214D01*
X1822143Y-9644643D02*
X1836428Y-9658929D01*
X1822143Y-9673214D01*
X1807857Y-9658929D01*
X1822143Y-9644643D01*
X1822143Y-9673214D01*
X2093571Y-9473214D02*
X2093571Y-9673214D01*
X2022143Y-9358929D02*
X1950714Y-9573214D01*
X2136428Y-9573214D01*
X2307857Y-9373214D02*
X2336429Y-9373214D01*
X2365000Y-9387500D01*
X2379286Y-9401786D01*
X2393571Y-9430357D01*
X2407857Y-9487500D01*
X2407857Y-9558929D01*
X2393571Y-9616072D01*
X2379286Y-9644643D01*
X2365000Y-9658929D01*
X2336429Y-9673214D01*
X2307857Y-9673214D01*
X2279286Y-9658929D01*
X2265000Y-9644643D01*
X2250714Y-9616072D01*
X2236429Y-9558929D01*
X2236429Y-9487500D01*
X2250714Y-9430357D01*
X2265000Y-9401786D01*
X2279286Y-9387500D01*
X2307857Y-9373214D01*
X2536429Y-9673214D02*
X2536429Y-9473214D01*
X2536429Y-9501786D02*
X2550714Y-9487500D01*
X2579286Y-9473214D01*
X2622143Y-9473214D01*
X2650714Y-9487500D01*
X2665000Y-9516072D01*
X2665000Y-9673214D01*
X2665000Y-9516072D02*
X2679286Y-9487500D01*
X2707857Y-9473214D01*
X2750714Y-9473214D01*
X2779286Y-9487500D01*
X2793571Y-9516072D01*
X2793571Y-9673214D01*
X2936428Y-9673214D02*
X2936428Y-9473214D01*
X2936428Y-9501786D02*
X2950714Y-9487500D01*
X2979286Y-9473214D01*
X3022143Y-9473214D01*
X3050714Y-9487500D01*
X3065000Y-9516072D01*
X3065000Y-9673214D01*
X3065000Y-9516072D02*
X3079286Y-9487500D01*
X3107857Y-9473214D01*
X3150714Y-9473214D01*
X3179286Y-9487500D01*
X3193571Y-9516072D01*
X3193571Y-9673214D01*
X3779286Y-9358929D02*
X3522143Y-9744643D01*
X4165000Y-9373214D02*
X4193571Y-9373214D01*
X4222143Y-9387500D01*
X4236428Y-9401786D01*
X4250714Y-9430357D01*
X4265000Y-9487500D01*
X4265000Y-9558929D01*
X4250714Y-9616072D01*
X4236428Y-9644643D01*
X4222143Y-9658929D01*
X4193571Y-9673214D01*
X4165000Y-9673214D01*
X4136428Y-9658929D01*
X4122143Y-9644643D01*
X4107857Y-9616072D01*
X4093571Y-9558929D01*
X4093571Y-9487500D01*
X4107857Y-9430357D01*
X4122143Y-9401786D01*
X4136428Y-9387500D01*
X4165000Y-9373214D01*
X4393571Y-9644643D02*
X4407857Y-9658929D01*
X4393571Y-9673214D01*
X4379286Y-9658929D01*
X4393571Y-9644643D01*
X4393571Y-9673214D01*
X4593571Y-9373214D02*
X4622143Y-9373214D01*
X4650714Y-9387500D01*
X4665000Y-9401786D01*
X4679286Y-9430357D01*
X4693571Y-9487500D01*
X4693571Y-9558929D01*
X4679286Y-9616072D01*
X4665000Y-9644643D01*
X4650714Y-9658929D01*
X4622143Y-9673214D01*
X4593571Y-9673214D01*
X4565000Y-9658929D01*
X4550714Y-9644643D01*
X4536428Y-9616072D01*
X4522143Y-9558929D01*
X4522143Y-9487500D01*
X4536428Y-9430357D01*
X4550714Y-9401786D01*
X4565000Y-9387500D01*
X4593571Y-9373214D01*
X4979286Y-9673214D02*
X4807857Y-9673214D01*
X4893571Y-9673214D02*
X4893571Y-9373214D01*
X4865000Y-9416072D01*
X4836428Y-9444643D01*
X4807857Y-9458929D01*
X5236428Y-9373214D02*
X5179286Y-9373214D01*
X5150714Y-9387500D01*
X5136428Y-9401786D01*
X5107857Y-9444643D01*
X5093571Y-9501786D01*
X5093571Y-9616072D01*
X5107857Y-9644643D01*
X5122143Y-9658929D01*
X5150714Y-9673214D01*
X5207857Y-9673214D01*
X5236428Y-9658929D01*
X5250714Y-9644643D01*
X5265000Y-9616072D01*
X5265000Y-9544643D01*
X5250714Y-9516072D01*
X5236428Y-9501786D01*
X5207857Y-9487500D01*
X5150714Y-9487500D01*
X5122143Y-9501786D01*
X5107857Y-9516072D01*
X5093571Y-9544643D01*
X5379286Y-9373214D02*
X5379286Y-9430357D01*
X5493571Y-9373214D02*
X5493571Y-9430357D01*
X5936428Y-9787500D02*
X5922143Y-9773214D01*
X5893571Y-9730357D01*
X5879285Y-9701786D01*
X5865000Y-9658929D01*
X5850714Y-9587500D01*
X5850714Y-9530357D01*
X5865000Y-9458929D01*
X5879285Y-9416072D01*
X5893571Y-9387500D01*
X5922143Y-9344643D01*
X5936428Y-9330357D01*
X6036428Y-9401786D02*
X6050714Y-9387500D01*
X6079285Y-9373214D01*
X6150714Y-9373214D01*
X6179285Y-9387500D01*
X6193571Y-9401786D01*
X6207857Y-9430357D01*
X6207857Y-9458929D01*
X6193571Y-9501786D01*
X6022143Y-9673214D01*
X6207857Y-9673214D01*
X6565000Y-9673214D02*
X6565000Y-9373214D01*
X6693571Y-9673214D02*
X6693571Y-9516072D01*
X6679285Y-9487500D01*
X6650714Y-9473214D01*
X6607857Y-9473214D01*
X6579285Y-9487500D01*
X6565000Y-9501786D01*
X6879285Y-9673214D02*
X6850714Y-9658929D01*
X6836428Y-9644643D01*
X6822143Y-9616072D01*
X6822143Y-9530357D01*
X6836428Y-9501786D01*
X6850714Y-9487500D01*
X6879285Y-9473214D01*
X6922143Y-9473214D01*
X6950714Y-9487500D01*
X6965000Y-9501786D01*
X6979285Y-9530357D01*
X6979285Y-9616072D01*
X6965000Y-9644643D01*
X6950714Y-9658929D01*
X6922143Y-9673214D01*
X6879285Y-9673214D01*
X7150714Y-9673214D02*
X7122143Y-9658929D01*
X7107857Y-9630357D01*
X7107857Y-9373214D01*
X7379286Y-9658929D02*
X7350714Y-9673214D01*
X7293571Y-9673214D01*
X7265000Y-9658929D01*
X7250714Y-9630357D01*
X7250714Y-9516072D01*
X7265000Y-9487500D01*
X7293571Y-9473214D01*
X7350714Y-9473214D01*
X7379286Y-9487500D01*
X7393571Y-9516072D01*
X7393571Y-9544643D01*
X7250714Y-9573214D01*
X7507857Y-9658929D02*
X7536428Y-9673214D01*
X7593571Y-9673214D01*
X7622143Y-9658929D01*
X7636428Y-9630357D01*
X7636428Y-9616072D01*
X7622143Y-9587500D01*
X7593571Y-9573214D01*
X7550714Y-9573214D01*
X7522143Y-9558929D01*
X7507857Y-9530357D01*
X7507857Y-9516072D01*
X7522143Y-9487500D01*
X7550714Y-9473214D01*
X7593571Y-9473214D01*
X7622143Y-9487500D01*
X7736428Y-9787500D02*
X7750714Y-9773214D01*
X7779286Y-9730357D01*
X7793571Y-9701786D01*
X7807857Y-9658929D01*
X7822143Y-9587500D01*
X7822143Y-9530357D01*
X7807857Y-9458929D01*
X7793571Y-9416072D01*
X7779286Y-9387500D01*
X7750714Y-9344643D01*
X7736428Y-9330357D01*
X1265000Y-9933500D02*
G75*
G03X1265000Y-9933500I-40000J0D01*
G01*
X1593571Y-9769214D02*
X1622143Y-9769214D01*
X1650714Y-9783500D01*
X1665000Y-9797786D01*
X1679286Y-9826357D01*
X1693571Y-9883500D01*
X1693571Y-9954929D01*
X1679286Y-10012072D01*
X1665000Y-10040643D01*
X1650714Y-10054929D01*
X1622143Y-10069214D01*
X1593571Y-10069214D01*
X1565000Y-10054929D01*
X1550714Y-10040643D01*
X1536428Y-10012072D01*
X1522143Y-9954929D01*
X1522143Y-9883500D01*
X1536428Y-9826357D01*
X1550714Y-9797786D01*
X1565000Y-9783500D01*
X1593571Y-9769214D01*
X1822143Y-10040643D02*
X1836428Y-10054929D01*
X1822143Y-10069214D01*
X1807857Y-10054929D01*
X1822143Y-10040643D01*
X1822143Y-10069214D01*
X2007857Y-9897786D02*
X1979286Y-9883500D01*
X1965000Y-9869214D01*
X1950714Y-9840643D01*
X1950714Y-9826357D01*
X1965000Y-9797786D01*
X1979286Y-9783500D01*
X2007857Y-9769214D01*
X2065000Y-9769214D01*
X2093571Y-9783500D01*
X2107857Y-9797786D01*
X2122143Y-9826357D01*
X2122143Y-9840643D01*
X2107857Y-9869214D01*
X2093571Y-9883500D01*
X2065000Y-9897786D01*
X2007857Y-9897786D01*
X1979286Y-9912072D01*
X1965000Y-9926357D01*
X1950714Y-9954929D01*
X1950714Y-10012072D01*
X1965000Y-10040643D01*
X1979286Y-10054929D01*
X2007857Y-10069214D01*
X2065000Y-10069214D01*
X2093571Y-10054929D01*
X2107857Y-10040643D01*
X2122143Y-10012072D01*
X2122143Y-9954929D01*
X2107857Y-9926357D01*
X2093571Y-9912072D01*
X2065000Y-9897786D01*
X2307857Y-9769214D02*
X2336429Y-9769214D01*
X2365000Y-9783500D01*
X2379286Y-9797786D01*
X2393571Y-9826357D01*
X2407857Y-9883500D01*
X2407857Y-9954929D01*
X2393571Y-10012072D01*
X2379286Y-10040643D01*
X2365000Y-10054929D01*
X2336429Y-10069214D01*
X2307857Y-10069214D01*
X2279286Y-10054929D01*
X2265000Y-10040643D01*
X2250714Y-10012072D01*
X2236429Y-9954929D01*
X2236429Y-9883500D01*
X2250714Y-9826357D01*
X2265000Y-9797786D01*
X2279286Y-9783500D01*
X2307857Y-9769214D01*
X2536429Y-10069214D02*
X2536429Y-9869214D01*
X2536429Y-9897786D02*
X2550714Y-9883500D01*
X2579286Y-9869214D01*
X2622143Y-9869214D01*
X2650714Y-9883500D01*
X2665000Y-9912072D01*
X2665000Y-10069214D01*
X2665000Y-9912072D02*
X2679286Y-9883500D01*
X2707857Y-9869214D01*
X2750714Y-9869214D01*
X2779286Y-9883500D01*
X2793571Y-9912072D01*
X2793571Y-10069214D01*
X2936428Y-10069214D02*
X2936428Y-9869214D01*
X2936428Y-9897786D02*
X2950714Y-9883500D01*
X2979286Y-9869214D01*
X3022143Y-9869214D01*
X3050714Y-9883500D01*
X3065000Y-9912072D01*
X3065000Y-10069214D01*
X3065000Y-9912072D02*
X3079286Y-9883500D01*
X3107857Y-9869214D01*
X3150714Y-9869214D01*
X3179286Y-9883500D01*
X3193571Y-9912072D01*
X3193571Y-10069214D01*
X3779286Y-9754929D02*
X3522143Y-10140643D01*
X4165000Y-9769214D02*
X4193571Y-9769214D01*
X4222143Y-9783500D01*
X4236428Y-9797786D01*
X4250714Y-9826357D01*
X4265000Y-9883500D01*
X4265000Y-9954929D01*
X4250714Y-10012072D01*
X4236428Y-10040643D01*
X4222143Y-10054929D01*
X4193571Y-10069214D01*
X4165000Y-10069214D01*
X4136428Y-10054929D01*
X4122143Y-10040643D01*
X4107857Y-10012072D01*
X4093571Y-9954929D01*
X4093571Y-9883500D01*
X4107857Y-9826357D01*
X4122143Y-9797786D01*
X4136428Y-9783500D01*
X4165000Y-9769214D01*
X4393571Y-10040643D02*
X4407857Y-10054929D01*
X4393571Y-10069214D01*
X4379286Y-10054929D01*
X4393571Y-10040643D01*
X4393571Y-10069214D01*
X4593571Y-9769214D02*
X4622143Y-9769214D01*
X4650714Y-9783500D01*
X4665000Y-9797786D01*
X4679286Y-9826357D01*
X4693571Y-9883500D01*
X4693571Y-9954929D01*
X4679286Y-10012072D01*
X4665000Y-10040643D01*
X4650714Y-10054929D01*
X4622143Y-10069214D01*
X4593571Y-10069214D01*
X4565000Y-10054929D01*
X4550714Y-10040643D01*
X4536428Y-10012072D01*
X4522143Y-9954929D01*
X4522143Y-9883500D01*
X4536428Y-9826357D01*
X4550714Y-9797786D01*
X4565000Y-9783500D01*
X4593571Y-9769214D01*
X4793571Y-9769214D02*
X4979286Y-9769214D01*
X4879286Y-9883500D01*
X4922143Y-9883500D01*
X4950714Y-9897786D01*
X4965000Y-9912072D01*
X4979286Y-9940643D01*
X4979286Y-10012072D01*
X4965000Y-10040643D01*
X4950714Y-10054929D01*
X4922143Y-10069214D01*
X4836428Y-10069214D01*
X4807857Y-10054929D01*
X4793571Y-10040643D01*
X5265000Y-10069214D02*
X5093571Y-10069214D01*
X5179286Y-10069214D02*
X5179286Y-9769214D01*
X5150714Y-9812072D01*
X5122143Y-9840643D01*
X5093571Y-9854929D01*
X5379286Y-9769214D02*
X5379286Y-9826357D01*
X5493571Y-9769214D02*
X5493571Y-9826357D01*
X5936428Y-10183500D02*
X5922143Y-10169214D01*
X5893571Y-10126357D01*
X5879285Y-10097786D01*
X5865000Y-10054929D01*
X5850714Y-9983500D01*
X5850714Y-9926357D01*
X5865000Y-9854929D01*
X5879285Y-9812072D01*
X5893571Y-9783500D01*
X5922143Y-9740643D01*
X5936428Y-9726357D01*
X6179285Y-9769214D02*
X6122143Y-9769214D01*
X6093571Y-9783500D01*
X6079285Y-9797786D01*
X6050714Y-9840643D01*
X6036428Y-9897786D01*
X6036428Y-10012072D01*
X6050714Y-10040643D01*
X6065000Y-10054929D01*
X6093571Y-10069214D01*
X6150714Y-10069214D01*
X6179285Y-10054929D01*
X6193571Y-10040643D01*
X6207857Y-10012072D01*
X6207857Y-9940643D01*
X6193571Y-9912072D01*
X6179285Y-9897786D01*
X6150714Y-9883500D01*
X6093571Y-9883500D01*
X6065000Y-9897786D01*
X6050714Y-9912072D01*
X6036428Y-9940643D01*
X6379285Y-9897786D02*
X6350714Y-9883500D01*
X6336428Y-9869214D01*
X6322143Y-9840643D01*
X6322143Y-9826357D01*
X6336428Y-9797786D01*
X6350714Y-9783500D01*
X6379285Y-9769214D01*
X6436428Y-9769214D01*
X6465000Y-9783500D01*
X6479285Y-9797786D01*
X6493571Y-9826357D01*
X6493571Y-9840643D01*
X6479285Y-9869214D01*
X6465000Y-9883500D01*
X6436428Y-9897786D01*
X6379285Y-9897786D01*
X6350714Y-9912072D01*
X6336428Y-9926357D01*
X6322143Y-9954929D01*
X6322143Y-10012072D01*
X6336428Y-10040643D01*
X6350714Y-10054929D01*
X6379285Y-10069214D01*
X6436428Y-10069214D01*
X6465000Y-10054929D01*
X6479285Y-10040643D01*
X6493571Y-10012072D01*
X6493571Y-9954929D01*
X6479285Y-9926357D01*
X6465000Y-9912072D01*
X6436428Y-9897786D01*
X6850714Y-10069214D02*
X6850714Y-9769214D01*
X6979285Y-10069214D02*
X6979285Y-9912072D01*
X6965000Y-9883500D01*
X6936428Y-9869214D01*
X6893571Y-9869214D01*
X6865000Y-9883500D01*
X6850714Y-9897786D01*
X7165000Y-10069214D02*
X7136428Y-10054929D01*
X7122143Y-10040643D01*
X7107857Y-10012072D01*
X7107857Y-9926357D01*
X7122143Y-9897786D01*
X7136428Y-9883500D01*
X7165000Y-9869214D01*
X7207857Y-9869214D01*
X7236428Y-9883500D01*
X7250714Y-9897786D01*
X7265000Y-9926357D01*
X7265000Y-10012072D01*
X7250714Y-10040643D01*
X7236428Y-10054929D01*
X7207857Y-10069214D01*
X7165000Y-10069214D01*
X7436428Y-10069214D02*
X7407857Y-10054929D01*
X7393571Y-10026357D01*
X7393571Y-9769214D01*
X7665000Y-10054929D02*
X7636428Y-10069214D01*
X7579286Y-10069214D01*
X7550714Y-10054929D01*
X7536428Y-10026357D01*
X7536428Y-9912072D01*
X7550714Y-9883500D01*
X7579286Y-9869214D01*
X7636428Y-9869214D01*
X7665000Y-9883500D01*
X7679286Y-9912072D01*
X7679286Y-9940643D01*
X7536428Y-9969214D01*
X7793571Y-10054929D02*
X7822143Y-10069214D01*
X7879286Y-10069214D01*
X7907857Y-10054929D01*
X7922143Y-10026357D01*
X7922143Y-10012072D01*
X7907857Y-9983500D01*
X7879286Y-9969214D01*
X7836428Y-9969214D01*
X7807857Y-9954929D01*
X7793571Y-9926357D01*
X7793571Y-9912072D01*
X7807857Y-9883500D01*
X7836428Y-9869214D01*
X7879286Y-9869214D01*
X7907857Y-9883500D01*
X8022143Y-10183500D02*
X8036428Y-10169214D01*
X8065000Y-10126357D01*
X8079286Y-10097786D01*
X8093571Y-10054929D01*
X8107857Y-9983500D01*
X8107857Y-9926357D01*
X8093571Y-9854929D01*
X8079286Y-9812072D01*
X8065000Y-9783500D01*
X8036428Y-9740643D01*
X8022143Y-9726357D01*
X1220000Y-10284500D02*
X1220000Y-10374500D01*
X1175000Y-10329500D02*
X1265000Y-10329500D01*
X1593571Y-10165214D02*
X1622143Y-10165214D01*
X1650714Y-10179500D01*
X1665000Y-10193786D01*
X1679286Y-10222357D01*
X1693571Y-10279500D01*
X1693571Y-10350929D01*
X1679286Y-10408072D01*
X1665000Y-10436643D01*
X1650714Y-10450929D01*
X1622143Y-10465214D01*
X1593571Y-10465214D01*
X1565000Y-10450929D01*
X1550714Y-10436643D01*
X1536428Y-10408072D01*
X1522143Y-10350929D01*
X1522143Y-10279500D01*
X1536428Y-10222357D01*
X1550714Y-10193786D01*
X1565000Y-10179500D01*
X1593571Y-10165214D01*
X1822143Y-10436643D02*
X1836428Y-10450929D01*
X1822143Y-10465214D01*
X1807857Y-10450929D01*
X1822143Y-10436643D01*
X1822143Y-10465214D01*
X1979286Y-10465214D02*
X2036428Y-10465214D01*
X2065000Y-10450929D01*
X2079286Y-10436643D01*
X2107857Y-10393786D01*
X2122143Y-10336643D01*
X2122143Y-10222357D01*
X2107857Y-10193786D01*
X2093571Y-10179500D01*
X2065000Y-10165214D01*
X2007857Y-10165214D01*
X1979286Y-10179500D01*
X1965000Y-10193786D01*
X1950714Y-10222357D01*
X1950714Y-10293786D01*
X1965000Y-10322357D01*
X1979286Y-10336643D01*
X2007857Y-10350929D01*
X2065000Y-10350929D01*
X2093571Y-10336643D01*
X2107857Y-10322357D01*
X2122143Y-10293786D01*
X2307857Y-10165214D02*
X2336429Y-10165214D01*
X2365000Y-10179500D01*
X2379286Y-10193786D01*
X2393571Y-10222357D01*
X2407857Y-10279500D01*
X2407857Y-10350929D01*
X2393571Y-10408072D01*
X2379286Y-10436643D01*
X2365000Y-10450929D01*
X2336429Y-10465214D01*
X2307857Y-10465214D01*
X2279286Y-10450929D01*
X2265000Y-10436643D01*
X2250714Y-10408072D01*
X2236429Y-10350929D01*
X2236429Y-10279500D01*
X2250714Y-10222357D01*
X2265000Y-10193786D01*
X2279286Y-10179500D01*
X2307857Y-10165214D01*
X2536429Y-10465214D02*
X2536429Y-10265214D01*
X2536429Y-10293786D02*
X2550714Y-10279500D01*
X2579286Y-10265214D01*
X2622143Y-10265214D01*
X2650714Y-10279500D01*
X2665000Y-10308072D01*
X2665000Y-10465214D01*
X2665000Y-10308072D02*
X2679286Y-10279500D01*
X2707857Y-10265214D01*
X2750714Y-10265214D01*
X2779286Y-10279500D01*
X2793571Y-10308072D01*
X2793571Y-10465214D01*
X2936428Y-10465214D02*
X2936428Y-10265214D01*
X2936428Y-10293786D02*
X2950714Y-10279500D01*
X2979286Y-10265214D01*
X3022143Y-10265214D01*
X3050714Y-10279500D01*
X3065000Y-10308072D01*
X3065000Y-10465214D01*
X3065000Y-10308072D02*
X3079286Y-10279500D01*
X3107857Y-10265214D01*
X3150714Y-10265214D01*
X3179286Y-10279500D01*
X3193571Y-10308072D01*
X3193571Y-10465214D01*
X3779286Y-10150929D02*
X3522143Y-10536643D01*
X4165000Y-10165214D02*
X4193571Y-10165214D01*
X4222143Y-10179500D01*
X4236428Y-10193786D01*
X4250714Y-10222357D01*
X4265000Y-10279500D01*
X4265000Y-10350929D01*
X4250714Y-10408072D01*
X4236428Y-10436643D01*
X4222143Y-10450929D01*
X4193571Y-10465214D01*
X4165000Y-10465214D01*
X4136428Y-10450929D01*
X4122143Y-10436643D01*
X4107857Y-10408072D01*
X4093571Y-10350929D01*
X4093571Y-10279500D01*
X4107857Y-10222357D01*
X4122143Y-10193786D01*
X4136428Y-10179500D01*
X4165000Y-10165214D01*
X4393571Y-10436643D02*
X4407857Y-10450929D01*
X4393571Y-10465214D01*
X4379286Y-10450929D01*
X4393571Y-10436643D01*
X4393571Y-10465214D01*
X4593571Y-10165214D02*
X4622143Y-10165214D01*
X4650714Y-10179500D01*
X4665000Y-10193786D01*
X4679286Y-10222357D01*
X4693571Y-10279500D01*
X4693571Y-10350929D01*
X4679286Y-10408072D01*
X4665000Y-10436643D01*
X4650714Y-10450929D01*
X4622143Y-10465214D01*
X4593571Y-10465214D01*
X4565000Y-10450929D01*
X4550714Y-10436643D01*
X4536428Y-10408072D01*
X4522143Y-10350929D01*
X4522143Y-10279500D01*
X4536428Y-10222357D01*
X4550714Y-10193786D01*
X4565000Y-10179500D01*
X4593571Y-10165214D01*
X4793571Y-10165214D02*
X4979286Y-10165214D01*
X4879286Y-10279500D01*
X4922143Y-10279500D01*
X4950714Y-10293786D01*
X4965000Y-10308072D01*
X4979286Y-10336643D01*
X4979286Y-10408072D01*
X4965000Y-10436643D01*
X4950714Y-10450929D01*
X4922143Y-10465214D01*
X4836428Y-10465214D01*
X4807857Y-10450929D01*
X4793571Y-10436643D01*
X5250714Y-10165214D02*
X5107857Y-10165214D01*
X5093571Y-10308072D01*
X5107857Y-10293786D01*
X5136428Y-10279500D01*
X5207857Y-10279500D01*
X5236428Y-10293786D01*
X5250714Y-10308072D01*
X5265000Y-10336643D01*
X5265000Y-10408072D01*
X5250714Y-10436643D01*
X5236428Y-10450929D01*
X5207857Y-10465214D01*
X5136428Y-10465214D01*
X5107857Y-10450929D01*
X5093571Y-10436643D01*
X5379286Y-10165214D02*
X5379286Y-10222357D01*
X5493571Y-10165214D02*
X5493571Y-10222357D01*
X5936428Y-10579500D02*
X5922143Y-10565214D01*
X5893571Y-10522357D01*
X5879285Y-10493786D01*
X5865000Y-10450929D01*
X5850714Y-10379500D01*
X5850714Y-10322357D01*
X5865000Y-10250929D01*
X5879285Y-10208072D01*
X5893571Y-10179500D01*
X5922143Y-10136643D01*
X5936428Y-10122357D01*
X6179285Y-10165214D02*
X6122143Y-10165214D01*
X6093571Y-10179500D01*
X6079285Y-10193786D01*
X6050714Y-10236643D01*
X6036428Y-10293786D01*
X6036428Y-10408072D01*
X6050714Y-10436643D01*
X6065000Y-10450929D01*
X6093571Y-10465214D01*
X6150714Y-10465214D01*
X6179285Y-10450929D01*
X6193571Y-10436643D01*
X6207857Y-10408072D01*
X6207857Y-10336643D01*
X6193571Y-10308072D01*
X6179285Y-10293786D01*
X6150714Y-10279500D01*
X6093571Y-10279500D01*
X6065000Y-10293786D01*
X6050714Y-10308072D01*
X6036428Y-10336643D01*
X6565000Y-10465214D02*
X6565000Y-10165214D01*
X6693571Y-10465214D02*
X6693571Y-10308072D01*
X6679285Y-10279500D01*
X6650714Y-10265214D01*
X6607857Y-10265214D01*
X6579285Y-10279500D01*
X6565000Y-10293786D01*
X6879285Y-10465214D02*
X6850714Y-10450929D01*
X6836428Y-10436643D01*
X6822143Y-10408072D01*
X6822143Y-10322357D01*
X6836428Y-10293786D01*
X6850714Y-10279500D01*
X6879285Y-10265214D01*
X6922143Y-10265214D01*
X6950714Y-10279500D01*
X6965000Y-10293786D01*
X6979285Y-10322357D01*
X6979285Y-10408072D01*
X6965000Y-10436643D01*
X6950714Y-10450929D01*
X6922143Y-10465214D01*
X6879285Y-10465214D01*
X7150714Y-10465214D02*
X7122143Y-10450929D01*
X7107857Y-10422357D01*
X7107857Y-10165214D01*
X7379286Y-10450929D02*
X7350714Y-10465214D01*
X7293571Y-10465214D01*
X7265000Y-10450929D01*
X7250714Y-10422357D01*
X7250714Y-10308072D01*
X7265000Y-10279500D01*
X7293571Y-10265214D01*
X7350714Y-10265214D01*
X7379286Y-10279500D01*
X7393571Y-10308072D01*
X7393571Y-10336643D01*
X7250714Y-10365214D01*
X7507857Y-10450929D02*
X7536428Y-10465214D01*
X7593571Y-10465214D01*
X7622143Y-10450929D01*
X7636428Y-10422357D01*
X7636428Y-10408072D01*
X7622143Y-10379500D01*
X7593571Y-10365214D01*
X7550714Y-10365214D01*
X7522143Y-10350929D01*
X7507857Y-10322357D01*
X7507857Y-10308072D01*
X7522143Y-10279500D01*
X7550714Y-10265214D01*
X7593571Y-10265214D01*
X7622143Y-10279500D01*
X7736428Y-10579500D02*
X7750714Y-10565214D01*
X7779286Y-10522357D01*
X7793571Y-10493786D01*
X7807857Y-10450929D01*
X7822143Y-10379500D01*
X7822143Y-10322357D01*
X7807857Y-10250929D01*
X7793571Y-10208072D01*
X7779286Y-10179500D01*
X7750714Y-10136643D01*
X7736428Y-10122357D01*
X1250356Y-10760856D02*
X1250356Y-10690144D01*
X1179644Y-10690144D01*
X1179644Y-10760856D01*
X1250356Y-10760856D01*
X1693571Y-10861214D02*
X1522143Y-10861214D01*
X1607857Y-10861214D02*
X1607857Y-10561214D01*
X1579286Y-10604072D01*
X1550714Y-10632643D01*
X1522143Y-10646929D01*
X1822143Y-10832643D02*
X1836428Y-10846929D01*
X1822143Y-10861214D01*
X1807857Y-10846929D01*
X1822143Y-10832643D01*
X1822143Y-10861214D01*
X2022143Y-10561214D02*
X2050714Y-10561214D01*
X2079286Y-10575500D01*
X2093571Y-10589786D01*
X2107857Y-10618357D01*
X2122143Y-10675500D01*
X2122143Y-10746929D01*
X2107857Y-10804072D01*
X2093571Y-10832643D01*
X2079286Y-10846929D01*
X2050714Y-10861214D01*
X2022143Y-10861214D01*
X1993571Y-10846929D01*
X1979286Y-10832643D01*
X1965000Y-10804072D01*
X1950714Y-10746929D01*
X1950714Y-10675500D01*
X1965000Y-10618357D01*
X1979286Y-10589786D01*
X1993571Y-10575500D01*
X2022143Y-10561214D01*
X2307857Y-10561214D02*
X2336429Y-10561214D01*
X2365000Y-10575500D01*
X2379286Y-10589786D01*
X2393571Y-10618357D01*
X2407857Y-10675500D01*
X2407857Y-10746929D01*
X2393571Y-10804072D01*
X2379286Y-10832643D01*
X2365000Y-10846929D01*
X2336429Y-10861214D01*
X2307857Y-10861214D01*
X2279286Y-10846929D01*
X2265000Y-10832643D01*
X2250714Y-10804072D01*
X2236429Y-10746929D01*
X2236429Y-10675500D01*
X2250714Y-10618357D01*
X2265000Y-10589786D01*
X2279286Y-10575500D01*
X2307857Y-10561214D01*
X2536429Y-10861214D02*
X2536429Y-10661214D01*
X2536429Y-10689786D02*
X2550714Y-10675500D01*
X2579286Y-10661214D01*
X2622143Y-10661214D01*
X2650714Y-10675500D01*
X2665000Y-10704072D01*
X2665000Y-10861214D01*
X2665000Y-10704072D02*
X2679286Y-10675500D01*
X2707857Y-10661214D01*
X2750714Y-10661214D01*
X2779286Y-10675500D01*
X2793571Y-10704072D01*
X2793571Y-10861214D01*
X2936428Y-10861214D02*
X2936428Y-10661214D01*
X2936428Y-10689786D02*
X2950714Y-10675500D01*
X2979286Y-10661214D01*
X3022143Y-10661214D01*
X3050714Y-10675500D01*
X3065000Y-10704072D01*
X3065000Y-10861214D01*
X3065000Y-10704072D02*
X3079286Y-10675500D01*
X3107857Y-10661214D01*
X3150714Y-10661214D01*
X3179286Y-10675500D01*
X3193571Y-10704072D01*
X3193571Y-10861214D01*
X3779286Y-10546929D02*
X3522143Y-10932643D01*
X4165000Y-10561214D02*
X4193571Y-10561214D01*
X4222143Y-10575500D01*
X4236428Y-10589786D01*
X4250714Y-10618357D01*
X4265000Y-10675500D01*
X4265000Y-10746929D01*
X4250714Y-10804072D01*
X4236428Y-10832643D01*
X4222143Y-10846929D01*
X4193571Y-10861214D01*
X4165000Y-10861214D01*
X4136428Y-10846929D01*
X4122143Y-10832643D01*
X4107857Y-10804072D01*
X4093571Y-10746929D01*
X4093571Y-10675500D01*
X4107857Y-10618357D01*
X4122143Y-10589786D01*
X4136428Y-10575500D01*
X4165000Y-10561214D01*
X4393571Y-10832643D02*
X4407857Y-10846929D01*
X4393571Y-10861214D01*
X4379286Y-10846929D01*
X4393571Y-10832643D01*
X4393571Y-10861214D01*
X4593571Y-10561214D02*
X4622143Y-10561214D01*
X4650714Y-10575500D01*
X4665000Y-10589786D01*
X4679286Y-10618357D01*
X4693571Y-10675500D01*
X4693571Y-10746929D01*
X4679286Y-10804072D01*
X4665000Y-10832643D01*
X4650714Y-10846929D01*
X4622143Y-10861214D01*
X4593571Y-10861214D01*
X4565000Y-10846929D01*
X4550714Y-10832643D01*
X4536428Y-10804072D01*
X4522143Y-10746929D01*
X4522143Y-10675500D01*
X4536428Y-10618357D01*
X4550714Y-10589786D01*
X4565000Y-10575500D01*
X4593571Y-10561214D01*
X4793571Y-10561214D02*
X4979286Y-10561214D01*
X4879286Y-10675500D01*
X4922143Y-10675500D01*
X4950714Y-10689786D01*
X4965000Y-10704072D01*
X4979286Y-10732643D01*
X4979286Y-10804072D01*
X4965000Y-10832643D01*
X4950714Y-10846929D01*
X4922143Y-10861214D01*
X4836428Y-10861214D01*
X4807857Y-10846929D01*
X4793571Y-10832643D01*
X5122143Y-10861214D02*
X5179286Y-10861214D01*
X5207857Y-10846929D01*
X5222143Y-10832643D01*
X5250714Y-10789786D01*
X5265000Y-10732643D01*
X5265000Y-10618357D01*
X5250714Y-10589786D01*
X5236428Y-10575500D01*
X5207857Y-10561214D01*
X5150714Y-10561214D01*
X5122143Y-10575500D01*
X5107857Y-10589786D01*
X5093571Y-10618357D01*
X5093571Y-10689786D01*
X5107857Y-10718357D01*
X5122143Y-10732643D01*
X5150714Y-10746929D01*
X5207857Y-10746929D01*
X5236428Y-10732643D01*
X5250714Y-10718357D01*
X5265000Y-10689786D01*
X5379286Y-10561214D02*
X5379286Y-10618357D01*
X5493571Y-10561214D02*
X5493571Y-10618357D01*
X5936428Y-10975500D02*
X5922143Y-10961214D01*
X5893571Y-10918357D01*
X5879285Y-10889786D01*
X5865000Y-10846929D01*
X5850714Y-10775500D01*
X5850714Y-10718357D01*
X5865000Y-10646929D01*
X5879285Y-10604072D01*
X5893571Y-10575500D01*
X5922143Y-10532643D01*
X5936428Y-10518357D01*
X6193571Y-10561214D02*
X6050714Y-10561214D01*
X6036428Y-10704072D01*
X6050714Y-10689786D01*
X6079285Y-10675500D01*
X6150714Y-10675500D01*
X6179285Y-10689786D01*
X6193571Y-10704072D01*
X6207857Y-10732643D01*
X6207857Y-10804072D01*
X6193571Y-10832643D01*
X6179285Y-10846929D01*
X6150714Y-10861214D01*
X6079285Y-10861214D01*
X6050714Y-10846929D01*
X6036428Y-10832643D01*
X6322143Y-10589786D02*
X6336428Y-10575500D01*
X6365000Y-10561214D01*
X6436428Y-10561214D01*
X6465000Y-10575500D01*
X6479285Y-10589786D01*
X6493571Y-10618357D01*
X6493571Y-10646929D01*
X6479285Y-10689786D01*
X6307857Y-10861214D01*
X6493571Y-10861214D01*
X6850714Y-10861214D02*
X6850714Y-10561214D01*
X6979285Y-10861214D02*
X6979285Y-10704072D01*
X6965000Y-10675500D01*
X6936428Y-10661214D01*
X6893571Y-10661214D01*
X6865000Y-10675500D01*
X6850714Y-10689786D01*
X7165000Y-10861214D02*
X7136428Y-10846929D01*
X7122143Y-10832643D01*
X7107857Y-10804072D01*
X7107857Y-10718357D01*
X7122143Y-10689786D01*
X7136428Y-10675500D01*
X7165000Y-10661214D01*
X7207857Y-10661214D01*
X7236428Y-10675500D01*
X7250714Y-10689786D01*
X7265000Y-10718357D01*
X7265000Y-10804072D01*
X7250714Y-10832643D01*
X7236428Y-10846929D01*
X7207857Y-10861214D01*
X7165000Y-10861214D01*
X7436428Y-10861214D02*
X7407857Y-10846929D01*
X7393571Y-10818357D01*
X7393571Y-10561214D01*
X7665000Y-10846929D02*
X7636428Y-10861214D01*
X7579286Y-10861214D01*
X7550714Y-10846929D01*
X7536428Y-10818357D01*
X7536428Y-10704072D01*
X7550714Y-10675500D01*
X7579286Y-10661214D01*
X7636428Y-10661214D01*
X7665000Y-10675500D01*
X7679286Y-10704072D01*
X7679286Y-10732643D01*
X7536428Y-10761214D01*
X7793571Y-10846929D02*
X7822143Y-10861214D01*
X7879286Y-10861214D01*
X7907857Y-10846929D01*
X7922143Y-10818357D01*
X7922143Y-10804072D01*
X7907857Y-10775500D01*
X7879286Y-10761214D01*
X7836428Y-10761214D01*
X7807857Y-10746929D01*
X7793571Y-10718357D01*
X7793571Y-10704072D01*
X7807857Y-10675500D01*
X7836428Y-10661214D01*
X7879286Y-10661214D01*
X7907857Y-10675500D01*
X8022143Y-10975500D02*
X8036428Y-10961214D01*
X8065000Y-10918357D01*
X8079286Y-10889786D01*
X8093571Y-10846929D01*
X8107857Y-10775500D01*
X8107857Y-10718357D01*
X8093571Y-10646929D01*
X8079286Y-10604072D01*
X8065000Y-10575500D01*
X8036428Y-10532643D01*
X8022143Y-10518357D01*
X1105000Y-11281500D02*
X1265000Y-11121500D01*
X1105000Y-10961500D01*
X945000Y-11121500D01*
X1105000Y-11281500D01*
X1507857Y-10957214D02*
X1693571Y-10957214D01*
X1593571Y-11071500D01*
X1636428Y-11071500D01*
X1665000Y-11085786D01*
X1679286Y-11100072D01*
X1693571Y-11128643D01*
X1693571Y-11200071D01*
X1679286Y-11228643D01*
X1665000Y-11242929D01*
X1636428Y-11257214D01*
X1550714Y-11257214D01*
X1522143Y-11242929D01*
X1507857Y-11228643D01*
X1822143Y-11228643D02*
X1836428Y-11242929D01*
X1822143Y-11257214D01*
X1807857Y-11242929D01*
X1822143Y-11228643D01*
X1822143Y-11257214D01*
X1950714Y-10985786D02*
X1965000Y-10971500D01*
X1993571Y-10957214D01*
X2065000Y-10957214D01*
X2093571Y-10971500D01*
X2107857Y-10985786D01*
X2122143Y-11014357D01*
X2122143Y-11042929D01*
X2107857Y-11085786D01*
X1936428Y-11257214D01*
X2122143Y-11257214D01*
X2307857Y-10957214D02*
X2336429Y-10957214D01*
X2365000Y-10971500D01*
X2379286Y-10985786D01*
X2393571Y-11014357D01*
X2407857Y-11071500D01*
X2407857Y-11142929D01*
X2393571Y-11200071D01*
X2379286Y-11228643D01*
X2365000Y-11242929D01*
X2336429Y-11257214D01*
X2307857Y-11257214D01*
X2279286Y-11242929D01*
X2265000Y-11228643D01*
X2250714Y-11200071D01*
X2236429Y-11142929D01*
X2236429Y-11071500D01*
X2250714Y-11014357D01*
X2265000Y-10985786D01*
X2279286Y-10971500D01*
X2307857Y-10957214D01*
X2536429Y-11257214D02*
X2536429Y-11057214D01*
X2536429Y-11085786D02*
X2550714Y-11071500D01*
X2579286Y-11057214D01*
X2622143Y-11057214D01*
X2650714Y-11071500D01*
X2665000Y-11100072D01*
X2665000Y-11257214D01*
X2665000Y-11100072D02*
X2679286Y-11071500D01*
X2707857Y-11057214D01*
X2750714Y-11057214D01*
X2779286Y-11071500D01*
X2793571Y-11100072D01*
X2793571Y-11257214D01*
X2936428Y-11257214D02*
X2936428Y-11057214D01*
X2936428Y-11085786D02*
X2950714Y-11071500D01*
X2979286Y-11057214D01*
X3022143Y-11057214D01*
X3050714Y-11071500D01*
X3065000Y-11100072D01*
X3065000Y-11257214D01*
X3065000Y-11100072D02*
X3079286Y-11071500D01*
X3107857Y-11057214D01*
X3150714Y-11057214D01*
X3179286Y-11071500D01*
X3193571Y-11100072D01*
X3193571Y-11257214D01*
X3779286Y-10942929D02*
X3522143Y-11328643D01*
X4165000Y-10957214D02*
X4193571Y-10957214D01*
X4222143Y-10971500D01*
X4236428Y-10985786D01*
X4250714Y-11014357D01*
X4265000Y-11071500D01*
X4265000Y-11142929D01*
X4250714Y-11200071D01*
X4236428Y-11228643D01*
X4222143Y-11242929D01*
X4193571Y-11257214D01*
X4165000Y-11257214D01*
X4136428Y-11242929D01*
X4122143Y-11228643D01*
X4107857Y-11200071D01*
X4093571Y-11142929D01*
X4093571Y-11071500D01*
X4107857Y-11014357D01*
X4122143Y-10985786D01*
X4136428Y-10971500D01*
X4165000Y-10957214D01*
X4393571Y-11228643D02*
X4407857Y-11242929D01*
X4393571Y-11257214D01*
X4379286Y-11242929D01*
X4393571Y-11228643D01*
X4393571Y-11257214D01*
X4693571Y-11257214D02*
X4522143Y-11257214D01*
X4607857Y-11257214D02*
X4607857Y-10957214D01*
X4579286Y-11000072D01*
X4550714Y-11028643D01*
X4522143Y-11042929D01*
X4807857Y-10985786D02*
X4822143Y-10971500D01*
X4850714Y-10957214D01*
X4922143Y-10957214D01*
X4950714Y-10971500D01*
X4965000Y-10985786D01*
X4979286Y-11014357D01*
X4979286Y-11042929D01*
X4965000Y-11085786D01*
X4793571Y-11257214D01*
X4979286Y-11257214D01*
X5236428Y-10957214D02*
X5179286Y-10957214D01*
X5150714Y-10971500D01*
X5136428Y-10985786D01*
X5107857Y-11028643D01*
X5093571Y-11085786D01*
X5093571Y-11200071D01*
X5107857Y-11228643D01*
X5122143Y-11242929D01*
X5150714Y-11257214D01*
X5207857Y-11257214D01*
X5236428Y-11242929D01*
X5250714Y-11228643D01*
X5265000Y-11200071D01*
X5265000Y-11128643D01*
X5250714Y-11100072D01*
X5236428Y-11085786D01*
X5207857Y-11071500D01*
X5150714Y-11071500D01*
X5122143Y-11085786D01*
X5107857Y-11100072D01*
X5093571Y-11128643D01*
X5379286Y-10957214D02*
X5379286Y-11014357D01*
X5493571Y-10957214D02*
X5493571Y-11014357D01*
X5936428Y-11371500D02*
X5922143Y-11357214D01*
X5893571Y-11314357D01*
X5879285Y-11285786D01*
X5865000Y-11242929D01*
X5850714Y-11171500D01*
X5850714Y-11114357D01*
X5865000Y-11042929D01*
X5879285Y-11000072D01*
X5893571Y-10971500D01*
X5922143Y-10928643D01*
X5936428Y-10914357D01*
X6179285Y-11057214D02*
X6179285Y-11257214D01*
X6107857Y-10942929D02*
X6036428Y-11157214D01*
X6222143Y-11157214D01*
X6565000Y-11257214D02*
X6565000Y-10957214D01*
X6693571Y-11257214D02*
X6693571Y-11100072D01*
X6679285Y-11071500D01*
X6650714Y-11057214D01*
X6607857Y-11057214D01*
X6579285Y-11071500D01*
X6565000Y-11085786D01*
X6879285Y-11257214D02*
X6850714Y-11242929D01*
X6836428Y-11228643D01*
X6822143Y-11200071D01*
X6822143Y-11114357D01*
X6836428Y-11085786D01*
X6850714Y-11071500D01*
X6879285Y-11057214D01*
X6922143Y-11057214D01*
X6950714Y-11071500D01*
X6965000Y-11085786D01*
X6979285Y-11114357D01*
X6979285Y-11200071D01*
X6965000Y-11228643D01*
X6950714Y-11242929D01*
X6922143Y-11257214D01*
X6879285Y-11257214D01*
X7150714Y-11257214D02*
X7122143Y-11242929D01*
X7107857Y-11214357D01*
X7107857Y-10957214D01*
X7379286Y-11242929D02*
X7350714Y-11257214D01*
X7293571Y-11257214D01*
X7265000Y-11242929D01*
X7250714Y-11214357D01*
X7250714Y-11100072D01*
X7265000Y-11071500D01*
X7293571Y-11057214D01*
X7350714Y-11057214D01*
X7379286Y-11071500D01*
X7393571Y-11100072D01*
X7393571Y-11128643D01*
X7250714Y-11157214D01*
X7507857Y-11242929D02*
X7536428Y-11257214D01*
X7593571Y-11257214D01*
X7622143Y-11242929D01*
X7636428Y-11214357D01*
X7636428Y-11200071D01*
X7622143Y-11171500D01*
X7593571Y-11157214D01*
X7550714Y-11157214D01*
X7522143Y-11142929D01*
X7507857Y-11114357D01*
X7507857Y-11100072D01*
X7522143Y-11071500D01*
X7550714Y-11057214D01*
X7593571Y-11057214D01*
X7622143Y-11071500D01*
X7736428Y-11371500D02*
X7750714Y-11357214D01*
X7779286Y-11314357D01*
X7793571Y-11285786D01*
X7807857Y-11242929D01*
X7822143Y-11171500D01*
X7822143Y-11114357D01*
X7807857Y-11042929D01*
X7793571Y-11000072D01*
X7779286Y-10971500D01*
X7750714Y-10928643D01*
X7736428Y-10914357D01*
M02*
