G04 #@! TF.FileFunction,Copper,L1,Top,Signal*
%FSLAX46Y46*%
G04 Gerber Fmt 4.6, Leading zero omitted, Abs format (unit mm)*
G04 Created by KiCad (PCBNEW 4.0.6) date Fri Jul  7 17:37:52 2017*
%MOMM*%
%LPD*%
G01*
G04 APERTURE LIST*
%ADD10C,0.100000*%
%ADD11C,1.778000*%
%ADD12R,1.700000X1.700000*%
%ADD13O,1.700000X1.700000*%
%ADD14C,1.600000*%
%ADD15O,1.600000X1.600000*%
%ADD16C,1.620000*%
%ADD17R,1.600000X1.600000*%
%ADD18C,0.600000*%
%ADD19C,0.250000*%
G04 APERTURE END LIST*
D10*
D11*
X45720000Y-15240000D03*
X43180000Y-15240000D03*
X40640000Y-15240000D03*
X38100000Y-15240000D03*
X35560000Y-15240000D03*
X33020000Y-15240000D03*
X30480000Y-15240000D03*
X27940000Y-15240000D03*
X25400000Y-15240000D03*
X22860000Y-15240000D03*
D12*
X15240000Y-19050000D03*
D13*
X15240000Y-21590000D03*
X15240000Y-24130000D03*
X15240000Y-26670000D03*
X15240000Y-29210000D03*
X15240000Y-31750000D03*
X15240000Y-34290000D03*
X15240000Y-36830000D03*
X15240000Y-39370000D03*
X15240000Y-41910000D03*
D12*
X15240000Y-64770000D03*
D13*
X15240000Y-67310000D03*
D12*
X63500000Y-15240000D03*
D13*
X60960000Y-15240000D03*
D12*
X21590000Y-64770000D03*
D13*
X21590000Y-67310000D03*
D12*
X38100000Y-64770000D03*
D13*
X38100000Y-67310000D03*
D14*
X44450000Y-46990000D03*
D15*
X44450000Y-34290000D03*
D14*
X38100000Y-46990000D03*
D15*
X38100000Y-34290000D03*
D14*
X31750000Y-46990000D03*
D15*
X31750000Y-34290000D03*
D14*
X25400000Y-46990000D03*
D15*
X25400000Y-34290000D03*
D14*
X15240000Y-59690000D03*
D15*
X15240000Y-46990000D03*
D16*
X26670000Y-68500000D03*
X29170000Y-66000000D03*
X26670000Y-63500000D03*
X43180000Y-68500000D03*
X45680000Y-66000000D03*
X43180000Y-63500000D03*
D12*
X44450000Y-53340000D03*
D13*
X44450000Y-55880000D03*
D12*
X38100000Y-53340000D03*
D13*
X38100000Y-55880000D03*
D12*
X31750000Y-53340000D03*
D13*
X31750000Y-55880000D03*
D12*
X25400000Y-53340000D03*
D13*
X25400000Y-55880000D03*
D12*
X54610000Y-35560000D03*
D13*
X54610000Y-38100000D03*
D12*
X54610000Y-44450000D03*
D13*
X54610000Y-46990000D03*
D12*
X54610000Y-53340000D03*
D13*
X54610000Y-55880000D03*
D12*
X54610000Y-63500000D03*
D13*
X54610000Y-66040000D03*
D17*
X71120000Y-20320000D03*
D15*
X53340000Y-27940000D03*
X68580000Y-20320000D03*
X55880000Y-27940000D03*
X66040000Y-20320000D03*
X58420000Y-27940000D03*
X63500000Y-20320000D03*
X60960000Y-27940000D03*
X60960000Y-20320000D03*
X63500000Y-27940000D03*
X58420000Y-20320000D03*
X66040000Y-27940000D03*
X55880000Y-20320000D03*
X68580000Y-27940000D03*
X53340000Y-20320000D03*
X71120000Y-27940000D03*
D17*
X67310000Y-67310000D03*
D15*
X59690000Y-34290000D03*
X67310000Y-64770000D03*
X59690000Y-36830000D03*
X67310000Y-62230000D03*
X59690000Y-39370000D03*
X67310000Y-59690000D03*
X59690000Y-41910000D03*
X67310000Y-57150000D03*
X59690000Y-44450000D03*
X67310000Y-54610000D03*
X59690000Y-46990000D03*
X67310000Y-52070000D03*
X59690000Y-49530000D03*
X67310000Y-49530000D03*
X59690000Y-52070000D03*
X67310000Y-46990000D03*
X59690000Y-54610000D03*
X67310000Y-44450000D03*
X59690000Y-57150000D03*
X67310000Y-41910000D03*
X59690000Y-59690000D03*
X67310000Y-39370000D03*
X59690000Y-62230000D03*
X67310000Y-36830000D03*
X59690000Y-64770000D03*
X67310000Y-34290000D03*
X59690000Y-67310000D03*
D18*
X41187700Y-35318600D03*
X14321600Y-17241300D03*
X49792700Y-39108900D03*
X57650800Y-41503200D03*
D19*
X15240000Y-59690000D02*
X15240000Y-64770000D01*
X60960000Y-20320000D02*
X60960000Y-27940000D01*
X15240000Y-67310000D02*
X21590000Y-64770000D01*
X59690000Y-36830000D02*
X59690000Y-35704700D01*
X59690000Y-34290000D02*
X59690000Y-33164700D01*
X60960000Y-27940000D02*
X60960000Y-29065300D01*
X59836300Y-35416400D02*
X59690000Y-35704700D01*
X60066200Y-33195300D02*
X59836300Y-35416400D01*
X59723000Y-33079300D02*
X60066200Y-33195300D01*
X60235000Y-31565000D02*
X59723000Y-33079300D01*
X60241200Y-31534000D02*
X60235000Y-31565000D01*
X60960000Y-29065300D02*
X60241200Y-31534000D01*
X59723000Y-33079300D02*
X59690000Y-33164700D01*
X55561300Y-64667900D02*
X54610000Y-64864700D01*
X55596800Y-64655000D02*
X55561300Y-64667900D01*
X55624500Y-64641100D02*
X55596800Y-64655000D01*
X55663400Y-64609200D02*
X55624500Y-64641100D01*
X55736500Y-64534200D02*
X55663400Y-64609200D01*
X55758500Y-64501300D02*
X55736500Y-64534200D01*
X55776800Y-64457000D02*
X55758500Y-64501300D01*
X55785300Y-64414400D02*
X55776800Y-64457000D01*
X55785300Y-62574700D02*
X55785300Y-64414400D01*
X55024400Y-58752100D02*
X55785300Y-62574700D01*
X54610000Y-57055300D02*
X55024400Y-58752100D01*
X46430600Y-64915200D02*
X53434700Y-66040000D01*
X46135800Y-64874700D02*
X46430600Y-64915200D01*
X46085600Y-64864700D02*
X46135800Y-64874700D01*
X41731400Y-64864700D02*
X46085600Y-64864700D01*
X39275300Y-64770000D02*
X41731400Y-64864700D01*
X38100000Y-64770000D02*
X39275300Y-64770000D01*
X54610000Y-66040000D02*
X53434700Y-66040000D01*
X54610000Y-66040000D02*
X54610000Y-64864700D01*
X54610000Y-56467600D02*
X54610000Y-57055300D01*
X43264700Y-34305300D02*
X43264800Y-34305400D01*
X43180000Y-15240000D02*
X43264700Y-34305300D01*
X43264900Y-34305400D02*
X43264800Y-34305400D01*
X43321000Y-34294000D02*
X43264900Y-34305400D01*
X43324700Y-34290000D02*
X43321000Y-34294000D01*
X44450000Y-34290000D02*
X43324700Y-34290000D01*
X59690000Y-39370000D02*
X59690000Y-36830000D01*
X43264800Y-34305400D02*
X41187700Y-35318600D01*
X54610000Y-55880000D02*
X54610000Y-56467600D01*
X54610000Y-46990000D02*
X55785300Y-46990000D01*
X67310000Y-44450000D02*
X66184700Y-44450000D01*
X54610000Y-55880000D02*
X54610000Y-54704700D01*
X59174600Y-50605900D02*
X59145700Y-50582500D01*
X59217700Y-50634700D02*
X59174600Y-50605900D01*
X59248900Y-50647600D02*
X59217700Y-50634700D01*
X59287600Y-50655300D02*
X59248900Y-50647600D01*
X60090700Y-50655300D02*
X59287600Y-50655300D01*
X60123300Y-50649300D02*
X60090700Y-50655300D01*
X60159400Y-50635500D02*
X60123300Y-50649300D01*
X60189300Y-50617300D02*
X60159400Y-50635500D01*
X60216500Y-50597000D02*
X60189300Y-50617300D01*
X61844900Y-48981200D02*
X60216500Y-50597000D01*
X66184700Y-44450000D02*
X61844900Y-48981200D01*
X56698500Y-48012400D02*
X55785300Y-46990000D01*
X58658400Y-50092400D02*
X56698500Y-48012400D01*
X59145600Y-50582400D02*
X58658400Y-50092400D01*
X59145700Y-50582500D02*
X59145600Y-50582400D01*
X58716400Y-51082600D02*
X59145700Y-50582500D01*
X55704600Y-54408700D02*
X58716400Y-51082600D01*
X55647300Y-54462500D02*
X55704600Y-54408700D01*
X55616500Y-54485700D02*
X55647300Y-54462500D01*
X55575400Y-54504600D02*
X55616500Y-54485700D01*
X55012200Y-54627900D02*
X55575400Y-54504600D01*
X54610000Y-54704700D02*
X55012200Y-54627900D01*
X53340000Y-20320000D02*
X53340000Y-21445300D01*
X15710900Y-22963800D02*
X15240000Y-22765300D01*
X15760700Y-22993100D02*
X15710900Y-22963800D01*
X15794300Y-23018900D02*
X15760700Y-22993100D01*
X16188000Y-23407100D02*
X15794300Y-23018900D01*
X16369400Y-23597500D02*
X16188000Y-23407100D01*
X16388400Y-23628800D02*
X16369400Y-23597500D01*
X16400300Y-23653600D02*
X16388400Y-23628800D01*
X16520500Y-24022300D02*
X16400300Y-23653600D01*
X17349600Y-27007200D02*
X16520500Y-24022300D01*
X25400000Y-52164700D02*
X17349600Y-27007200D01*
X46687300Y-45030100D02*
X44450000Y-52164700D01*
X51197900Y-28276400D02*
X46687300Y-45030100D01*
X53340000Y-21445300D02*
X51197900Y-28276400D01*
X44450000Y-53340000D02*
X44450000Y-52164700D01*
X38100000Y-53340000D02*
X44450000Y-53340000D01*
X38100000Y-53340000D02*
X31750000Y-53340000D01*
X25400000Y-53340000D02*
X25400000Y-52164700D01*
X15240000Y-21590000D02*
X15240000Y-22765300D01*
X15240000Y-26670000D02*
X15240000Y-25494700D01*
X14997700Y-25396000D02*
X15240000Y-25494700D01*
X14782200Y-25300600D02*
X14997700Y-25396000D01*
X14726400Y-25271900D02*
X14782200Y-25300600D01*
X14701400Y-25253600D02*
X14726400Y-25271900D01*
X14111800Y-24664000D02*
X14701400Y-25253600D01*
X14089000Y-24629800D02*
X14111800Y-24664000D01*
X14070800Y-24586100D02*
X14089000Y-24629800D01*
X14064700Y-24555200D02*
X14070800Y-24586100D01*
X14064700Y-18135100D02*
X14064700Y-24555200D01*
X14073200Y-18092600D02*
X14064700Y-18135100D01*
X14092100Y-18046800D02*
X14073200Y-18092600D01*
X14110300Y-18019600D02*
X14092100Y-18046800D01*
X14211100Y-17918800D02*
X14110300Y-18019600D01*
X14243100Y-17897400D02*
X14211100Y-17918800D01*
X14256700Y-17891800D02*
X14243100Y-17897400D01*
X14313000Y-17874700D02*
X14256700Y-17891800D01*
X14370200Y-17874700D02*
X14313000Y-17874700D01*
X14520000Y-17865900D02*
X14370200Y-17874700D01*
X14564500Y-17855500D02*
X14520000Y-17865900D01*
X22157700Y-14147900D02*
X14564500Y-17855500D01*
X22350600Y-14046900D02*
X22157700Y-14147900D01*
X22393900Y-14031500D02*
X22350600Y-14046900D01*
X22427900Y-14025700D02*
X22393900Y-14031500D01*
X35999900Y-14025700D02*
X22427900Y-14025700D01*
X36029500Y-14031600D02*
X35999900Y-14025700D01*
X36077500Y-14051500D02*
X36029500Y-14031600D01*
X36207500Y-14132800D02*
X36077500Y-14051500D01*
X36614700Y-14371100D02*
X36207500Y-14132800D01*
X36699100Y-14286700D02*
X36614700Y-14371100D01*
X37410400Y-13575400D02*
X36699100Y-14286700D01*
X37783600Y-13575400D02*
X37410400Y-13575400D01*
X38789700Y-13575400D02*
X37783600Y-13575400D01*
X39053400Y-13839100D02*
X38789700Y-13575400D01*
X39688500Y-14474200D02*
X39053400Y-13839100D01*
X40137000Y-14025700D02*
X39688500Y-14474200D01*
X41143100Y-14025700D02*
X40137000Y-14025700D01*
X41854300Y-14736900D02*
X41143100Y-14025700D01*
X41854300Y-15743100D02*
X41854300Y-14736900D01*
X41143100Y-16454300D02*
X41854300Y-15743100D01*
X40137000Y-16454300D02*
X41143100Y-16454300D01*
X39425700Y-15743000D02*
X40137000Y-16454300D01*
X39425700Y-15690300D02*
X39425700Y-15743000D01*
X39127700Y-15690300D02*
X39425700Y-15690300D01*
X38864000Y-15426600D02*
X39127700Y-15690300D01*
X38864000Y-14923500D02*
X38864000Y-15426600D01*
X38416500Y-14476000D02*
X38864000Y-14923500D01*
X37783600Y-14476000D02*
X38416500Y-14476000D01*
X37418400Y-14841200D02*
X37783600Y-14476000D01*
X38100000Y-15240000D02*
X37418400Y-14841200D01*
X13966600Y-17530500D02*
X14321600Y-17241300D01*
X13936300Y-17556800D02*
X13966600Y-17530500D01*
X13878200Y-17614900D02*
X13936300Y-17556800D01*
X13878100Y-17614900D02*
X13878200Y-17614900D01*
X13754300Y-17738700D02*
X13878100Y-17614900D01*
X13684700Y-17842800D02*
X13754300Y-17738700D01*
X13654300Y-17916200D02*
X13684700Y-17842800D01*
X13638800Y-17967300D02*
X13654300Y-17916200D01*
X13614400Y-18090000D02*
X13638800Y-17967300D01*
X13614400Y-24592600D02*
X13614400Y-18090000D01*
X13619500Y-24644200D02*
X13614400Y-24592600D01*
X13869500Y-26084400D02*
X13619500Y-24644200D01*
X14060300Y-27043100D02*
X13869500Y-26084400D01*
X14064600Y-27086600D02*
X14060300Y-27043100D01*
X14073100Y-27129100D02*
X14064600Y-27086600D01*
X14092400Y-27175600D02*
X14073100Y-27129100D01*
X14110800Y-27203400D02*
X14092400Y-27175600D01*
X14683100Y-27779000D02*
X14110800Y-27203400D01*
X14721900Y-27808900D02*
X14683100Y-27779000D01*
X14752700Y-27826800D02*
X14721900Y-27808900D01*
X14883800Y-27886500D02*
X14752700Y-27826800D01*
X15240000Y-28034700D02*
X14883800Y-27886500D01*
X15240000Y-29210000D02*
X15240000Y-28034700D01*
X40081300Y-15085200D02*
X40640000Y-15240000D01*
X39547500Y-14923200D02*
X40081300Y-15085200D01*
X39480800Y-14895600D02*
X39547500Y-14923200D01*
X39457200Y-14879800D02*
X39480800Y-14895600D01*
X38646100Y-14068700D02*
X39457200Y-14879800D01*
X38620200Y-14051400D02*
X38646100Y-14068700D01*
X38577200Y-14033600D02*
X38620200Y-14051400D01*
X38537600Y-14025700D02*
X38577200Y-14033600D01*
X37660200Y-14025700D02*
X38537600Y-14025700D01*
X37629200Y-14031900D02*
X37660200Y-14025700D01*
X37583800Y-14050700D02*
X37629200Y-14031900D01*
X37548300Y-14074400D02*
X37583800Y-14050700D01*
X36854200Y-14768500D02*
X37548300Y-14074400D01*
X36829900Y-14786500D02*
X36854200Y-14768500D01*
X36790500Y-14807600D02*
X36829900Y-14786500D01*
X35845000Y-15145800D02*
X36790500Y-14807600D01*
X35560000Y-15240000D02*
X35845000Y-15145800D01*
X54510300Y-28021100D02*
X55880000Y-20320000D01*
X54465000Y-28338700D02*
X54510300Y-28021100D01*
X54454600Y-28386600D02*
X54465000Y-28338700D01*
X54195000Y-28993400D02*
X54454600Y-28386600D01*
X52841000Y-31936300D02*
X54195000Y-28993400D01*
X49792700Y-39108900D02*
X52841000Y-31936300D01*
X14873200Y-38158500D02*
X15240000Y-38005300D01*
X14734000Y-38222100D02*
X14873200Y-38158500D01*
X14699800Y-38248700D02*
X14734000Y-38222100D01*
X14699600Y-38248900D02*
X14699800Y-38248700D01*
X14579400Y-38362700D02*
X14699600Y-38248900D01*
X14107300Y-38840400D02*
X14579400Y-38362700D01*
X14080500Y-38890500D02*
X14107300Y-38840400D01*
X14072800Y-38909200D02*
X14080500Y-38890500D01*
X14064700Y-38949800D02*
X14072800Y-38909200D01*
X14064700Y-42334200D02*
X14064700Y-38949800D01*
X14087900Y-42417900D02*
X14064700Y-42334200D01*
X14874500Y-44867700D02*
X14087900Y-42417900D01*
X15240000Y-45864700D02*
X14874500Y-44867700D01*
X15240000Y-46990000D02*
X15240000Y-45864700D01*
X15240000Y-36830000D02*
X15240000Y-38005300D01*
X58589200Y-41074000D02*
X57650800Y-41503200D01*
X59224800Y-40803900D02*
X58589200Y-41074000D01*
X59736000Y-40618100D02*
X59224800Y-40803900D01*
X60122200Y-40489300D02*
X59736000Y-40618100D01*
X60170300Y-40469400D02*
X60122200Y-40489300D01*
X60206000Y-40445500D02*
X60170300Y-40469400D01*
X60769200Y-39882300D02*
X60206000Y-40445500D01*
X60787100Y-39855600D02*
X60769200Y-39882300D01*
X60806500Y-39808700D02*
X60787100Y-39855600D01*
X61401300Y-37850200D02*
X60806500Y-39808700D01*
X64900400Y-27564700D02*
X61401300Y-37850200D01*
X64933200Y-27477000D02*
X64900400Y-27564700D01*
X65530300Y-26231000D02*
X64933200Y-27477000D01*
X68580000Y-20320000D02*
X65530300Y-26231000D01*
X15574800Y-40684700D02*
X15240000Y-40545300D01*
X15729900Y-40755200D02*
X15574800Y-40684700D01*
X15766900Y-40776700D02*
X15729900Y-40755200D01*
X15833900Y-40835800D02*
X15766900Y-40776700D01*
X16367800Y-41372400D02*
X15833900Y-40835800D01*
X16609600Y-41794500D02*
X16367800Y-41372400D01*
X25636000Y-59050400D02*
X16609600Y-41794500D01*
X27790500Y-63035300D02*
X25636000Y-59050400D01*
X28068500Y-63616600D02*
X27790500Y-63035300D01*
X28746700Y-65128100D02*
X28068500Y-63616600D01*
X29170000Y-66000000D02*
X28746700Y-65128100D01*
X15240000Y-39370000D02*
X15240000Y-40545300D01*
X66040000Y-20320000D02*
X63500000Y-15240000D01*
X58420000Y-20320000D02*
X60960000Y-15240000D01*
X33038800Y-21055400D02*
X30480000Y-15240000D01*
X39091100Y-33570600D02*
X33038800Y-21055400D01*
X39208700Y-33830500D02*
X39091100Y-33570600D01*
X39429200Y-34361000D02*
X39208700Y-33830500D01*
X41375500Y-39486300D02*
X39429200Y-34361000D01*
X44450000Y-46990000D02*
X41375500Y-39486300D01*
X38100000Y-46990000D02*
X27940000Y-15240000D01*
X31750000Y-55880000D02*
X31750000Y-54704700D01*
X31132900Y-47033000D02*
X31750000Y-46990000D01*
X31132900Y-47032900D02*
X31132900Y-47033000D01*
X31132600Y-47030300D02*
X31132900Y-47032900D01*
X27985900Y-28169300D02*
X31132600Y-47030300D01*
X25400000Y-15240000D02*
X27985900Y-28169300D01*
X30902500Y-54531600D02*
X31750000Y-54704700D01*
X30770200Y-54500700D02*
X30902500Y-54531600D01*
X30739100Y-54485300D02*
X30770200Y-54500700D01*
X30697800Y-54451200D02*
X30739100Y-54485300D01*
X30622500Y-54373000D02*
X30697800Y-54451200D01*
X30601900Y-54342100D02*
X30622500Y-54373000D01*
X30583200Y-54297000D02*
X30601900Y-54342100D01*
X30574700Y-54254400D02*
X30583200Y-54297000D01*
X30574700Y-52438100D02*
X30574700Y-54254400D01*
X30574900Y-52435900D02*
X30574700Y-52438100D01*
X31091700Y-47681600D02*
X30574900Y-52435900D01*
X31132900Y-47034500D02*
X31091700Y-47681600D01*
X31132900Y-47033300D02*
X31132900Y-47034500D01*
X31132900Y-47033000D02*
X31132900Y-47033300D01*
X24127700Y-31086000D02*
X22860000Y-15240000D01*
X24270600Y-34652800D02*
X24127700Y-31086000D01*
X24287200Y-34855300D02*
X24270600Y-34652800D01*
X24684100Y-38041700D02*
X24287200Y-34855300D01*
X25400000Y-46990000D02*
X24684100Y-38041700D01*
X54128900Y-36939100D02*
X54610000Y-36735300D01*
X54088900Y-36962700D02*
X54128900Y-36939100D01*
X54056700Y-36987700D02*
X54088900Y-36962700D01*
X53494800Y-37550800D02*
X54056700Y-36987700D01*
X53467600Y-37586100D02*
X53494800Y-37550800D01*
X53456100Y-37605500D02*
X53467600Y-37586100D01*
X53442100Y-37639300D02*
X53456100Y-37605500D01*
X53434700Y-37676700D02*
X53442100Y-37639300D01*
X53434700Y-38525200D02*
X53434700Y-37676700D01*
X53440000Y-38551900D02*
X53434700Y-38525200D01*
X53461100Y-38602900D02*
X53440000Y-38551900D01*
X56284800Y-43318200D02*
X53461100Y-38602900D01*
X58218800Y-46846300D02*
X56284800Y-43318200D01*
X58585200Y-47464700D02*
X58218800Y-46846300D01*
X58623400Y-47516500D02*
X58585200Y-47464700D01*
X58930600Y-47834000D02*
X58623400Y-47516500D01*
X59100000Y-47997700D02*
X58930600Y-47834000D01*
X59186900Y-48076300D02*
X59100000Y-47997700D01*
X59340000Y-48181400D02*
X59186900Y-48076300D01*
X59690000Y-48404700D02*
X59340000Y-48181400D01*
X59690000Y-49530000D02*
X59690000Y-48404700D01*
X54610000Y-35560000D02*
X54610000Y-36735300D01*
M02*
