G04 #@! TF.FileFunction,Legend,Top*
%FSLAX46Y46*%
G04 Gerber Fmt 4.6, Leading zero omitted, Abs format (unit mm)*
G04 Created by KiCad (PCBNEW 4.0.6) date Fri Jul  7 17:37:52 2017*
%MOMM*%
%LPD*%
G01*
G04 APERTURE LIST*
%ADD10C,0.100000*%
%ADD11C,0.127000*%
%ADD12C,0.150000*%
%ADD13C,0.120000*%
%ADD14C,0.101600*%
G04 APERTURE END LIST*
D10*
D11*
X46990000Y-16510000D02*
X21590000Y-16510000D01*
X21590000Y-16510000D02*
X21590000Y-13970000D01*
X21590000Y-13970000D02*
X46990000Y-13970000D01*
X46990000Y-13970000D02*
X46990000Y-16510000D01*
D12*
X17145000Y-43180000D02*
X13335000Y-43180000D01*
X13335000Y-43180000D02*
X13335000Y-17145000D01*
X13335000Y-17145000D02*
X17145000Y-17145000D01*
X17145000Y-17145000D02*
X17145000Y-43180000D01*
D13*
X16570000Y-20320000D02*
X13910000Y-20320000D01*
X13910000Y-19050000D02*
X13910000Y-17720000D01*
X13910000Y-17720000D02*
X15240000Y-17720000D01*
X13910000Y-66040000D02*
X13910000Y-68640000D01*
X13910000Y-68640000D02*
X16570000Y-68640000D01*
X16570000Y-68640000D02*
X16570000Y-66040000D01*
X16570000Y-66040000D02*
X13910000Y-66040000D01*
X13910000Y-64770000D02*
X13910000Y-63440000D01*
X13910000Y-63440000D02*
X15240000Y-63440000D01*
X62230000Y-13910000D02*
X59630000Y-13910000D01*
X59630000Y-13910000D02*
X59630000Y-16570000D01*
X59630000Y-16570000D02*
X62230000Y-16570000D01*
X62230000Y-16570000D02*
X62230000Y-13910000D01*
X63500000Y-13910000D02*
X64830000Y-13910000D01*
X64830000Y-13910000D02*
X64830000Y-15240000D01*
X20260000Y-66040000D02*
X20260000Y-68640000D01*
X20260000Y-68640000D02*
X22920000Y-68640000D01*
X22920000Y-68640000D02*
X22920000Y-66040000D01*
X22920000Y-66040000D02*
X20260000Y-66040000D01*
X20260000Y-64770000D02*
X20260000Y-63440000D01*
X20260000Y-63440000D02*
X21590000Y-63440000D01*
X36770000Y-66040000D02*
X36770000Y-68640000D01*
X36770000Y-68640000D02*
X39430000Y-68640000D01*
X39430000Y-68640000D02*
X39430000Y-66040000D01*
X39430000Y-66040000D02*
X36770000Y-66040000D01*
X36770000Y-64770000D02*
X36770000Y-63440000D01*
X36770000Y-63440000D02*
X38100000Y-63440000D01*
X42790000Y-45200000D02*
X46110000Y-45200000D01*
X46110000Y-45200000D02*
X46110000Y-36080000D01*
X46110000Y-36080000D02*
X42790000Y-36080000D01*
X42790000Y-36080000D02*
X42790000Y-45200000D01*
X44450000Y-46010000D02*
X44450000Y-45200000D01*
X44450000Y-35270000D02*
X44450000Y-36080000D01*
X36440000Y-45200000D02*
X39760000Y-45200000D01*
X39760000Y-45200000D02*
X39760000Y-36080000D01*
X39760000Y-36080000D02*
X36440000Y-36080000D01*
X36440000Y-36080000D02*
X36440000Y-45200000D01*
X38100000Y-46010000D02*
X38100000Y-45200000D01*
X38100000Y-35270000D02*
X38100000Y-36080000D01*
X30090000Y-45200000D02*
X33410000Y-45200000D01*
X33410000Y-45200000D02*
X33410000Y-36080000D01*
X33410000Y-36080000D02*
X30090000Y-36080000D01*
X30090000Y-36080000D02*
X30090000Y-45200000D01*
X31750000Y-46010000D02*
X31750000Y-45200000D01*
X31750000Y-35270000D02*
X31750000Y-36080000D01*
X23740000Y-45200000D02*
X27060000Y-45200000D01*
X27060000Y-45200000D02*
X27060000Y-36080000D01*
X27060000Y-36080000D02*
X23740000Y-36080000D01*
X23740000Y-36080000D02*
X23740000Y-45200000D01*
X25400000Y-46010000D02*
X25400000Y-45200000D01*
X25400000Y-35270000D02*
X25400000Y-36080000D01*
X13580000Y-57900000D02*
X16900000Y-57900000D01*
X16900000Y-57900000D02*
X16900000Y-48780000D01*
X16900000Y-48780000D02*
X13580000Y-48780000D01*
X13580000Y-48780000D02*
X13580000Y-57900000D01*
X15240000Y-58710000D02*
X15240000Y-57900000D01*
X15240000Y-47970000D02*
X15240000Y-48780000D01*
X27543000Y-62790000D02*
X30230000Y-62790000D01*
X27543000Y-69210000D02*
X30230000Y-69210000D01*
X30230000Y-62790000D02*
X30230000Y-69210000D01*
X26609000Y-64505000D02*
X26609000Y-67496000D01*
X26609000Y-64940000D02*
X30230000Y-64940000D01*
X26609000Y-67060000D02*
X30230000Y-67060000D01*
X26609000Y-64940000D02*
X26609000Y-67060000D01*
X30230000Y-64940000D02*
X30230000Y-67060000D01*
X44053000Y-62790000D02*
X46740000Y-62790000D01*
X44053000Y-69210000D02*
X46740000Y-69210000D01*
X46740000Y-62790000D02*
X46740000Y-69210000D01*
X43119000Y-64505000D02*
X43119000Y-67496000D01*
X43119000Y-64940000D02*
X46740000Y-64940000D01*
X43119000Y-67060000D02*
X46740000Y-67060000D01*
X43119000Y-64940000D02*
X43119000Y-67060000D01*
X46740000Y-64940000D02*
X46740000Y-67060000D01*
X43120000Y-54610000D02*
X43120000Y-57210000D01*
X43120000Y-57210000D02*
X45780000Y-57210000D01*
X45780000Y-57210000D02*
X45780000Y-54610000D01*
X45780000Y-54610000D02*
X43120000Y-54610000D01*
X43120000Y-53340000D02*
X43120000Y-52010000D01*
X43120000Y-52010000D02*
X44450000Y-52010000D01*
X36770000Y-54610000D02*
X36770000Y-57210000D01*
X36770000Y-57210000D02*
X39430000Y-57210000D01*
X39430000Y-57210000D02*
X39430000Y-54610000D01*
X39430000Y-54610000D02*
X36770000Y-54610000D01*
X36770000Y-53340000D02*
X36770000Y-52010000D01*
X36770000Y-52010000D02*
X38100000Y-52010000D01*
X30420000Y-54610000D02*
X30420000Y-57210000D01*
X30420000Y-57210000D02*
X33080000Y-57210000D01*
X33080000Y-57210000D02*
X33080000Y-54610000D01*
X33080000Y-54610000D02*
X30420000Y-54610000D01*
X30420000Y-53340000D02*
X30420000Y-52010000D01*
X30420000Y-52010000D02*
X31750000Y-52010000D01*
X24070000Y-54610000D02*
X24070000Y-57210000D01*
X24070000Y-57210000D02*
X26730000Y-57210000D01*
X26730000Y-57210000D02*
X26730000Y-54610000D01*
X26730000Y-54610000D02*
X24070000Y-54610000D01*
X24070000Y-53340000D02*
X24070000Y-52010000D01*
X24070000Y-52010000D02*
X25400000Y-52010000D01*
X53280000Y-36830000D02*
X53280000Y-39430000D01*
X53280000Y-39430000D02*
X55940000Y-39430000D01*
X55940000Y-39430000D02*
X55940000Y-36830000D01*
X55940000Y-36830000D02*
X53280000Y-36830000D01*
X53280000Y-35560000D02*
X53280000Y-34230000D01*
X53280000Y-34230000D02*
X54610000Y-34230000D01*
X53280000Y-45720000D02*
X53280000Y-48320000D01*
X53280000Y-48320000D02*
X55940000Y-48320000D01*
X55940000Y-48320000D02*
X55940000Y-45720000D01*
X55940000Y-45720000D02*
X53280000Y-45720000D01*
X53280000Y-44450000D02*
X53280000Y-43120000D01*
X53280000Y-43120000D02*
X54610000Y-43120000D01*
X53280000Y-54610000D02*
X53280000Y-57210000D01*
X53280000Y-57210000D02*
X55940000Y-57210000D01*
X55940000Y-57210000D02*
X55940000Y-54610000D01*
X55940000Y-54610000D02*
X53280000Y-54610000D01*
X53280000Y-53340000D02*
X53280000Y-52010000D01*
X53280000Y-52010000D02*
X54610000Y-52010000D01*
X53280000Y-64770000D02*
X53280000Y-67370000D01*
X53280000Y-67370000D02*
X55940000Y-67370000D01*
X55940000Y-67370000D02*
X55940000Y-64770000D01*
X55940000Y-64770000D02*
X53280000Y-64770000D01*
X53280000Y-63500000D02*
X53280000Y-62170000D01*
X53280000Y-62170000D02*
X54610000Y-62170000D01*
X72510000Y-23130000D02*
X72510000Y-21360000D01*
X72510000Y-21360000D02*
X51950000Y-21360000D01*
X51950000Y-21360000D02*
X51950000Y-26900000D01*
X51950000Y-26900000D02*
X72510000Y-26900000D01*
X72510000Y-26900000D02*
X72510000Y-25130000D01*
X72510000Y-18930000D02*
X51950000Y-18930000D01*
X51950000Y-18930000D02*
X51950000Y-29330000D01*
X51950000Y-29330000D02*
X72510000Y-29330000D01*
X72510000Y-29330000D02*
X72510000Y-18930000D01*
X72510000Y-25130000D02*
G75*
G02X72510000Y-23130000I0J1000000D01*
G01*
X64500000Y-68700000D02*
X66270000Y-68700000D01*
X66270000Y-68700000D02*
X66270000Y-32900000D01*
X66270000Y-32900000D02*
X60730000Y-32900000D01*
X60730000Y-32900000D02*
X60730000Y-68700000D01*
X60730000Y-68700000D02*
X62500000Y-68700000D01*
X68700000Y-68700000D02*
X68700000Y-32900000D01*
X68700000Y-32900000D02*
X58300000Y-32900000D01*
X58300000Y-32900000D02*
X58300000Y-68700000D01*
X58300000Y-68700000D02*
X68700000Y-68700000D01*
X62500000Y-68700000D02*
G75*
G02X64500000Y-68700000I1000000J0D01*
G01*
D11*
X46083462Y-15804848D02*
X46083462Y-16781538D01*
X46140914Y-16896443D01*
X46198367Y-16953895D01*
X46313271Y-17011348D01*
X46543081Y-17011348D01*
X46657986Y-16953895D01*
X46715438Y-16896443D01*
X46772890Y-16781538D01*
X46772890Y-15804848D01*
X47979390Y-17011348D02*
X47289962Y-17011348D01*
X47634676Y-17011348D02*
X47634676Y-15804848D01*
X47519771Y-15977205D01*
X47404866Y-16092110D01*
X47289962Y-16149562D01*
D14*
X45949810Y-11662833D02*
X46524333Y-11662833D01*
X45834905Y-12007548D02*
X46237071Y-10801048D01*
X46639238Y-12007548D01*
X47041405Y-12007548D02*
X47041405Y-10801048D01*
X47328667Y-10801048D01*
X47501024Y-10858500D01*
X47615929Y-10973405D01*
X47673381Y-11088310D01*
X47730833Y-11318119D01*
X47730833Y-11490476D01*
X47673381Y-11720286D01*
X47615929Y-11835190D01*
X47501024Y-11950095D01*
X47328667Y-12007548D01*
X47041405Y-12007548D01*
X48190453Y-11950095D02*
X48362810Y-12007548D01*
X48650072Y-12007548D01*
X48764976Y-11950095D01*
X48822429Y-11892643D01*
X48879881Y-11777738D01*
X48879881Y-11662833D01*
X48822429Y-11547929D01*
X48764976Y-11490476D01*
X48650072Y-11433024D01*
X48420262Y-11375571D01*
X48305357Y-11318119D01*
X48247905Y-11260667D01*
X48190453Y-11145762D01*
X48190453Y-11030857D01*
X48247905Y-10915952D01*
X48305357Y-10858500D01*
X48420262Y-10801048D01*
X48707524Y-10801048D01*
X48879881Y-10858500D01*
X50028929Y-12007548D02*
X49339501Y-12007548D01*
X49684215Y-12007548D02*
X49684215Y-10801048D01*
X49569310Y-10973405D01*
X49454405Y-11088310D01*
X49339501Y-11145762D01*
X50775810Y-10801048D02*
X50890715Y-10801048D01*
X51005620Y-10858500D01*
X51063072Y-10915952D01*
X51120525Y-11030857D01*
X51177977Y-11260667D01*
X51177977Y-11547929D01*
X51120525Y-11777738D01*
X51063072Y-11892643D01*
X51005620Y-11950095D01*
X50890715Y-12007548D01*
X50775810Y-12007548D01*
X50660906Y-11950095D01*
X50603453Y-11892643D01*
X50546001Y-11777738D01*
X50488549Y-11547929D01*
X50488549Y-11260667D01*
X50546001Y-11030857D01*
X50603453Y-10915952D01*
X50660906Y-10858500D01*
X50775810Y-10801048D01*
X52327025Y-12007548D02*
X51637597Y-12007548D01*
X51982311Y-12007548D02*
X51982311Y-10801048D01*
X51867406Y-10973405D01*
X51752501Y-11088310D01*
X51637597Y-11145762D01*
X53418621Y-10801048D02*
X52844097Y-10801048D01*
X52786645Y-11375571D01*
X52844097Y-11318119D01*
X52959002Y-11260667D01*
X53246264Y-11260667D01*
X53361168Y-11318119D01*
X53418621Y-11375571D01*
X53476073Y-11490476D01*
X53476073Y-11777738D01*
X53418621Y-11892643D01*
X53361168Y-11950095D01*
X53246264Y-12007548D01*
X52959002Y-12007548D01*
X52844097Y-11950095D01*
X52786645Y-11892643D01*
D12*
X14906667Y-16172381D02*
X14906667Y-16886667D01*
X14859047Y-17029524D01*
X14763809Y-17124762D01*
X14620952Y-17172381D01*
X14525714Y-17172381D01*
X15906667Y-17172381D02*
X15335238Y-17172381D01*
X15620952Y-17172381D02*
X15620952Y-16172381D01*
X15525714Y-16315238D01*
X15430476Y-16410476D01*
X15335238Y-16458095D01*
X14501905Y-62892381D02*
X14501905Y-61892381D01*
X14740000Y-61892381D01*
X14882858Y-61940000D01*
X14978096Y-62035238D01*
X15025715Y-62130476D01*
X15073334Y-62320952D01*
X15073334Y-62463810D01*
X15025715Y-62654286D01*
X14978096Y-62749524D01*
X14882858Y-62844762D01*
X14740000Y-62892381D01*
X14501905Y-62892381D01*
X16025715Y-62892381D02*
X15454286Y-62892381D01*
X15740000Y-62892381D02*
X15740000Y-61892381D01*
X15644762Y-62035238D01*
X15549524Y-62130476D01*
X15454286Y-62178095D01*
X66282381Y-16049524D02*
X65282381Y-16049524D01*
X65996667Y-15716190D01*
X65282381Y-15382857D01*
X66282381Y-15382857D01*
X66282381Y-14382857D02*
X66282381Y-14954286D01*
X66282381Y-14668572D02*
X65282381Y-14668572D01*
X65425238Y-14763810D01*
X65520476Y-14859048D01*
X65568095Y-14954286D01*
X19851905Y-62892381D02*
X19851905Y-61892381D01*
X20185239Y-62606667D01*
X20518572Y-61892381D01*
X20518572Y-62892381D01*
X20994762Y-62368571D02*
X21328096Y-62368571D01*
X21470953Y-62892381D02*
X20994762Y-62892381D01*
X20994762Y-61892381D01*
X21470953Y-61892381D01*
X21851905Y-62844762D02*
X21994762Y-62892381D01*
X22232858Y-62892381D01*
X22328096Y-62844762D01*
X22375715Y-62797143D01*
X22423334Y-62701905D01*
X22423334Y-62606667D01*
X22375715Y-62511429D01*
X22328096Y-62463810D01*
X22232858Y-62416190D01*
X22042381Y-62368571D01*
X21947143Y-62320952D01*
X21899524Y-62273333D01*
X21851905Y-62178095D01*
X21851905Y-62082857D01*
X21899524Y-61987619D01*
X21947143Y-61940000D01*
X22042381Y-61892381D01*
X22280477Y-61892381D01*
X22423334Y-61940000D01*
X23375715Y-62892381D02*
X22804286Y-62892381D01*
X23090000Y-62892381D02*
X23090000Y-61892381D01*
X22994762Y-62035238D01*
X22899524Y-62130476D01*
X22804286Y-62178095D01*
X36361905Y-62892381D02*
X36361905Y-61892381D01*
X36695239Y-62606667D01*
X37028572Y-61892381D01*
X37028572Y-62892381D01*
X37504762Y-62368571D02*
X37838096Y-62368571D01*
X37980953Y-62892381D02*
X37504762Y-62892381D01*
X37504762Y-61892381D01*
X37980953Y-61892381D01*
X38361905Y-62844762D02*
X38504762Y-62892381D01*
X38742858Y-62892381D01*
X38838096Y-62844762D01*
X38885715Y-62797143D01*
X38933334Y-62701905D01*
X38933334Y-62606667D01*
X38885715Y-62511429D01*
X38838096Y-62463810D01*
X38742858Y-62416190D01*
X38552381Y-62368571D01*
X38457143Y-62320952D01*
X38409524Y-62273333D01*
X38361905Y-62178095D01*
X38361905Y-62082857D01*
X38409524Y-61987619D01*
X38457143Y-61940000D01*
X38552381Y-61892381D01*
X38790477Y-61892381D01*
X38933334Y-61940000D01*
X39314286Y-61987619D02*
X39361905Y-61940000D01*
X39457143Y-61892381D01*
X39695239Y-61892381D01*
X39790477Y-61940000D01*
X39838096Y-61987619D01*
X39885715Y-62082857D01*
X39885715Y-62178095D01*
X39838096Y-62320952D01*
X39266667Y-62892381D01*
X39885715Y-62892381D01*
X42242381Y-40806666D02*
X41766190Y-41140000D01*
X42242381Y-41378095D02*
X41242381Y-41378095D01*
X41242381Y-40997142D01*
X41290000Y-40901904D01*
X41337619Y-40854285D01*
X41432857Y-40806666D01*
X41575714Y-40806666D01*
X41670952Y-40854285D01*
X41718571Y-40901904D01*
X41766190Y-40997142D01*
X41766190Y-41378095D01*
X42242381Y-39854285D02*
X42242381Y-40425714D01*
X42242381Y-40140000D02*
X41242381Y-40140000D01*
X41385238Y-40235238D01*
X41480476Y-40330476D01*
X41528095Y-40425714D01*
X35892381Y-40806666D02*
X35416190Y-41140000D01*
X35892381Y-41378095D02*
X34892381Y-41378095D01*
X34892381Y-40997142D01*
X34940000Y-40901904D01*
X34987619Y-40854285D01*
X35082857Y-40806666D01*
X35225714Y-40806666D01*
X35320952Y-40854285D01*
X35368571Y-40901904D01*
X35416190Y-40997142D01*
X35416190Y-41378095D01*
X34987619Y-40425714D02*
X34940000Y-40378095D01*
X34892381Y-40282857D01*
X34892381Y-40044761D01*
X34940000Y-39949523D01*
X34987619Y-39901904D01*
X35082857Y-39854285D01*
X35178095Y-39854285D01*
X35320952Y-39901904D01*
X35892381Y-40473333D01*
X35892381Y-39854285D01*
X29542381Y-40806666D02*
X29066190Y-41140000D01*
X29542381Y-41378095D02*
X28542381Y-41378095D01*
X28542381Y-40997142D01*
X28590000Y-40901904D01*
X28637619Y-40854285D01*
X28732857Y-40806666D01*
X28875714Y-40806666D01*
X28970952Y-40854285D01*
X29018571Y-40901904D01*
X29066190Y-40997142D01*
X29066190Y-41378095D01*
X28542381Y-40473333D02*
X28542381Y-39854285D01*
X28923333Y-40187619D01*
X28923333Y-40044761D01*
X28970952Y-39949523D01*
X29018571Y-39901904D01*
X29113810Y-39854285D01*
X29351905Y-39854285D01*
X29447143Y-39901904D01*
X29494762Y-39949523D01*
X29542381Y-40044761D01*
X29542381Y-40330476D01*
X29494762Y-40425714D01*
X29447143Y-40473333D01*
X23192381Y-40806666D02*
X22716190Y-41140000D01*
X23192381Y-41378095D02*
X22192381Y-41378095D01*
X22192381Y-40997142D01*
X22240000Y-40901904D01*
X22287619Y-40854285D01*
X22382857Y-40806666D01*
X22525714Y-40806666D01*
X22620952Y-40854285D01*
X22668571Y-40901904D01*
X22716190Y-40997142D01*
X22716190Y-41378095D01*
X22525714Y-39949523D02*
X23192381Y-39949523D01*
X22144762Y-40187619D02*
X22859048Y-40425714D01*
X22859048Y-39806666D01*
X13032381Y-53506666D02*
X12556190Y-53840000D01*
X13032381Y-54078095D02*
X12032381Y-54078095D01*
X12032381Y-53697142D01*
X12080000Y-53601904D01*
X12127619Y-53554285D01*
X12222857Y-53506666D01*
X12365714Y-53506666D01*
X12460952Y-53554285D01*
X12508571Y-53601904D01*
X12556190Y-53697142D01*
X12556190Y-54078095D01*
X13032381Y-53030476D02*
X13032381Y-52840000D01*
X12984762Y-52744761D01*
X12937143Y-52697142D01*
X12794286Y-52601904D01*
X12603810Y-52554285D01*
X12222857Y-52554285D01*
X12127619Y-52601904D01*
X12080000Y-52649523D01*
X12032381Y-52744761D01*
X12032381Y-52935238D01*
X12080000Y-53030476D01*
X12127619Y-53078095D01*
X12222857Y-53125714D01*
X12460952Y-53125714D01*
X12556190Y-53078095D01*
X12603810Y-53030476D01*
X12651429Y-52935238D01*
X12651429Y-52744761D01*
X12603810Y-52649523D01*
X12556190Y-52601904D01*
X12460952Y-52554285D01*
X26074762Y-61892381D02*
X25741428Y-61416190D01*
X25503333Y-61892381D02*
X25503333Y-60892381D01*
X25884286Y-60892381D01*
X25979524Y-60940000D01*
X26027143Y-60987619D01*
X26074762Y-61082857D01*
X26074762Y-61225714D01*
X26027143Y-61320952D01*
X25979524Y-61368571D01*
X25884286Y-61416190D01*
X25503333Y-61416190D01*
X26360476Y-60892381D02*
X26693809Y-61892381D01*
X27027143Y-60892381D01*
X27884286Y-61892381D02*
X27312857Y-61892381D01*
X27598571Y-61892381D02*
X27598571Y-60892381D01*
X27503333Y-61035238D01*
X27408095Y-61130476D01*
X27312857Y-61178095D01*
X42584762Y-61892381D02*
X42251428Y-61416190D01*
X42013333Y-61892381D02*
X42013333Y-60892381D01*
X42394286Y-60892381D01*
X42489524Y-60940000D01*
X42537143Y-60987619D01*
X42584762Y-61082857D01*
X42584762Y-61225714D01*
X42537143Y-61320952D01*
X42489524Y-61368571D01*
X42394286Y-61416190D01*
X42013333Y-61416190D01*
X42870476Y-60892381D02*
X43203809Y-61892381D01*
X43537143Y-60892381D01*
X43822857Y-60987619D02*
X43870476Y-60940000D01*
X43965714Y-60892381D01*
X44203810Y-60892381D01*
X44299048Y-60940000D01*
X44346667Y-60987619D01*
X44394286Y-61082857D01*
X44394286Y-61178095D01*
X44346667Y-61320952D01*
X43775238Y-61892381D01*
X44394286Y-61892381D01*
X43854762Y-51462381D02*
X43521428Y-50986190D01*
X43283333Y-51462381D02*
X43283333Y-50462381D01*
X43664286Y-50462381D01*
X43759524Y-50510000D01*
X43807143Y-50557619D01*
X43854762Y-50652857D01*
X43854762Y-50795714D01*
X43807143Y-50890952D01*
X43759524Y-50938571D01*
X43664286Y-50986190D01*
X43283333Y-50986190D01*
X44140476Y-50462381D02*
X44473809Y-51462381D01*
X44807143Y-50462381D01*
X45045238Y-50462381D02*
X45664286Y-50462381D01*
X45330952Y-50843333D01*
X45473810Y-50843333D01*
X45569048Y-50890952D01*
X45616667Y-50938571D01*
X45664286Y-51033810D01*
X45664286Y-51271905D01*
X45616667Y-51367143D01*
X45569048Y-51414762D01*
X45473810Y-51462381D01*
X45188095Y-51462381D01*
X45092857Y-51414762D01*
X45045238Y-51367143D01*
X37504762Y-51462381D02*
X37171428Y-50986190D01*
X36933333Y-51462381D02*
X36933333Y-50462381D01*
X37314286Y-50462381D01*
X37409524Y-50510000D01*
X37457143Y-50557619D01*
X37504762Y-50652857D01*
X37504762Y-50795714D01*
X37457143Y-50890952D01*
X37409524Y-50938571D01*
X37314286Y-50986190D01*
X36933333Y-50986190D01*
X37790476Y-50462381D02*
X38123809Y-51462381D01*
X38457143Y-50462381D01*
X39219048Y-50795714D02*
X39219048Y-51462381D01*
X38980952Y-50414762D02*
X38742857Y-51129048D01*
X39361905Y-51129048D01*
X31154762Y-51462381D02*
X30821428Y-50986190D01*
X30583333Y-51462381D02*
X30583333Y-50462381D01*
X30964286Y-50462381D01*
X31059524Y-50510000D01*
X31107143Y-50557619D01*
X31154762Y-50652857D01*
X31154762Y-50795714D01*
X31107143Y-50890952D01*
X31059524Y-50938571D01*
X30964286Y-50986190D01*
X30583333Y-50986190D01*
X31440476Y-50462381D02*
X31773809Y-51462381D01*
X32107143Y-50462381D01*
X32916667Y-50462381D02*
X32440476Y-50462381D01*
X32392857Y-50938571D01*
X32440476Y-50890952D01*
X32535714Y-50843333D01*
X32773810Y-50843333D01*
X32869048Y-50890952D01*
X32916667Y-50938571D01*
X32964286Y-51033810D01*
X32964286Y-51271905D01*
X32916667Y-51367143D01*
X32869048Y-51414762D01*
X32773810Y-51462381D01*
X32535714Y-51462381D01*
X32440476Y-51414762D01*
X32392857Y-51367143D01*
X24804762Y-51462381D02*
X24471428Y-50986190D01*
X24233333Y-51462381D02*
X24233333Y-50462381D01*
X24614286Y-50462381D01*
X24709524Y-50510000D01*
X24757143Y-50557619D01*
X24804762Y-50652857D01*
X24804762Y-50795714D01*
X24757143Y-50890952D01*
X24709524Y-50938571D01*
X24614286Y-50986190D01*
X24233333Y-50986190D01*
X25090476Y-50462381D02*
X25423809Y-51462381D01*
X25757143Y-50462381D01*
X26519048Y-50462381D02*
X26328571Y-50462381D01*
X26233333Y-50510000D01*
X26185714Y-50557619D01*
X26090476Y-50700476D01*
X26042857Y-50890952D01*
X26042857Y-51271905D01*
X26090476Y-51367143D01*
X26138095Y-51414762D01*
X26233333Y-51462381D01*
X26423810Y-51462381D01*
X26519048Y-51414762D01*
X26566667Y-51367143D01*
X26614286Y-51271905D01*
X26614286Y-51033810D01*
X26566667Y-50938571D01*
X26519048Y-50890952D01*
X26423810Y-50843333D01*
X26233333Y-50843333D01*
X26138095Y-50890952D01*
X26090476Y-50938571D01*
X26042857Y-51033810D01*
X53276667Y-33634762D02*
X53419524Y-33682381D01*
X53657620Y-33682381D01*
X53752858Y-33634762D01*
X53800477Y-33587143D01*
X53848096Y-33491905D01*
X53848096Y-33396667D01*
X53800477Y-33301429D01*
X53752858Y-33253810D01*
X53657620Y-33206190D01*
X53467143Y-33158571D01*
X53371905Y-33110952D01*
X53324286Y-33063333D01*
X53276667Y-32968095D01*
X53276667Y-32872857D01*
X53324286Y-32777619D01*
X53371905Y-32730000D01*
X53467143Y-32682381D01*
X53705239Y-32682381D01*
X53848096Y-32730000D01*
X54181429Y-32682381D02*
X54419524Y-33682381D01*
X54610001Y-32968095D01*
X54800477Y-33682381D01*
X55038572Y-32682381D01*
X55943334Y-33682381D02*
X55371905Y-33682381D01*
X55657619Y-33682381D02*
X55657619Y-32682381D01*
X55562381Y-32825238D01*
X55467143Y-32920476D01*
X55371905Y-32968095D01*
X53276667Y-42524762D02*
X53419524Y-42572381D01*
X53657620Y-42572381D01*
X53752858Y-42524762D01*
X53800477Y-42477143D01*
X53848096Y-42381905D01*
X53848096Y-42286667D01*
X53800477Y-42191429D01*
X53752858Y-42143810D01*
X53657620Y-42096190D01*
X53467143Y-42048571D01*
X53371905Y-42000952D01*
X53324286Y-41953333D01*
X53276667Y-41858095D01*
X53276667Y-41762857D01*
X53324286Y-41667619D01*
X53371905Y-41620000D01*
X53467143Y-41572381D01*
X53705239Y-41572381D01*
X53848096Y-41620000D01*
X54181429Y-41572381D02*
X54419524Y-42572381D01*
X54610001Y-41858095D01*
X54800477Y-42572381D01*
X55038572Y-41572381D01*
X55371905Y-41667619D02*
X55419524Y-41620000D01*
X55514762Y-41572381D01*
X55752858Y-41572381D01*
X55848096Y-41620000D01*
X55895715Y-41667619D01*
X55943334Y-41762857D01*
X55943334Y-41858095D01*
X55895715Y-42000952D01*
X55324286Y-42572381D01*
X55943334Y-42572381D01*
X53276667Y-51414762D02*
X53419524Y-51462381D01*
X53657620Y-51462381D01*
X53752858Y-51414762D01*
X53800477Y-51367143D01*
X53848096Y-51271905D01*
X53848096Y-51176667D01*
X53800477Y-51081429D01*
X53752858Y-51033810D01*
X53657620Y-50986190D01*
X53467143Y-50938571D01*
X53371905Y-50890952D01*
X53324286Y-50843333D01*
X53276667Y-50748095D01*
X53276667Y-50652857D01*
X53324286Y-50557619D01*
X53371905Y-50510000D01*
X53467143Y-50462381D01*
X53705239Y-50462381D01*
X53848096Y-50510000D01*
X54181429Y-50462381D02*
X54419524Y-51462381D01*
X54610001Y-50748095D01*
X54800477Y-51462381D01*
X55038572Y-50462381D01*
X55324286Y-50462381D02*
X55943334Y-50462381D01*
X55610000Y-50843333D01*
X55752858Y-50843333D01*
X55848096Y-50890952D01*
X55895715Y-50938571D01*
X55943334Y-51033810D01*
X55943334Y-51271905D01*
X55895715Y-51367143D01*
X55848096Y-51414762D01*
X55752858Y-51462381D01*
X55467143Y-51462381D01*
X55371905Y-51414762D01*
X55324286Y-51367143D01*
X53276667Y-61574762D02*
X53419524Y-61622381D01*
X53657620Y-61622381D01*
X53752858Y-61574762D01*
X53800477Y-61527143D01*
X53848096Y-61431905D01*
X53848096Y-61336667D01*
X53800477Y-61241429D01*
X53752858Y-61193810D01*
X53657620Y-61146190D01*
X53467143Y-61098571D01*
X53371905Y-61050952D01*
X53324286Y-61003333D01*
X53276667Y-60908095D01*
X53276667Y-60812857D01*
X53324286Y-60717619D01*
X53371905Y-60670000D01*
X53467143Y-60622381D01*
X53705239Y-60622381D01*
X53848096Y-60670000D01*
X54181429Y-60622381D02*
X54419524Y-61622381D01*
X54610001Y-60908095D01*
X54800477Y-61622381D01*
X55038572Y-60622381D01*
X55848096Y-60955714D02*
X55848096Y-61622381D01*
X55610000Y-60574762D02*
X55371905Y-61289048D01*
X55990953Y-61289048D01*
X72962381Y-24891905D02*
X73771905Y-24891905D01*
X73867143Y-24844286D01*
X73914762Y-24796667D01*
X73962381Y-24701429D01*
X73962381Y-24510952D01*
X73914762Y-24415714D01*
X73867143Y-24368095D01*
X73771905Y-24320476D01*
X72962381Y-24320476D01*
X73057619Y-23891905D02*
X73010000Y-23844286D01*
X72962381Y-23749048D01*
X72962381Y-23510952D01*
X73010000Y-23415714D01*
X73057619Y-23368095D01*
X73152857Y-23320476D01*
X73248095Y-23320476D01*
X73390952Y-23368095D01*
X73962381Y-23939524D01*
X73962381Y-23320476D01*
X62738095Y-69152381D02*
X62738095Y-69961905D01*
X62785714Y-70057143D01*
X62833333Y-70104762D01*
X62928571Y-70152381D01*
X63119048Y-70152381D01*
X63214286Y-70104762D01*
X63261905Y-70057143D01*
X63309524Y-69961905D01*
X63309524Y-69152381D01*
X63690476Y-69152381D02*
X64309524Y-69152381D01*
X63976190Y-69533333D01*
X64119048Y-69533333D01*
X64214286Y-69580952D01*
X64261905Y-69628571D01*
X64309524Y-69723810D01*
X64309524Y-69961905D01*
X64261905Y-70057143D01*
X64214286Y-70104762D01*
X64119048Y-70152381D01*
X63833333Y-70152381D01*
X63738095Y-70104762D01*
X63690476Y-70057143D01*
M02*
